<svg width="32" height="32" viewBox="0 0 32 32" fill="none" xmlns="http://www.w3.org/2000/svg">
<path d="M25.4459 2C26.0281 2 26.4999 2.47027 26.4999 3.05056V19.9076C26.4999 20.4871 26.0281 20.9581 25.4459 20.9581L18.076 20.9573C17.4938 20.9573 17.0212 20.4863 17.0212 19.906L17.0171 17.3077C17.0171 16.7274 16.5445 16.2563 15.9631 16.2563L8.54417 16.2539C7.98324 16.2539 7.52533 15.8178 7.49181 15.2677V3.05056C7.49181 2.47027 7.96362 2 8.54581 2H25.4459ZM20.9658 11.9024H17.8863C17.4942 11.9024 17.1702 12.1928 17.119 12.5696L17.1119 12.6743V15.7469C17.1119 16.1376 17.4032 16.4605 17.7812 16.5117L17.8863 16.5187H20.9658C21.3578 16.5187 21.6818 16.2283 21.733 15.8516L21.7401 15.7469V12.6743C21.7401 12.2835 21.4488 11.9606 21.0709 11.9094L20.9658 11.9024ZM9.28698 20.3811C9.28698 19.9541 9.6336 19.6085 10.0613 19.6085H13.1408C13.5684 19.6085 13.9151 19.9541 13.9151 20.3811V23.453C13.9151 23.8792 13.5684 24.2248 13.1408 24.2248H10.0613C9.6336 24.2248 9.28698 23.8792 9.28698 23.453V20.3811ZM1.5 22.3022C1.5 21.8767 1.8467 21.5304 2.27435 21.5304H5.25157C5.67922 21.5304 6.02593 21.8767 6.02593 22.3022V25.2697C6.02593 25.6959 5.67922 26.0415 5.25157 26.0415H2.27435C1.8467 26.0415 1.5 25.6959 1.5 25.2697V22.3022ZM7.40783 28.1555C7.40783 27.7293 7.75454 27.3837 8.18219 27.3837H11.2616C11.6892 27.3837 12.036 27.7293 12.036 28.1555V31.2281C12.036 31.6544 11.6892 31.9999 11.2616 31.9999H8.18219C7.75454 31.9999 7.40783 31.6544 7.40783 31.2281V28.1555Z" fill="#E0E0E0"/>
</svg>
