<svg width="316" height="26" viewBox="0 0 316 26" fill="none" xmlns="http://www.w3.org/2000/svg">
<path d="M263.202 19.8829C263.173 19.7117 263.12 19.5923 263.045 19.5256C262.97 19.4589 262.891 19.4269 262.81 19.4297C262.782 19.4314 262.753 19.4369 262.721 19.4472C262.69 19.4575 262.668 19.4634 262.653 19.4647C262.342 19.5792 261.924 19.6986 261.398 19.822C260.872 19.9455 260.296 20.0122 259.672 20.0225C258.349 20.048 257.17 19.6047 256.661 18.6934C256.151 17.7817 255.966 16.2666 255.989 14.1131C255.966 11.9778 256.151 10.4438 256.661 9.54622C257.17 8.64829 258.349 8.21256 259.672 8.2387C260.296 8.24867 260.872 8.31573 261.398 8.43919C261.924 8.56265 262.342 8.68164 262.653 8.79651C262.668 8.79788 262.69 8.80373 262.721 8.81405C262.753 8.82402 262.782 8.82987 262.81 8.83124C262.891 8.83365 262.97 8.80304 263.045 8.73976C263.12 8.67683 263.173 8.56781 263.202 8.41306L263.542 6.25472V6.08036C263.542 5.9428 263.516 5.82656 263.463 5.73233C263.411 5.6381 263.333 5.55694 263.228 5.48885C262.887 5.26841 262.301 5.06516 261.47 4.87945C260.639 4.69409 259.726 4.59539 258.731 4.58369C257.021 4.58335 255.685 4.93585 254.724 5.6412C253.763 6.34654 253.089 7.40611 252.703 8.82024C252.317 10.2344 252.141 11.9871 252.156 14.1131C252.141 16.2281 252.317 18.0073 252.703 19.4162C253.089 20.8256 253.763 21.882 254.724 22.5863C255.685 23.2907 257.021 23.6425 258.731 23.6425C259.726 23.6332 260.639 23.5389 261.47 23.3598C262.301 23.1806 262.887 22.9732 263.228 22.7377C263.333 22.6709 263.411 22.5953 263.463 22.5114C263.516 22.4271 263.542 22.3171 263.542 22.1805V22.0065L263.202 19.8829Z" fill="#4C88BE"/>
<path d="M263.202 19.8829C263.173 19.7117 263.12 19.5923 263.045 19.5256C262.97 19.4589 262.891 19.4269 262.81 19.4297C262.782 19.4314 262.753 19.4369 262.721 19.4472C262.69 19.4575 262.668 19.4634 262.653 19.4647C262.342 19.5792 261.924 19.6986 261.398 19.822C260.872 19.9455 260.296 20.0122 259.672 20.0225C258.349 20.048 257.17 19.6047 256.661 18.6934C256.151 17.7817 255.966 16.2666 255.989 14.1131C255.966 11.9778 256.151 10.4438 256.661 9.54622C257.17 8.64829 258.349 8.21256 259.672 8.2387C260.296 8.24867 260.872 8.31573 261.398 8.43919C261.924 8.56265 262.342 8.68164 262.653 8.79651C262.668 8.79788 262.69 8.80373 262.721 8.81405C262.753 8.82402 262.782 8.82987 262.81 8.83124C262.891 8.83365 262.97 8.80304 263.045 8.73976C263.12 8.67683 263.173 8.56781 263.202 8.41306L263.542 6.25472V6.08036C263.542 5.9428 263.516 5.82656 263.463 5.73233C263.411 5.6381 263.333 5.55694 263.228 5.48885C262.887 5.26841 262.301 5.06516 261.47 4.87945C260.639 4.69409 259.726 4.59539 258.731 4.58369C257.021 4.58335 255.685 4.93585 254.724 5.6412C253.763 6.34654 253.089 7.40611 252.703 8.82024C252.317 10.2344 252.141 11.9871 252.156 14.1131C252.141 16.2281 252.317 18.0073 252.703 19.4162C253.089 20.8256 253.763 21.882 254.724 22.5863C255.685 23.2907 257.021 23.6425 258.731 23.6425C259.726 23.6332 260.639 23.5389 261.47 23.3598C262.301 23.1806 262.887 22.9732 263.228 22.7377C263.333 22.6709 263.411 22.5953 263.463 22.5114C263.516 22.4271 263.542 22.3171 263.542 22.1805V22.0065L263.202 19.8829Z" fill="#4C88BE"/>
<path d="M269.805 23.4535V5.27932C269.804 5.24274 269.8 5.19689 269.745 5.15186C269.691 5.10684 269.663 5.09299 269.569 5.09194H266.183C266.113 5.09272 266.057 5.11032 266.007 5.15186C265.957 5.19341 265.948 5.23154 265.947 5.27932V23.4535C265.949 23.5217 265.977 23.5574 266.017 23.5899C266.057 23.6224 266.138 23.642 266.183 23.6425H269.569C269.642 23.6417 269.706 23.622 269.745 23.5899C269.784 23.5578 269.804 23.5066 269.805 23.4535Z" fill="#4C88BE"/>
<path d="M269.805 23.4535V5.27932C269.804 5.24274 269.8 5.19689 269.745 5.15186C269.691 5.10684 269.663 5.09299 269.569 5.09194H266.183C266.113 5.09272 266.057 5.11032 266.007 5.15186C265.957 5.19341 265.948 5.23154 265.947 5.27932V23.4535C265.949 23.5217 265.977 23.5574 266.017 23.5899C266.057 23.6224 266.138 23.642 266.183 23.6425H269.569C269.642 23.6417 269.706 23.622 269.745 23.5899C269.784 23.5578 269.804 23.5066 269.805 23.4535Z" fill="#4C88BE"/>
<path d="M285.206 16.6672C285.234 15.3041 285.107 14.1209 284.796 13.0395C284.485 11.9595 283.765 11.102 282.843 10.5296C281.92 9.95711 280.401 9.67993 278.601 9.66652C276.802 9.6531 275.204 9.92568 274.204 10.6395C273.204 11.3532 272.728 11.9595 272.421 13.0395C272.114 14.1209 271.967 15.3041 271.994 16.6672C271.967 18.0214 272.113 19.231 272.421 20.308C272.728 21.385 273.317 22.1005 274.297 22.7303C275.277 23.3615 276.649 23.6277 278.641 23.6425C280.622 23.6277 281.992 23.3164 282.972 22.6852C283.953 22.0554 284.507 21.2275 284.796 20.2458C285.084 19.2641 285.234 18.0214 285.206 16.6672ZM281.408 16.6672C281.422 17.6836 281.378 18.5552 281.281 19.2146C281.183 19.874 280.939 20.422 280.509 20.7995C280.078 21.177 279.41 21.3261 278.603 21.3247C277.785 21.3261 277.085 21.1558 276.664 20.7825C276.244 20.4091 276 19.7848 275.905 19.1255C275.811 18.4669 275.781 17.6836 275.796 16.6672C275.781 15.642 275.83 14.7473 275.924 14.0842C276.019 13.4219 276.318 12.8254 276.689 12.5046C277.06 12.1838 277.785 11.9737 278.603 11.9752C279.411 11.9737 280.125 12.1364 280.561 12.5529C280.997 12.9694 281.183 13.4706 281.281 14.1329C281.378 14.7952 281.421 15.6427 281.408 16.6672Z" fill="#4C88BE"/>
<path d="M285.206 16.6672C285.234 15.3041 285.107 14.1209 284.796 13.0395C284.485 11.9595 283.765 11.102 282.843 10.5296C281.92 9.95711 280.401 9.67993 278.601 9.66652C276.802 9.6531 275.204 9.92568 274.204 10.6395C273.204 11.3532 272.728 11.9595 272.421 13.0395C272.114 14.1209 271.967 15.3041 271.994 16.6672C271.967 18.0214 272.113 19.231 272.421 20.308C272.728 21.385 273.317 22.1005 274.297 22.7303C275.277 23.3615 276.649 23.6277 278.641 23.6425C280.622 23.6277 281.992 23.3164 282.972 22.6852C283.953 22.0554 284.507 21.2275 284.796 20.2458C285.084 19.2641 285.234 18.0214 285.206 16.6672ZM281.408 16.6672C281.422 17.6836 281.378 18.5552 281.281 19.2146C281.183 19.874 280.939 20.422 280.509 20.7995C280.078 21.177 279.41 21.3261 278.603 21.3247C277.785 21.3261 277.085 21.1558 276.664 20.7825C276.244 20.4091 276 19.7848 275.905 19.1255C275.811 18.4669 275.781 17.6836 275.796 16.6672C275.781 15.642 275.83 14.7473 275.924 14.0842C276.019 13.4219 276.318 12.8254 276.689 12.5046C277.06 12.1838 277.785 11.9737 278.603 11.9752C279.411 11.9737 280.125 12.1364 280.561 12.5529C280.997 12.9694 281.183 13.4706 281.281 14.1329C281.378 14.7952 281.421 15.6427 281.408 16.6672Z" fill="#4C88BE"/>
<path d="M314.975 21.2209V4.90056C314.973 4.74534 314.949 4.67931 314.899 4.63636C314.848 4.59341 314.818 4.58302 314.751 4.5837H314.529H311.556C311.397 4.61406 311.377 4.63265 311.319 4.68979C311.261 4.74693 311.229 4.84387 311.232 5.02718V8.34804V10.1612C311.07 10.119 310.697 10.0276 310.049 9.90042C309.4 9.77329 308.648 9.70381 307.694 9.68976C306.146 9.69567 305.112 9.91495 304.27 10.5026C303.429 11.0887 302.902 11.8195 302.582 12.9075C302.261 13.9955 302.107 15.2387 302.122 16.7503C302.112 18.5545 302.309 19.9056 302.762 20.9397C303.217 21.973 303.821 22.5951 304.859 23.0223C305.897 23.4495 307.138 23.6545 308.88 23.6419C309.718 23.639 310.595 23.5944 311.387 23.4872C312.179 23.38 312.848 23.252 313.498 23.0673C314.101 22.8625 314.555 22.6406 314.751 22.2768C314.948 21.913 314.975 21.7119 314.975 21.2209ZM310.507 21.1884C310.116 21.2653 309.559 21.3186 309.018 21.3304C308.322 21.3504 307.644 21.2307 307.214 21.0363C306.784 20.8397 306.388 20.3018 306.189 19.6425C305.991 18.9824 305.879 17.9305 305.881 16.5594C305.878 15.257 305.971 14.2643 306.151 13.6375C306.33 13.0107 306.705 12.4545 307.109 12.2697C307.514 12.0849 308.156 11.9646 308.832 11.9831C309.357 11.9935 309.87 12.0342 310.317 12.1022C310.615 12.1485 310.92 12.2044 311.232 12.2697V20.9853C311.009 21.0705 310.767 21.1382 310.507 21.1884Z" fill="#4C88BE"/>
<path d="M314.975 21.2209V4.90056C314.973 4.74534 314.949 4.67931 314.899 4.63636C314.848 4.59341 314.818 4.58302 314.751 4.5837H314.529H311.556C311.397 4.61406 311.377 4.63265 311.319 4.68979C311.261 4.74693 311.229 4.84387 311.232 5.02718V8.34804V10.1612C311.07 10.119 310.697 10.0276 310.049 9.90042C309.4 9.77329 308.648 9.70381 307.694 9.68976C306.146 9.69567 305.112 9.91495 304.27 10.5026C303.429 11.0887 302.902 11.8195 302.582 12.9075C302.261 13.9955 302.107 15.2387 302.122 16.7503C302.112 18.5545 302.309 19.9056 302.762 20.9397C303.217 21.973 303.821 22.5951 304.859 23.0223C305.897 23.4495 307.138 23.6545 308.88 23.6419C309.718 23.639 310.595 23.5944 311.387 23.4872C312.179 23.38 312.848 23.252 313.498 23.0673C314.101 22.8625 314.555 22.6406 314.751 22.2768C314.948 21.913 314.975 21.7119 314.975 21.2209ZM310.507 21.1884C310.116 21.2653 309.559 21.3186 309.018 21.3304C308.322 21.3504 307.644 21.2307 307.214 21.0363C306.784 20.8397 306.388 20.3018 306.189 19.6425C305.991 18.9824 305.879 17.9305 305.881 16.5594C305.878 15.257 305.971 14.2643 306.151 13.6375C306.33 13.0107 306.705 12.4545 307.109 12.2697C307.514 12.0849 308.156 11.9646 308.832 11.9831C309.357 11.9935 309.87 12.0342 310.317 12.1022C310.615 12.1485 310.92 12.2044 311.232 12.2697V20.9853C311.009 21.0705 310.767 21.1382 310.507 21.1884Z" fill="#4C88BE"/>
<path d="M287.397 19.6825C287.412 21.3138 287.842 22.2778 288.795 22.8589C289.748 23.4399 290.979 23.5544 292.681 23.6201C294.025 23.672 295.015 23.6352 296.031 23.4935C297.047 23.3518 297.637 23.1568 297.92 23.0373C299.545 22.3567 299.926 21.4921 299.928 19.1301V9.93059C299.926 9.80953 299.923 9.7645 299.874 9.72095C299.824 9.67741 299.774 9.66874 299.638 9.66723H296.52C296.398 9.66874 296.33 9.64983 296.258 9.72095C296.185 9.79359 296.215 9.95758 296.213 10.0786C296.213 14.0713 296.213 17.0658 296.213 19.0621C296.213 20.0401 296.038 20.306 295.782 20.6377C295.526 20.9694 294.868 21.1756 294.417 21.2289C293.966 21.2821 293.917 21.2821 293.245 21.2821C292.572 21.2821 292.067 21.1455 291.692 20.8004C291.318 20.4553 291.139 19.8816 291.135 19.1575V10.1347C291.133 10.0137 291.171 9.81133 291.089 9.73869C291.007 9.66602 290.917 9.66874 290.78 9.66723H287.753C287.617 9.66874 287.518 9.65512 287.448 9.72095C287.401 9.76484 287.384 13.0854 287.397 19.6825Z" fill="#4C88BE"/>
<path d="M287.397 19.6825C287.412 21.3138 287.842 22.2778 288.795 22.8589C289.748 23.4399 290.979 23.5544 292.681 23.6201C294.025 23.672 295.015 23.6352 296.031 23.4935C297.047 23.3518 297.637 23.1568 297.92 23.0373C299.545 22.3567 299.926 21.4921 299.928 19.1301V9.93059C299.926 9.80953 299.923 9.7645 299.874 9.72095C299.824 9.67741 299.774 9.66874 299.638 9.66723H296.52C296.398 9.66874 296.33 9.64983 296.258 9.72095C296.185 9.79359 296.215 9.95758 296.213 10.0786C296.213 14.0713 296.213 17.0658 296.213 19.0621C296.213 20.0401 296.038 20.306 295.782 20.6377C295.526 20.9694 294.868 21.1756 294.417 21.2289C293.966 21.2821 293.917 21.2821 293.245 21.2821C292.572 21.2821 292.067 21.1455 291.692 20.8004C291.318 20.4553 291.139 19.8816 291.135 19.1575V10.1347C291.133 10.0137 291.171 9.81133 291.089 9.73869C291.007 9.66602 290.917 9.66874 290.78 9.66723H287.753C287.617 9.66874 287.518 9.65512 287.448 9.72095C287.401 9.76484 287.384 13.0854 287.397 19.6825Z" fill="#4C88BE"/>
<path fill-rule="evenodd" clip-rule="evenodd" d="M22.8062 8.58407C24.1116 8.58458 25.1933 8.73306 26.0512 9.02924C26.9092 9.32567 27.5866 9.76647 28.0832 10.3521C28.5678 10.9368 28.9114 11.6604 29.1141 12.5225C29.3169 13.3848 29.4153 14.3884 29.4093 15.5339C29.408 15.6995 29.4035 15.9009 29.3959 16.1383C29.3881 16.3754 29.3836 16.5899 29.3826 16.7815C29.3876 16.9577 29.3447 17.1126 29.2533 17.2462C29.1623 17.38 28.9933 17.4504 28.7463 17.4576H20.1808C20.1803 17.9978 20.2742 18.442 20.4626 18.79C20.651 19.1378 20.9372 19.4322 21.3211 19.6727C21.6495 19.8676 22.0472 20.012 22.5145 20.106C22.9818 20.2 23.5388 20.2468 24.1851 20.246C25.0023 20.2326 25.7281 20.1553 26.3629 20.0148C26.9976 19.8743 27.4916 19.7515 27.8446 19.6467C27.858 19.6341 27.871 19.6267 27.8844 19.6238C27.8977 19.6213 27.9108 19.62 27.9242 19.6208C28.0181 19.62 28.1021 19.6536 28.1761 19.7217C28.2502 19.7895 28.3075 19.8949 28.3486 20.0377L28.6931 21.4682C28.7154 21.5461 28.724 21.5982 28.7198 21.6241C28.7175 21.74 28.6887 21.8332 28.6335 21.9036C28.5783 21.974 28.5097 22.0282 28.4281 22.0662C27.9922 22.2496 27.3456 22.4348 26.489 22.6219C25.6321 22.8086 24.6344 22.9096 23.4957 22.9242C20.927 22.955 19.0526 22.4251 17.8728 21.3341C16.6927 20.2429 16.1108 18.405 16.127 15.8198C16.0838 13.2967 16.5543 11.4562 17.5381 10.2977C18.5222 9.13944 20.2781 8.56814 22.8062 8.58407ZM40.7512 3.50793L43.7452 3.51744H43.9043C44.0388 3.51641 44.1471 3.55109 44.2288 3.62173C44.3104 3.69212 44.3525 3.80514 44.3546 3.96004V20.2981C44.3824 20.6637 44.3073 21.0374 44.1294 21.4194C43.9517 21.8011 43.5056 22.1035 42.7913 22.3262C42.1479 22.5101 41.4343 22.6555 40.6512 22.7616C39.8681 22.8677 39.0614 22.9219 38.2309 22.9242C36.5082 22.9378 35.1335 22.7313 34.1062 22.3046C33.0792 21.8779 32.3408 21.1492 31.8913 20.1178C31.4415 19.0867 31.2218 17.6711 31.2317 15.8711C31.2163 14.363 31.3675 13.0658 31.6851 11.9797C32.0025 10.8936 32.5779 10.0578 33.411 9.47235C34.2439 8.88667 35.426 8.59075 36.9572 8.58407C37.901 8.60025 38.6938 8.67192 39.3354 8.79856C39.9772 8.92546 40.0894 8.96604 40.2501 9.00843L40.2477 7.46486V4.13266C40.2454 3.95053 40.2831 3.80745 40.3602 3.70316C40.4377 3.59913 40.5677 3.53414 40.7512 3.50793ZM72.0215 8.58407C73.9829 8.59794 75.4484 8.91981 76.4189 9.54941C77.3891 10.179 78.028 11.0329 78.3352 12.111C78.6429 13.1891 78.7829 14.4077 78.7554 15.7671C78.7829 17.118 78.6429 18.3305 78.3352 19.405C78.028 20.4792 77.3891 21.331 76.4189 21.9596C75.4484 22.5885 73.9829 22.9101 72.0215 22.9242C70.0521 22.9101 68.5824 22.5885 67.6127 21.9596C66.6427 21.331 66.0059 20.4792 65.7018 19.405C65.3981 18.3305 65.2599 17.118 65.2876 15.7671C65.2599 14.4077 65.3981 13.1891 65.7018 12.111C66.0059 11.0329 66.6427 10.179 67.6127 9.54941C68.5824 8.91981 70.0521 8.59794 72.0215 8.58407ZM59.3913 8.58407C60.4002 8.5928 61.326 8.66653 62.169 8.80498C63.012 8.9437 63.6065 9.09551 63.9524 9.26017C64.0584 9.31103 64.1379 9.37165 64.1911 9.44204C64.2442 9.51242 64.2706 9.59925 64.2706 9.702V9.83223L63.926 11.4444C63.8962 11.56 63.8431 11.6414 63.7669 11.6884C63.6905 11.7357 63.611 11.7585 63.5283 11.7568C63.5 11.7557 63.4702 11.7514 63.4385 11.7439C63.4071 11.7362 63.3839 11.7318 63.3689 11.7308C63.0542 11.645 62.6298 11.5561 62.0963 11.4639C61.5625 11.3717 60.979 11.3216 60.3461 11.3142C59.004 11.2946 58.0749 11.6201 57.5584 12.2908C57.0417 12.9612 56.7954 14.0941 56.819 15.689L56.8187 16.0815C56.8384 17.4851 57.0847 18.499 57.5584 19.1232C58.0749 19.8039 59.004 20.135 60.3461 20.116C60.979 20.1083 61.5625 20.0585 62.0963 19.9663C62.6298 19.874 63.0542 19.7849 63.3689 19.6994C63.3839 19.6983 63.4071 19.694 63.4385 19.6863C63.4702 19.6786 63.5 19.6745 63.5283 19.6732C63.611 19.6711 63.6905 19.695 63.7669 19.7448C63.8431 19.7947 63.8962 19.8838 63.926 20.0117L64.2706 21.5979V21.7279C64.2706 21.8299 64.2442 21.9121 64.1911 21.975C64.1379 22.0377 64.0584 22.0942 63.9524 22.1441C63.6065 22.32 63.012 22.4749 62.169 22.6088C61.326 22.7426 60.4002 22.813 59.3913 22.8199C57.6565 22.8199 56.302 22.5571 55.327 22.031C54.3524 21.505 53.6692 20.7158 53.2775 19.6631C52.8858 18.6107 52.6974 17.2947 52.7121 15.715C52.6974 14.1269 52.8858 12.8048 53.2775 11.7485C53.6692 10.6923 54.3524 9.90082 55.327 9.37396C56.302 8.84711 57.6565 8.58381 59.3913 8.58407ZM50.432 9.23166C50.554 9.2332 50.6544 9.2689 50.7335 9.33903C50.8122 9.4089 50.853 9.50343 50.8559 9.62211V22.1952C50.853 22.3139 50.8122 22.4084 50.7335 22.4783C50.6544 22.5481 50.554 22.5841 50.432 22.5856H47.1993C47.0774 22.5841 46.9769 22.5481 46.8979 22.4783C46.8191 22.4084 46.7781 22.3139 46.7754 22.1952V9.62211C46.7781 9.50343 46.8191 9.4089 46.8979 9.33903C46.9769 9.2689 47.0774 9.2332 47.1993 9.23166H50.432ZM96.698 8.58407C98.3836 8.54888 99.6979 8.81423 100.641 9.38064C101.584 9.9468 102.063 11.0252 102.079 12.6157V22.1952C102.078 22.3139 102.04 22.4084 101.966 22.4783C101.892 22.5481 101.788 22.5841 101.655 22.5856H98.422C98.2876 22.5841 98.1792 22.5481 98.0976 22.4783C98.0159 22.4084 97.9738 22.3139 97.9717 22.1952V13.1624C97.9683 12.4567 97.8024 11.9612 97.4741 11.6753C97.1457 11.3894 96.6747 11.2517 96.0609 11.262C95.4026 11.2751 94.7955 11.3273 94.2398 11.4182C94.0315 11.4524 93.8598 11.4811 93.7247 11.5043L93.5033 11.5434C93.4171 11.5592 93.3674 11.5696 93.3543 11.5744V22.1952C93.3525 22.3139 93.3161 22.4084 93.245 22.4783C93.1738 22.5481 93.0778 22.5841 92.9569 22.5856H89.7242C89.5894 22.5841 89.4814 22.5481 89.3997 22.4783C89.3178 22.4084 89.276 22.3139 89.2739 22.1952V13.1624C89.2749 12.4567 89.1268 11.9612 88.8293 11.6753C88.5318 11.3894 88.0784 11.2517 87.4693 11.262C86.7947 11.2761 86.1667 11.3326 85.5851 11.4313C85.0034 11.5299 84.6939 11.5864 84.6562 11.6006V22.1952C84.6552 22.3139 84.6178 22.4084 84.5437 22.4783C84.4697 22.5481 84.3661 22.5841 84.2323 22.5856H80.9999C80.8662 22.5841 80.7626 22.5481 80.6885 22.4783C80.6145 22.4084 80.5771 22.3139 80.5758 22.1952V10.8461C80.5716 10.3673 80.7458 10.012 81.0991 9.78009C81.4525 9.54813 82.0112 9.34905 82.7752 9.18208C83.4641 9.02076 84.2794 8.88205 85.2209 8.76619C86.1626 8.65009 87.0713 8.58946 87.947 8.58407C88.7686 8.58844 89.4725 8.67089 90.0586 8.83118C90.6444 8.99148 91.1159 9.20366 91.4731 9.46798C91.7533 9.35162 92.392 9.18156 93.3886 8.95783C94.3853 8.73409 95.4884 8.6095 96.698 8.58407ZM38.0983 11.2882C37.4297 11.2684 36.8947 11.3511 36.4933 11.5361C36.0922 11.7208 35.8028 12.1256 35.6254 12.7503C35.4482 13.3748 35.3614 14.3371 35.365 15.6369C35.3624 17.0052 35.4592 18.0186 35.6549 18.677C35.8509 19.3354 36.1618 19.7623 36.5877 19.9578C37.0137 20.1533 37.5702 20.2406 38.2576 20.2201C38.7932 20.2093 39.2542 20.1659 39.6407 20.0898C40.0272 20.014 40.2294 19.9706 40.2477 19.9596V11.5225C40.2195 11.5127 39.984 11.4737 39.5413 11.4053C39.0983 11.337 38.6174 11.298 38.0983 11.2882ZM72.0215 11.2882C71.213 11.2864 70.6248 11.4459 70.2575 11.7665C69.8901 12.0871 69.6599 12.5782 69.5667 13.2402C69.4733 13.9022 69.4338 14.7445 69.4477 15.7671C69.4338 16.7813 69.4733 17.6174 69.5667 18.2758C69.6599 18.9339 69.8901 19.423 70.2575 19.7428C70.6248 20.0623 71.213 20.2216 72.0215 20.2201C72.8219 20.2216 73.4059 20.0623 73.7738 19.7428C74.1417 19.423 74.3741 18.9339 74.4706 18.2758C74.5674 17.6174 74.609 16.7813 74.5954 15.7671C74.609 14.7445 74.5674 13.9022 74.4706 13.2402C74.3741 12.5782 74.1417 12.0871 73.7738 11.7665C73.4059 11.4459 72.8219 11.2864 72.0215 11.2882ZM22.8593 11.2361C22.0383 11.2332 21.4393 11.3691 21.0626 11.6432C20.6858 11.9173 20.4451 12.346 20.3401 12.9296C20.2771 13.2536 20.2373 13.589 20.2208 13.9358C20.2041 14.2826 20.1907 14.6507 20.1808 15.0399H25.3785V14.8834C25.3785 14.5346 25.3652 14.2099 25.3388 13.9099C25.3121 13.6096 25.2723 13.3175 25.2194 13.0337C25.0645 12.3661 24.7974 11.8973 24.4172 11.6268C24.037 11.3565 23.5177 11.2263 22.8593 11.2361ZM50.0874 3.51744C50.3386 3.51641 50.5252 3.57061 50.6471 3.68004C50.7693 3.78973 50.83 3.96081 50.8295 4.19379V6.68113C50.83 6.92542 50.7693 7.10009 50.6471 7.20464C50.5252 7.30919 50.3386 7.36005 50.0874 7.35723H47.5439C47.2927 7.36005 47.1062 7.30919 46.984 7.20464C46.8621 7.10009 46.8013 6.92542 46.8019 6.68113V4.19534C46.8013 3.96235 46.8621 3.79101 46.984 3.68158C47.1062 3.57215 47.2927 3.51795 47.5439 3.51898L50.0874 3.51744ZM15.1004 9.36795C15.1004 10.0278 14.9785 10.7684 14.6872 11.4229C14.3958 12.0774 14.0324 12.5883 13.6831 12.9944C13.3339 13.4004 12.7731 13.8345 12.3628 14.0883C12.0892 14.2575 11.7771 14.3884 11.4263 14.4809L14.9578 21.4651C15.1324 21.8035 15.2911 22.1958 15.1542 22.5392C15.0174 22.8827 14.6672 22.9694 14.4053 22.9694H11.9365C11.6162 22.9694 11.3808 22.8962 11.2199 22.7292C11.0591 22.5622 10.8618 22.1504 10.757 21.9135L7.48121 15.2446H4.87478V21.7535C4.87478 22.0919 4.87478 22.3592 4.65156 22.6694C4.42834 22.9796 4.01128 22.9694 3.76683 22.9694H1.68046C1.29469 22.9694 0.978172 22.8038 0.893898 22.5392C0.809623 22.2746 0.7976 21.9187 0.7976 21.6311V4.59255C0.7976 4.35568 0.807257 4.06186 1.00847 3.81487C1.20967 3.56788 1.48755 3.53492 1.76693 3.53492H7.56873C10.1738 3.53492 11.8035 4.0357 13.143 5.05567C14.4825 6.07563 15.1004 7.64223 15.1004 9.36795ZM11.0035 9.36795C11.002 8.91392 10.9188 8.47207 10.757 8.1596C10.5952 7.84714 10.3147 7.51168 9.97973 7.31462C9.64477 7.11756 9.29325 6.97029 8.85657 6.86943C8.41988 6.76857 7.89417 6.71488 7.33541 6.71488H4.87478V11.954H8.21063C9.03752 11.954 9.68744 11.7141 10.1853 11.3549C10.6832 10.9957 11.0067 10.4 11.0035 9.36795Z" fill="#24303D"/>
<path d="M128.728 19.6668C128.698 19.4967 128.644 19.3782 128.567 19.3119C128.49 19.2457 128.409 19.2139 128.325 19.2167C128.296 19.2184 128.266 19.2238 128.234 19.2341C128.202 19.2443 128.179 19.2501 128.163 19.2515C127.844 19.3652 127.414 19.4837 126.873 19.6063C126.331 19.7289 125.739 19.7952 125.097 19.8054C123.736 19.8307 122.523 19.3905 121.999 18.4855C121.475 17.5802 121.26 16.0757 121.284 13.9373C121.26 11.8169 121.475 10.2937 121.999 9.40238C122.523 8.51073 123.736 8.07805 125.097 8.10401C125.739 8.11391 126.331 8.1805 126.873 8.3031C127.414 8.4257 127.844 8.54385 128.163 8.65791C128.179 8.65928 128.202 8.66509 128.234 8.67533C128.266 8.68523 128.296 8.69104 128.325 8.69241C128.409 8.6948 128.49 8.6644 128.567 8.60157C128.644 8.53907 128.698 8.43082 128.728 8.27714L129.078 6.13391V5.96077C129.078 5.82417 129.051 5.70874 128.997 5.61517C128.943 5.5216 128.863 5.44101 128.755 5.37339C128.404 5.15449 127.801 4.95267 126.946 4.76826C126.091 4.58419 125.152 4.48618 124.129 4.47457C122.369 4.47423 120.996 4.82426 120.007 5.52468C119.018 6.22509 118.325 7.27724 117.928 8.68148C117.531 10.0857 117.36 11.8262 117.375 13.9373C117.36 16.0375 117.531 17.8042 117.928 19.2034C118.325 20.6028 119.018 21.6519 120.007 22.3513C120.996 23.0507 122.369 23.4 124.129 23.4C125.152 23.3908 126.091 23.2972 126.946 23.1193C127.801 22.9414 128.404 22.7355 128.755 22.5015C128.863 22.4353 128.943 22.3602 128.997 22.2768C129.051 22.1932 129.078 22.0839 129.078 21.9483V21.7755L128.728 19.6668Z" fill="#4C88BE"/>
<path d="M128.728 19.6668C128.698 19.4967 128.644 19.3782 128.567 19.3119C128.49 19.2457 128.409 19.2139 128.325 19.2167C128.296 19.2184 128.266 19.2238 128.234 19.2341C128.202 19.2443 128.179 19.2501 128.163 19.2515C127.844 19.3652 127.414 19.4837 126.873 19.6063C126.331 19.7289 125.739 19.7952 125.097 19.8054C123.736 19.8307 122.523 19.3905 121.999 18.4855C121.475 17.5802 121.26 16.0757 121.284 13.9373C121.26 11.8169 121.475 10.2937 121.999 9.40238C122.523 8.51073 123.736 8.07805 125.097 8.10401C125.739 8.11391 126.331 8.1805 126.873 8.3031C127.414 8.4257 127.844 8.54385 128.163 8.65791C128.179 8.65928 128.202 8.66509 128.234 8.67533C128.266 8.68523 128.296 8.69104 128.325 8.69241C128.409 8.6948 128.49 8.6644 128.567 8.60157C128.644 8.53907 128.698 8.43082 128.728 8.27714L129.078 6.13391V5.96077C129.078 5.82417 129.051 5.70874 128.997 5.61517C128.943 5.5216 128.863 5.44101 128.755 5.37339C128.404 5.15449 127.801 4.95267 126.946 4.76826C126.091 4.58419 125.152 4.48618 124.129 4.47457C122.369 4.47423 120.996 4.82426 120.007 5.52468C119.018 6.22509 118.325 7.27724 117.928 8.68148C117.531 10.0857 117.36 11.8262 117.375 13.9373C117.36 16.0375 117.531 17.8042 117.928 19.2034C118.325 20.6028 119.018 21.6519 120.007 22.3513C120.996 23.0507 122.369 23.4 124.129 23.4C125.152 23.3908 126.091 23.2972 126.946 23.1193C127.801 22.9414 128.404 22.7355 128.755 22.5015C128.863 22.4353 128.943 22.3602 128.997 22.2768C129.051 22.1932 129.078 22.0839 129.078 21.9483V21.7755L128.728 19.6668Z" fill="#4C88BE"/>
<path d="M137.081 8.9608C139.07 8.97487 140.557 9.30133 141.541 9.93993C142.525 10.5785 143.173 11.4446 143.485 12.5381C143.797 13.6316 143.939 14.8676 143.911 16.2465C143.939 17.6167 143.797 18.8464 143.485 19.9363C143.173 21.0259 142.525 21.8899 141.541 22.5274C140.557 23.1653 139.07 23.4915 137.081 23.5058C135.083 23.4915 133.593 23.1653 132.609 22.5274C131.625 21.8899 130.979 21.0259 130.671 19.9363C130.363 18.8464 130.223 17.6167 130.251 16.2465C130.223 14.8676 130.363 13.6316 130.671 12.5381C130.979 11.4446 131.625 10.5785 132.609 9.93993C133.593 9.30133 135.083 8.97487 137.081 8.9608ZM137.081 11.7036C136.261 11.7017 135.664 11.8635 135.292 12.1887C134.919 12.5139 134.685 13.012 134.591 13.6835C134.496 14.3549 134.456 15.2092 134.47 16.2465C134.456 17.2751 134.496 18.1232 134.591 18.7909C134.685 19.4585 134.919 19.9545 135.292 20.2789C135.664 20.603 136.261 20.7646 137.081 20.763C137.893 20.7646 138.485 20.603 138.858 20.2789C139.231 19.9545 139.467 19.4585 139.565 18.7909C139.663 18.1232 139.705 17.2751 139.692 16.2465C139.705 15.2092 139.663 14.3549 139.565 13.6835C139.467 13.012 139.231 12.5139 138.858 12.1887C138.485 11.8635 137.893 11.7017 137.081 11.7036Z" fill="#4C88BE"/>
<path d="M137.081 8.9608C139.07 8.97487 140.557 9.30133 141.541 9.93993C142.525 10.5785 143.173 11.4446 143.485 12.5381C143.797 13.6316 143.939 14.8676 143.911 16.2465C143.939 17.6167 143.797 18.8464 143.485 19.9363C143.173 21.0259 142.525 21.8899 141.541 22.5274C140.557 23.1653 139.07 23.4915 137.081 23.5058C135.083 23.4915 133.593 23.1653 132.609 22.5274C131.625 21.8899 130.979 21.0259 130.671 19.9363C130.363 18.8464 130.223 17.6167 130.251 16.2465C130.223 14.8676 130.363 13.6316 130.671 12.5381C130.979 11.4446 131.625 10.5785 132.609 9.93993C133.593 9.30133 135.083 8.97487 137.081 8.9608ZM137.081 11.7036C136.261 11.7017 135.664 11.8635 135.292 12.1887C134.919 12.5139 134.685 13.012 134.591 13.6835C134.496 14.3549 134.456 15.2092 134.47 16.2465C134.456 17.2751 134.496 18.1232 134.591 18.7909C134.685 19.4585 134.919 19.9545 135.292 20.2789C135.664 20.603 136.261 20.7646 137.081 20.763C137.893 20.7646 138.485 20.603 138.858 20.2789C139.231 19.9545 139.467 19.4585 139.565 18.7909C139.663 18.1232 139.705 17.2751 139.692 16.2465C139.705 15.2092 139.663 14.3549 139.565 13.6835C139.467 13.012 139.231 12.5139 138.858 12.1887C138.485 11.8635 137.893 11.7017 137.081 11.7036Z" fill="#4C88BE"/>
<path d="M167.512 22.7695V13.0532C167.496 11.4399 167.01 10.3461 166.053 9.77189C165.097 9.19738 163.764 8.92824 162.054 8.96393C160.827 8.98973 159.708 9.11609 158.697 9.34303C157.687 9.56997 157.039 9.74245 156.755 9.86047C156.392 9.59237 155.914 9.37716 155.32 9.21458C154.725 9.052 154.011 8.96836 153.178 8.96393C152.29 8.96941 151.368 9.0309 150.413 9.14866C149.458 9.26617 148.631 9.40686 147.932 9.57049C147.157 9.73984 146.591 9.94176 146.232 10.177C145.874 10.4123 145.697 10.7726 145.702 11.2583V22.7695C145.703 22.8899 145.741 22.9857 145.816 23.0566C145.891 23.1275 145.996 23.164 146.132 23.1655H149.41C149.546 23.164 149.651 23.1275 149.726 23.0566C149.801 22.9857 149.839 22.8899 149.84 22.7695V12.0235C149.879 12.0092 150.192 11.9519 150.782 11.8518C151.372 11.7518 152.009 11.6945 152.694 11.6801C153.311 11.6697 153.771 11.8094 154.073 12.0993C154.375 12.3893 154.525 12.8919 154.524 13.6076V22.7695C154.526 22.8899 154.568 22.9857 154.652 23.0566C154.734 23.1275 154.844 23.164 154.981 23.1655H158.26C158.382 23.164 158.48 23.1275 158.552 23.0566C158.624 22.9857 158.661 22.8899 158.663 22.7695V11.997C158.698 11.9839 158.997 11.931 159.561 11.8385C160.124 11.7463 160.74 11.6934 161.408 11.6801C162.03 11.6697 162.508 11.8094 162.841 12.0993C163.174 12.3893 163.343 12.8919 163.346 13.6076V22.7695C163.348 22.8899 163.391 22.9857 163.474 23.0566C163.556 23.1275 163.666 23.164 163.803 23.1655H167.082C167.217 23.164 167.322 23.1275 167.397 23.0566C167.472 22.9857 167.511 22.8899 167.512 22.7695Z" fill="#4C88BE"/>
<path d="M167.512 22.7695V13.0532C167.496 11.4399 167.01 10.3461 166.053 9.77189C165.097 9.19738 163.764 8.92824 162.054 8.96393C160.827 8.98973 159.708 9.11609 158.697 9.34303C157.687 9.56997 157.039 9.74245 156.755 9.86047C156.392 9.59237 155.914 9.37716 155.32 9.21458C154.725 9.052 154.011 8.96836 153.178 8.96393C152.29 8.96941 151.368 9.0309 150.413 9.14866C149.458 9.26617 148.631 9.40686 147.932 9.57049C147.157 9.73984 146.591 9.94176 146.232 10.177C145.874 10.4123 145.697 10.7726 145.702 11.2583V22.7695C145.703 22.8899 145.741 22.9857 145.816 23.0566C145.891 23.1275 145.996 23.164 146.132 23.1655H149.41C149.546 23.164 149.651 23.1275 149.726 23.0566C149.801 22.9857 149.839 22.8899 149.84 22.7695V12.0235C149.879 12.0092 150.192 11.9519 150.782 11.8518C151.372 11.7518 152.009 11.6945 152.694 11.6801C153.311 11.6697 153.771 11.8094 154.073 12.0993C154.375 12.3893 154.525 12.8919 154.524 13.6076V22.7695C154.526 22.8899 154.568 22.9857 154.652 23.0566C154.734 23.1275 154.844 23.164 154.981 23.1655H158.26C158.382 23.164 158.48 23.1275 158.552 23.0566C158.624 22.9857 158.661 22.8899 158.663 22.7695V11.997C158.698 11.9839 158.997 11.931 159.561 11.8385C160.124 11.7463 160.74 11.6934 161.408 11.6801C162.03 11.6697 162.508 11.8094 162.841 12.0993C163.174 12.3893 163.343 12.8919 163.346 13.6076V22.7695C163.348 22.8899 163.391 22.9857 163.474 23.0566C163.556 23.1275 163.666 23.164 163.803 23.1655H167.082C167.217 23.164 167.322 23.1275 167.397 23.0566C167.472 22.9857 167.511 22.8899 167.512 22.7695Z" fill="#4C88BE"/>
<path d="M191.745 13.0532C191.729 11.4399 191.243 10.3461 190.286 9.77189C189.33 9.19738 187.997 8.92824 186.287 8.96393C185.06 8.98973 183.941 9.11609 182.93 9.34303C181.92 9.56997 181.272 9.74245 180.988 9.86047C180.625 9.59237 180.147 9.37716 179.553 9.21458C178.958 9.052 178.244 8.96836 177.411 8.96393C176.523 8.96941 175.601 9.0309 174.646 9.14866C173.691 9.26617 172.864 9.40686 172.165 9.57049C171.39 9.73984 170.824 9.94176 170.465 10.177C170.107 10.4123 169.93 10.7726 169.935 11.2583V22.7695C169.936 22.8899 169.974 22.9857 170.049 23.0566C170.124 23.1275 170.229 23.164 170.365 23.1655H173.643C173.779 23.164 173.884 23.1275 173.959 23.0566C174.034 22.9857 174.072 22.8899 174.073 22.7695V12.0235C174.112 12.0092 174.425 11.9519 175.015 11.8518C175.605 11.7518 176.242 11.6945 176.927 11.6801C177.544 11.6697 178.004 11.8094 178.306 12.0993C178.608 12.3893 178.758 12.8919 178.757 13.6076V22.7695C178.759 22.8899 178.802 22.9857 178.885 23.0566C178.967 23.1275 179.077 23.164 179.214 23.1655H182.493C182.615 23.164 182.713 23.1275 182.785 23.0566C182.857 22.9857 182.894 22.8899 182.896 22.7695V11.997C182.931 11.9839 183.23 11.931 183.794 11.8385C184.357 11.7463 184.973 11.6934 185.641 11.6801C186.264 11.6697 186.741 11.8094 187.074 12.0993C187.407 12.3893 187.576 12.8919 187.579 13.6076V22.7695C187.581 22.8899 187.624 22.9857 187.707 23.0566C187.79 23.1275 187.899 23.164 188.036 23.1655H191.315C191.45 23.164 191.555 23.1275 191.63 23.0566C191.705 22.9857 191.744 22.8899 191.745 22.7695V13.0532Z" fill="#4C88BE"/>
<path d="M191.745 13.0532C191.729 11.4399 191.243 10.3461 190.286 9.77189C189.33 9.19738 187.997 8.92824 186.287 8.96393C185.06 8.98973 183.941 9.11609 182.93 9.34303C181.92 9.56997 181.272 9.74245 180.988 9.86047C180.625 9.59237 180.147 9.37716 179.553 9.21458C178.958 9.052 178.244 8.96836 177.411 8.96393C176.523 8.96941 175.601 9.0309 174.646 9.14866C173.691 9.26617 172.864 9.40686 172.165 9.57049C171.39 9.73984 170.824 9.94176 170.465 10.177C170.107 10.4123 169.93 10.7726 169.935 11.2583V22.7695C169.936 22.8899 169.974 22.9857 170.049 23.0566C170.124 23.1275 170.229 23.164 170.365 23.1655H173.643C173.779 23.164 173.884 23.1275 173.959 23.0566C174.034 22.9857 174.072 22.8899 174.073 22.7695V12.0235C174.112 12.0092 174.425 11.9519 175.015 11.8518C175.605 11.7518 176.242 11.6945 176.927 11.6801C177.544 11.6697 178.004 11.8094 178.306 12.0993C178.608 12.3893 178.758 12.8919 178.757 13.6076V22.7695C178.759 22.8899 178.802 22.9857 178.885 23.0566C178.967 23.1275 179.077 23.164 179.214 23.1655H182.493C182.615 23.164 182.713 23.1275 182.785 23.0566C182.857 22.9857 182.894 22.8899 182.896 22.7695V11.997C182.931 11.9839 183.23 11.931 183.794 11.8385C184.357 11.7463 184.973 11.6934 185.641 11.6801C186.264 11.6697 186.741 11.8094 187.074 12.0993C187.407 12.3893 187.576 12.8919 187.579 13.6076V22.7695C187.581 22.8899 187.624 22.9857 187.707 23.0566C187.79 23.1275 187.899 23.164 188.036 23.1655H191.315C191.45 23.164 191.555 23.1275 191.63 23.0566C191.705 22.9857 191.744 22.8899 191.745 22.7695V13.0532Z" fill="#4C88BE"/>
<path d="M200.304 8.96113C201.629 8.96165 202.726 9.11225 203.596 9.41266C204.466 9.71333 205.153 10.1604 205.657 10.7545C206.148 11.3475 206.497 12.0814 206.703 12.9558C206.908 13.8305 207.008 14.8484 207.002 16.0102C207.001 16.1783 206.996 16.3825 206.988 16.6233C206.98 16.8638 206.976 17.0813 206.975 17.2757C206.98 17.4544 206.936 17.6115 206.844 17.747C206.751 17.8827 206.58 17.9541 206.329 17.9614H197.642C197.641 18.5094 197.736 18.9598 197.927 19.3129C198.118 19.6657 198.409 19.9643 198.798 20.2081C199.131 20.4059 199.535 20.5523 200.009 20.6477C200.483 20.743 201.048 20.7904 201.703 20.7897C202.532 20.7761 203.268 20.6977 203.912 20.5552C204.556 20.4127 205.057 20.2881 205.415 20.1818C205.428 20.169 205.442 20.1615 205.455 20.1586C205.469 20.156 205.482 20.1547 205.496 20.1555C205.591 20.1547 205.676 20.1888 205.751 20.2579C205.826 20.3267 205.884 20.4335 205.926 20.5784L206.276 22.0293C206.298 22.1083 206.307 22.1612 206.303 22.1875C206.3 22.305 206.271 22.3996 206.215 22.471C206.159 22.5424 206.089 22.5973 206.007 22.6359C205.565 22.8219 204.909 23.0098 204.04 23.1995C203.171 23.3889 202.159 23.4913 201.004 23.5061C198.398 23.5374 196.497 22.9999 195.301 21.8933C194.104 20.7865 193.513 18.9223 193.53 16.3002C193.486 13.7411 193.963 11.8743 194.961 10.6992C195.959 9.52443 197.74 8.94497 200.304 8.96113ZM200.358 11.651C199.526 11.6481 198.918 11.786 198.536 12.064C198.154 12.342 197.91 12.7768 197.803 13.3688C197.739 13.6973 197.699 14.0376 197.682 14.3893C197.665 14.7411 197.652 15.1144 197.642 15.5092H202.914V15.3505C202.914 14.9967 202.9 14.6673 202.873 14.363C202.846 14.0585 202.806 13.7622 202.752 13.4743C202.595 12.7971 202.324 12.3217 201.938 12.0473C201.553 11.7732 201.026 11.6411 200.358 11.651Z" fill="#4C88BE"/>
<path d="M200.304 8.96113C201.629 8.96165 202.726 9.11225 203.596 9.41266C204.466 9.71333 205.153 10.1604 205.657 10.7545C206.148 11.3475 206.497 12.0814 206.703 12.9558C206.908 13.8305 207.008 14.8484 207.002 16.0102C207.001 16.1783 206.996 16.3825 206.988 16.6233C206.98 16.8638 206.976 17.0813 206.975 17.2757C206.98 17.4544 206.936 17.6115 206.844 17.747C206.751 17.8827 206.58 17.9541 206.329 17.9614H197.642C197.641 18.5094 197.736 18.9598 197.927 19.3129C198.118 19.6657 198.409 19.9643 198.798 20.2081C199.131 20.4059 199.535 20.5523 200.009 20.6477C200.483 20.743 201.048 20.7904 201.703 20.7897C202.532 20.7761 203.268 20.6977 203.912 20.5552C204.556 20.4127 205.057 20.2881 205.415 20.1818C205.428 20.169 205.442 20.1615 205.455 20.1586C205.469 20.156 205.482 20.1547 205.496 20.1555C205.591 20.1547 205.676 20.1888 205.751 20.2579C205.826 20.3267 205.884 20.4335 205.926 20.5784L206.276 22.0293C206.298 22.1083 206.307 22.1612 206.303 22.1875C206.3 22.305 206.271 22.3996 206.215 22.471C206.159 22.5424 206.089 22.5973 206.007 22.6359C205.565 22.8219 204.909 23.0098 204.04 23.1995C203.171 23.3889 202.159 23.4913 201.004 23.5061C198.398 23.5374 196.497 22.9999 195.301 21.8933C194.104 20.7865 193.513 18.9223 193.53 16.3002C193.486 13.7411 193.963 11.8743 194.961 10.6992C195.959 9.52443 197.74 8.94497 200.304 8.96113ZM200.358 11.651C199.526 11.6481 198.918 11.786 198.536 12.064C198.154 12.342 197.91 12.7768 197.803 13.3688C197.739 13.6973 197.699 14.0376 197.682 14.3893C197.665 14.7411 197.652 15.1144 197.642 15.5092H202.914V15.3505C202.914 14.9967 202.9 14.6673 202.873 14.363C202.846 14.0585 202.806 13.7622 202.752 13.4743C202.595 12.7971 202.324 12.3217 201.938 12.0473C201.553 11.7732 201.026 11.6411 200.358 11.651Z" fill="#4C88BE"/>
<path d="M237.614 8.96113C238.938 8.96165 240.035 9.11225 240.905 9.41266C241.776 9.71333 242.463 10.1604 242.966 10.7545C243.458 11.3475 243.806 12.0814 244.012 12.9558C244.218 13.8305 244.318 14.8484 244.311 16.0102C244.31 16.1783 244.306 16.3825 244.298 16.6233C244.29 16.8638 244.285 17.0813 244.284 17.2757C244.289 17.4544 244.246 17.6115 244.153 17.747C244.061 17.8827 243.889 17.9541 243.639 17.9614H234.951C234.951 18.5094 235.046 18.9598 235.237 19.3129C235.428 19.6657 235.718 19.9643 236.108 20.2081C236.441 20.4059 236.844 20.5523 237.318 20.6477C237.792 20.743 238.357 20.7904 239.013 20.7897C239.841 20.7761 240.578 20.6977 241.222 20.5552C241.865 20.4127 242.366 20.2881 242.724 20.1818C242.738 20.169 242.751 20.1615 242.765 20.1586C242.778 20.156 242.792 20.1547 242.805 20.1555C242.9 20.1547 242.986 20.1888 243.061 20.2579C243.136 20.3267 243.194 20.4335 243.236 20.5784L243.585 22.0293C243.608 22.1083 243.616 22.1612 243.612 22.1875C243.61 22.305 243.581 22.3996 243.525 22.471C243.469 22.5424 243.399 22.5973 243.316 22.6359C242.874 22.8219 242.218 23.0098 241.349 23.1995C240.48 23.3889 239.468 23.4913 238.313 23.5061C235.708 23.5374 233.807 22.9999 232.61 21.8933C231.413 20.7865 230.823 18.9223 230.839 16.3002C230.796 13.7411 231.273 11.8743 232.271 10.6992C233.269 9.52443 235.05 8.94497 237.614 8.96113ZM237.668 11.651C236.835 11.6481 236.228 11.786 235.845 12.064C235.463 12.342 235.219 12.7768 235.113 13.3688C235.049 13.6973 235.008 14.0376 234.992 14.3893C234.975 14.7411 234.961 15.1144 234.951 15.5092H240.223V15.3505C240.223 14.9967 240.21 14.6673 240.183 14.363C240.156 14.0585 240.115 13.7622 240.062 13.4743C239.905 12.7971 239.634 12.3217 239.248 12.0473C238.862 11.7732 238.336 11.6411 237.668 11.651Z" fill="#4C88BE"/>
<path d="M237.614 8.96113C238.938 8.96165 240.035 9.11225 240.905 9.41266C241.776 9.71333 242.463 10.1604 242.966 10.7545C243.458 11.3475 243.806 12.0814 244.012 12.9558C244.218 13.8305 244.318 14.8484 244.311 16.0102C244.31 16.1783 244.306 16.3825 244.298 16.6233C244.29 16.8638 244.285 17.0813 244.284 17.2757C244.289 17.4544 244.246 17.6115 244.153 17.747C244.061 17.8827 243.889 17.9541 243.639 17.9614H234.951C234.951 18.5094 235.046 18.9598 235.237 19.3129C235.428 19.6657 235.718 19.9643 236.108 20.2081C236.441 20.4059 236.844 20.5523 237.318 20.6477C237.792 20.743 238.357 20.7904 239.013 20.7897C239.841 20.7761 240.578 20.6977 241.222 20.5552C241.865 20.4127 242.366 20.2881 242.724 20.1818C242.738 20.169 242.751 20.1615 242.765 20.1586C242.778 20.156 242.792 20.1547 242.805 20.1555C242.9 20.1547 242.986 20.1888 243.061 20.2579C243.136 20.3267 243.194 20.4335 243.236 20.5784L243.585 22.0293C243.608 22.1083 243.616 22.1612 243.612 22.1875C243.61 22.305 243.581 22.3996 243.525 22.471C243.469 22.5424 243.399 22.5973 243.316 22.6359C242.874 22.8219 242.218 23.0098 241.349 23.1995C240.48 23.3889 239.468 23.4913 238.313 23.5061C235.708 23.5374 233.807 22.9999 232.61 21.8933C231.413 20.7865 230.823 18.9223 230.839 16.3002C230.796 13.7411 231.273 11.8743 232.271 10.6992C233.269 9.52443 235.05 8.94497 237.614 8.96113ZM237.668 11.651C236.835 11.6481 236.228 11.786 235.845 12.064C235.463 12.342 235.219 12.7768 235.113 13.3688C235.049 13.6973 235.008 14.0376 234.992 14.3893C234.975 14.7411 234.961 15.1144 234.951 15.5092H240.223V15.3505C240.223 14.9967 240.21 14.6673 240.183 14.363C240.156 14.0585 240.115 13.7622 240.062 13.4743C239.905 12.7971 239.634 12.3217 239.248 12.0473C238.862 11.7732 238.336 11.6411 237.668 11.651Z" fill="#4C88BE"/>
<path d="M217.02 11.4423V9.51532C217.017 9.39704 216.996 9.3035 216.956 9.23472C216.917 9.16619 216.875 9.11877 216.832 9.09298C216.757 9.04113 216.685 9.00596 216.614 8.98746C216.542 8.9687 216.436 8.95984 216.294 8.96088H216.052C215.602 8.97704 215.15 9.01091 214.697 9.06328C214.244 9.11539 213.826 9.16932 213.443 9.22482C212.852 9.30142 212.266 9.38609 211.686 9.47885C211.105 9.57186 210.607 9.68963 210.191 9.83215C209.776 9.97988 209.47 10.1526 209.274 10.3501C209.077 10.5476 208.98 10.8324 208.981 11.2047V22.7401C208.988 22.8608 209.036 22.9564 209.126 23.0272C209.216 23.0984 209.311 23.1346 209.411 23.1362H212.69C212.826 23.1346 212.931 23.0984 213.006 23.0272C213.081 22.9564 213.119 22.8608 213.12 22.7401V12.2607C213.365 12.2023 213.796 12.1406 214.415 12.0757C215.033 12.0108 215.74 11.9757 216.536 11.9702C216.756 11.9663 216.894 11.9147 216.95 11.8152C217.005 11.7156 217.029 11.5914 217.02 11.4423Z" fill="#4C88BE"/>
<path d="M217.02 11.4423V9.51532C217.017 9.39704 216.996 9.3035 216.956 9.23472C216.917 9.16619 216.875 9.11877 216.832 9.09298C216.757 9.04113 216.685 9.00596 216.614 8.98746C216.542 8.9687 216.436 8.95984 216.294 8.96088H216.052C215.602 8.97704 215.15 9.01091 214.697 9.06328C214.244 9.11539 213.826 9.16932 213.443 9.22482C212.852 9.30142 212.266 9.38609 211.686 9.47885C211.105 9.57186 210.607 9.68963 210.191 9.83215C209.776 9.97988 209.47 10.1526 209.274 10.3501C209.077 10.5476 208.98 10.8324 208.981 11.2047V22.7401C208.988 22.8608 209.036 22.9564 209.126 23.0272C209.216 23.0984 209.311 23.1346 209.411 23.1362H212.69C212.826 23.1346 212.931 23.0984 213.006 23.0272C213.081 22.9564 213.119 22.8608 213.12 22.7401V12.2607C213.365 12.2023 213.796 12.1406 214.415 12.0757C215.033 12.0108 215.74 11.9757 216.536 11.9702C216.756 11.9663 216.894 11.9147 216.95 11.8152C217.005 11.7156 217.029 11.5914 217.02 11.4423Z" fill="#4C88BE"/>
<path d="M229.85 22.1606L229.501 20.5517C229.47 20.422 229.417 20.3316 229.339 20.281C229.262 20.2305 229.181 20.2062 229.097 20.2083C229.069 20.2096 229.038 20.2138 229.006 20.2216C228.974 20.2294 228.951 20.2338 228.936 20.2349C228.616 20.3217 228.186 20.4121 227.645 20.5056C227.103 20.5991 226.512 20.6497 225.87 20.6575C224.508 20.6768 223.566 20.3409 223.042 19.6505C222.518 18.9598 222.268 17.7988 222.292 16.1672C222.268 14.5495 222.518 13.4005 223.042 12.7205C223.566 12.0402 224.508 11.7101 225.87 11.7299C226.512 11.7374 227.103 11.7882 227.645 11.8818C228.186 11.9753 228.616 12.0655 228.936 12.1525C228.951 12.1535 228.974 12.158 229.006 12.1658C229.038 12.1733 229.069 12.1778 229.097 12.1788C229.181 12.1806 229.262 12.1574 229.339 12.1095C229.417 12.0618 229.47 11.9792 229.501 11.862L229.85 10.2268V10.0947C229.85 9.99048 229.823 9.90241 229.77 9.83102C229.716 9.75963 229.635 9.69815 229.528 9.64656C229.177 9.47955 228.574 9.32556 227.719 9.18487C226.864 9.04444 225.925 8.96966 224.901 8.9608C223.142 8.96054 221.768 9.2276 220.779 9.76198C219.79 10.2964 219.097 11.0991 218.7 12.1705C218.303 13.2418 218.112 14.5829 218.127 16.1936C218.112 17.7959 218.303 19.1307 218.7 20.1982C219.097 21.2659 219.79 22.0663 220.779 22.5999C221.768 23.1335 223.142 23.4 224.901 23.4C225.925 23.393 226.864 23.3216 227.719 23.1858C228.574 23.0501 229.177 22.893 229.528 22.7145C229.635 22.664 229.716 22.6066 229.77 22.5431C229.823 22.4792 229.85 22.3959 229.85 22.2924V22.1606Z" fill="#4C88BE"/>
<path d="M229.85 22.1606L229.501 20.5517C229.47 20.422 229.417 20.3316 229.339 20.281C229.262 20.2305 229.181 20.2062 229.097 20.2083C229.069 20.2096 229.038 20.2138 229.006 20.2216C228.974 20.2294 228.951 20.2338 228.936 20.2349C228.616 20.3217 228.186 20.4121 227.645 20.5056C227.103 20.5991 226.512 20.6497 225.87 20.6575C224.508 20.6768 223.566 20.3409 223.042 19.6505C222.518 18.9598 222.268 17.7988 222.292 16.1672C222.268 14.5495 222.518 13.4005 223.042 12.7205C223.566 12.0402 224.508 11.7101 225.87 11.7299C226.512 11.7374 227.103 11.7882 227.645 11.8818C228.186 11.9753 228.616 12.0655 228.936 12.1525C228.951 12.1535 228.974 12.158 229.006 12.1658C229.038 12.1733 229.069 12.1778 229.097 12.1788C229.181 12.1806 229.262 12.1574 229.339 12.1095C229.417 12.0618 229.47 11.9792 229.501 11.862L229.85 10.2268V10.0947C229.85 9.99048 229.823 9.90241 229.77 9.83102C229.716 9.75963 229.635 9.69815 229.528 9.64656C229.177 9.47955 228.574 9.32556 227.719 9.18487C226.864 9.04444 225.925 8.96966 224.901 8.9608C223.142 8.96054 221.768 9.2276 220.779 9.76198C219.79 10.2964 219.097 11.0991 218.7 12.1705C218.303 13.2418 218.112 14.5829 218.127 16.1936C218.112 17.7959 218.303 19.1307 218.7 20.1982C219.097 21.2659 219.79 22.0663 220.779 22.5999C221.768 23.1335 223.142 23.4 224.901 23.4C225.925 23.393 226.864 23.3216 227.719 23.1858C228.574 23.0501 229.177 22.893 229.528 22.7145C229.635 22.664 229.716 22.6066 229.77 22.5431C229.823 22.4792 229.85 22.3959 229.85 22.2924V22.1606Z" fill="#4C88BE"/>
<path opacity="0.9" fill-rule="evenodd" clip-rule="evenodd" d="M112.243 3.8049C112.243 4.33567 112.143 4.83104 111.945 5.29104C111.747 5.75104 111.474 6.15088 111.128 6.49057C110.782 6.83027 110.375 7.09918 109.906 7.29734C109.437 7.49549 108.936 7.59457 108.402 7.59457C107.868 7.59457 107.367 7.49549 106.898 7.29734C106.429 7.09918 106.022 6.83027 105.676 6.49057C105.329 6.15088 105.057 5.75104 104.859 5.29104C104.66 4.83104 104.561 4.33567 104.561 3.8049C104.561 3.27413 104.66 2.77875 104.859 2.31875C105.057 1.85875 105.329 1.45891 105.676 1.11922C106.022 0.77953 106.429 0.510611 106.898 0.312457C107.367 0.114304 107.868 0.0152283 108.402 0.0152283C108.936 0.0152283 109.437 0.114304 109.906 0.312457C110.375 0.510611 110.782 0.77953 111.128 1.11922C111.474 1.45891 111.747 1.85875 111.945 2.31875C112.143 2.77875 112.243 3.27413 112.243 3.8049ZM111.658 3.8049C111.658 3.3449 111.574 2.91675 111.404 2.52044C111.235 2.12414 111.002 1.77914 110.706 1.48545C110.411 1.19176 110.064 0.961762 109.668 0.795454C109.271 0.629147 108.849 0.545994 108.402 0.545994C107.955 0.545994 107.533 0.629147 107.136 0.795454C106.739 0.961762 106.393 1.19176 106.097 1.48545C105.802 1.77914 105.569 2.12414 105.4 2.52044C105.23 2.91675 105.145 3.3449 105.145 3.8049C105.145 4.2649 105.23 4.69304 105.4 5.08935C105.569 5.48566 105.802 5.83065 106.097 6.12435C106.393 6.41804 106.739 6.64803 107.136 6.81434C107.533 6.98065 107.955 7.0638 108.402 7.0638C108.849 7.0638 109.271 6.98065 109.668 6.81434C110.064 6.64803 110.411 6.41804 110.706 6.12435C111.002 5.83065 111.235 5.48566 111.404 5.08935C111.574 4.69304 111.658 4.2649 111.658 3.8049ZM110.014 5.55643C110.093 5.68381 110.079 5.7475 109.971 5.7475H109.408C109.365 5.7475 109.334 5.73335 109.316 5.70504C109.298 5.67673 109.278 5.64135 109.257 5.59889L108.38 4.22951C108.366 4.2012 108.333 4.18705 108.283 4.18705H107.915C107.879 4.18705 107.859 4.19236 107.856 4.20297C107.852 4.21359 107.85 4.24013 107.85 4.28259V5.56704C107.85 5.63781 107.841 5.68381 107.823 5.70504C107.805 5.72627 107.771 5.73689 107.72 5.73689H107.223C107.165 5.73689 107.134 5.72096 107.131 5.68912C107.127 5.65727 107.125 5.60596 107.125 5.53519V1.98968C107.125 1.93306 107.132 1.89591 107.147 1.87822C107.161 1.86052 107.197 1.85168 107.255 1.85168H108.478C108.961 1.85168 109.318 1.95783 109.549 2.17014C109.78 2.38245 109.895 2.66552 109.895 3.01936C109.895 3.18213 109.866 3.32367 109.808 3.44398C109.751 3.56428 109.684 3.66513 109.608 3.74651C109.532 3.8279 109.451 3.89336 109.365 3.9429C109.278 3.99244 109.21 4.02428 109.159 4.03843L109.105 4.06497C109.098 4.06851 109.102 4.08443 109.116 4.11274L110.014 5.55643ZM109.148 2.99813C109.148 2.60183 108.914 2.40368 108.445 2.40368H107.948C107.904 2.3966 107.877 2.40544 107.866 2.43021C107.856 2.45498 107.85 2.47798 107.85 2.49921V3.50767C107.85 3.55013 107.857 3.57667 107.872 3.58728C107.886 3.5979 107.915 3.60321 107.958 3.60321H108.575C108.741 3.60321 108.878 3.55721 108.986 3.46521C109.094 3.37321 109.148 3.21752 109.148 2.99813Z" fill="#24303D"/>
</svg>
