<?xml version="1.0" standalone="no"?><!DOCTYPE svg PUBLIC "-//W3C//DTD SVG 1.1//EN" "http://www.w3.org/Graphics/SVG/1.1/DTD/svg11.dtd" ><svg xmlns="http://www.w3.org/2000/svg"><metadata></metadata><defs><font id="app 1.0 : rdc" horiz-adv-x="1024"><font-face font-family="rdc_app-bo" font-weight="400" font-stretch="normal" units-per-em="1024" panose-1="2 0 6 3 0 0 0 0 0 0" ascent="812" descent="-212" x-height="0" bbox="-6 -156 1024 884" underline-thickness="0" underline-position="50" unicode-range="U+e800-e837" /><missing-glyph horiz-adv-x="374" d="M34 0 l0 682 l272 0 l0 -682 l-272 0 ZM68 34 l204 0 l0 614 l-204 0 l0 -614 Z" /><glyph glyph-name="uniE800" unicode="&#xe800;" d="M602 754 l376 -654 q19 -33 12 -70.5 q-7 -37.5 -35.5 -62 q-28.5 -24.5 -67.5 -24.5 l-750 0 q-39 0 -67.5 24.5 q-28.5 24.5 -35.5 62 q-7 37.5 12 70.5 l376 654 q19 34 54.5 46.5 q35.5 12.5 71 0 q35.5 -12.5 54.5 -46.5 ZM512 196 q-15 0 -28.5 -12.5 q-13.5 -12.5 -13.5 -30.5 q0 -18 13.5 -30 q13.5 -12 28.5 -12 q15 0 28.5 12 q13.5 12 13.5 30 q0 18 -13.5 30.5 q-13.5 12.5 -28.5 12.5 ZM512 532 q-13 0 -23 -9 q-7 -8 -8 -18 l-1 -4 l0 -190 l1 -4 q1 -10 8 -18 q10 -9 23 -9 q13 0 22 8.5 q9 8.5 9 18.5 l1 4 l0 190 l-1 4 q0 10 -9 18.5 q-9 8.5 -22 8.5 Z" /><glyph glyph-name="uniE801" unicode="&#xe801;" d="M554 154 q0 -19 -13.5 -31 q-13.5 -12 -28.5 -12 q-15 0 -28.5 12 q-13.5 12 -13.5 30 q0 18 13.5 30.5 q13.5 12.5 28.5 12.5 q15 0 28.5 -12.5 q13.5 -12.5 13.5 -29.5 ZM544 501 q0 11 -9.5 21 q-9.5 10 -22.5 10 q-13 0 -22.5 -10 q-9.5 -10 -9.5 -21 l0 -190 q0 -11 9.5 -21 q9.5 -10 22.5 -10 q13 0 22.5 10 q9.5 10 9.5 21 l0 190 ZM422 754 q19 34 54.5 46.5 q35.5 12.5 71 0 q35.5 -12.5 54.5 -46.5 l376 -654 q19 -33 12 -70.5 q-7 -37.5 -35.5 -62 q-28.5 -24.5 -67.5 -24.5 l-750 0 q-39 0 -67.5 24.5 q-28.5 24.5 -35.5 62 q-7 37.5 12 70.5 l376 654 ZM548 722 q-5 11 -15 16 q-10 5 -21 5 q-11 0 -21 -5 q-10 -5 -15 -16 l-376 -653 q-5 -11 -5 -21.5 q0 -10.5 5.5 -20.5 q5.5 -10 14.5 -15.5 q9 -5.5 22 -5.5 l750 0 q14 0 22.5 5.5 q8.5 5.5 14 15.5 q5.5 10 5.5 20.5 q0 10.5 -5 21.5 l-376 653 Z" /><glyph glyph-name="uniE802" unicode="&#xe802;" d="M472 80 q-7 -9 -21 -9 q-14 0 -23 9 l-259 256 q-9 9 -9 22 q0 13 9 22 l259 257 q7 7 15 9 q8 2 16 0 q8 -2 14 -8 q6 -6 7.5 -15 q1.5 -9 -0.5 -16.5 q-2 -7.5 -8 -13.5 l-206 -204 l599 0 q13 0 22 -9 q9 -9 9 -22 q0 -13 -9.5 -21.5 q-9.5 -8.5 -21.5 -8.5 l-599 0 l206 -205 q9 -9 9 -22 q0 -13 -9 -21 Z" /><glyph glyph-name="uniE803" unicode="&#xe803;" d="M288 870 q15 0 22 -9 q11 -10 11 -22 l0 -97 l384 0 l0 97 q0 13 9 22 q9 9 22.5 9 q13.5 0 22.5 -9 q9 -9 9 -22 l0 -97 l118 0 q30 0 52.5 -22 q22.5 -22 22.5 -52 l0 -683 q0 -15 -6.5 -28.5 q-6.5 -13.5 -16.5 -24 q-10 -10.5 -24 -16.5 q-14 -6 -28 -6 l-748 0 q-29 0 -52 22 q-10 11 -15.5 24 q-5.5 13 -5.5 29 l0 683 q0 30 21.5 52 q21.5 22 51.5 22 l118 0 l0 97 q0 13 9 22 q9 9 23 9 ZM896 465 l-768 0 l0 -480 q0 -4 3 -7.5 q3 -3.5 7 -3.5 l748 0 q4 0 7 3.5 q3 3.5 3 7.5 l0 480 ZM138 679 q-3 0 -7 -4 q-3 -1 -3 -7 l0 -139 l768 0 l0 139 q0 6 -3 7 q-4 4 -7 4 l-748 0 Z" /><glyph glyph-name="uniE804" unicode="&#xe804;" d="M938 796 l0 -626 q0 -10 -4.5 -18 q-4.5 -8 -11.5 -11 q-12 -6 -25 -2 q-9 3 -25 13 l-1 1 q-7 4 -10 5 q-39 21 -85 37 q-64 23 -138 36 q-91 17 -191 18 l0 -4 q0 -116 39 -240 q9 -23 1 -48 q-8 -25 -28 -41 q-20 -16 -46 -16 l-86 0 q-23 0 -42 13 q-19 13 -26 36 q-17 52 -29 111 q-17 87 -17 174 l0 20 q-41 11 -75.5 36.5 q-34.5 25.5 -57.5 61.5 q-23 36 -32 78.5 q-9 42.5 -3.5 85 q5.5 42.5 25.5 80 q20 37.5 52.5 66 q32.5 28.5 72 43.5 q39.5 15 83.5 15 l159 0 q185 0 339 52 q50 18 86 36 q10 4 21 11 l6 3 q8 5 15 5.5 q7 0.5 18 -3.5 q8 -4 12 -11.5 q4 -7.5 4 -16.5 ZM447 313 q193 -1 351 -57 q43 -16 76 -32 l0 517 q-26 -12 -77 -30 q-69 -24 -148 -38 q-96 -17 -202 -18 l0 -342 ZM278 655 q-34 0 -66 -13 q-32 -13 -55.5 -37 q-23.5 -24 -37 -56 q-13.5 -32 -13.5 -66 q0 -34 13.5 -66 q13.5 -32 37 -56.5 q23.5 -24.5 55.5 -37.5 q32 -13 66 -13 l106 0 l0 345 l-106 0 ZM278 234 q0 -81 15 -161 q10 -58 26 -104 q0 -2 2.5 -3.5 q2.5 -1.5 5.5 -1.5 l86 0 q6 0 10 6 q3 3 3.5 7.5 q0.5 4.5 -0.5 8.5 q-17 52 -29 111 q-13 75 -13 148 l-106 0 l0 -11 Z" /><glyph glyph-name="uniE805" unicode="&#xe805;" d="M919 637 q9 -9 9 -23.5 q0 -14.5 -9 -23.5 l-497 -510 q-3 -3 -11.5 -6 q-8.5 -3 -12.5 -3 q-4 0 -11.5 3 q-7.5 3 -10.5 7 l-239 255 q-4 4 -7 10 q-2 8 -2 14.5 q0 6.5 3 12.5 q1 4 7 10 q6 6 10.5 7.5 q4.5 1.5 13.5 1.5 q6 0 12 -3 q6 -3 10 -8 l215 -229 l473 485 q10 9 23.5 9 q13.5 0 23.5 -9 Z" /><glyph glyph-name="uniE806" unicode="&#xe806;" d="M444 510 q-11 11 -27.5 11 q-16.5 0 -27.5 -11 q-11 -11 -11 -27.5 q0 -16.5 11 -27.5 l99 -99 l-99 -99 q-11 -11 -11 -27.5 q0 -16.5 11 -28 q11 -11.5 27.5 -11.5 q16.5 0 27.5 12 l100 99 l99 -99 q11 -12 27.5 -12 q16.5 0 28 11.5 q11.5 11.5 11.5 28 q0 16.5 -12 27.5 l-99 99 l99 99 q12 11 12 27.5 q0 16.5 -11.5 27.5 q-11.5 11 -28 11 q-16.5 0 -27.5 -11 l-99 -99 l-100 99 ZM801 679 l-482 0 q-21 0 -40 -8.5 q-19 -8.5 -31 -24.5 q-3 -3 -3 -4 l-174 -262 q-8 -10 -8 -21.5 q0 -11.5 8 -21.5 l173 -260 q2 -4 4 -6 q12 -16 32 -24 q16 -8 39 -8 l482 0 q40 0 67 28 q14 13 21 30.5 q7 17.5 7 35.5 l0 451 q0 18 -7 35.5 q-7 17.5 -21 30.5 q-26 27 -67 29 ZM312 599 q2 1 7 1 l482 0 q5 0 11 -5 q6 -5 6 -12 l0 -449 q0 -7 -6 -12 q-6 -5 -11 -5 l-482 0 q-5 0 -7 1 l-5 3 l-156 237 l156 238 l5 3 Z" /><glyph glyph-name="uniE807" unicode="&#xe807;" d="M264 605 q10 8 22 8 q12 0 20 -8 l206 -205 l205 205 q5 5 13 7.5 q8 2.5 15 1 q7 -1.5 15 -7.5 q6 -8 7.5 -14.5 q1.5 -6.5 -1 -15 q-2.5 -8.5 -7.5 -13.5 l-206 -205 l206 -204 q5 -6 7.5 -13.5 q2.5 -7.5 1 -14.5 q-1.5 -7 -7.5 -15 q-8 -7 -15 -8 q-7 -1 -15 1 q-8 2 -13 8 l-205 204 l-206 -204 q-8 -9 -21 -8 q-13 1 -20.5 9 q-7.5 8 -7.5 20 q0 12 7 21 l206 204 l-206 205 q-8 10 -8 21 q0 11 8 21 Z" /><glyph glyph-name="uniE808" unicode="&#xe808;" d="M512 807 q122 0 226 -62 q102 -59 161 -160 q62 -105 62 -226.5 q0 -121.5 -62 -226.5 q-59 -101 -161 -161 q-104 -61 -226 -61 q-122 0 -226 61 q-102 60 -160 161 q-61 105 -61 226.5 q0 121.5 61 226.5 q58 101 160 160 q104 62 226 62 ZM706 520 q-13 1 -22 -8 l-244 -243 l-100 101 q-8 8 -21 8 q-13 0 -21.5 -8.5 q-8.5 -8.5 -8.5 -20.5 q0 -12 8 -22 l122 -122 q9 -9 22 -9 q13 0 22 9 l264 264 q8 10 8 22 q0 12 -8.5 20.5 q-8.5 8.5 -20.5 8.5 Z" /><glyph glyph-name="uniE809" unicode="&#xe809;" d="M261 455 l239 -251 q3 -3 5.5 -4 q2.5 -1 7 -1 q4.5 0 6.5 1 q4 2 5 4 l239 251 q4 6 5 9 q0 8 -1 11 q-4 6 -7 8.5 q-3 2.5 -9 2.5 l-478 0 q-4 0 -8 -2.5 q-4 -2.5 -8 -8.5 q-1 -3 -1 -11 q1 -3 5 -9 Z" /><glyph glyph-name="uniE80A" unicode="&#xe80a;" d="M257 537 q13 0 23.5 -10.5 q10.5 -10.5 10.5 -23.5 l0 -319 l453 454 q11 8 24 8 q13 0 22.5 -9 q9.5 -9 9.5 -22.5 q0 -13.5 -8 -23.5 l-454 -454 l318 0 q14 0 24 -10 q10 -10 10 -23.5 q0 -13.5 -9.5 -23 q-9.5 -9.5 -24.5 -9.5 l-399 0 q-14 0 -23.5 9 q-9.5 9 -9.5 23 l0 400 q0 14 10 24 q10 10 23 10 Z" /><glyph glyph-name="uniE80B" unicode="&#xe80b;" d="M233 509 q-2 -2 -6 -7 l-1 -2 q-2 -8 -2 -12.5 q0 -4.5 2 -12.5 l1 -2 q4 -5 6 -7 l257 -258 q5 -4 11 -6.5 q6 -2.5 10.5 -2.5 q4.5 0 12.5 2 l2 1 q5 4 8 6 l257 258 q2 2 6 7 l1 2 q2 4 2 12.5 q0 8.5 -2 12.5 l-1 2 q-4 5 -6.5 7 q-2.5 2 -7.5 6 l-2 1 q-4 2 -12 2 q-8 0 -11 -2 q-6 -3 -10 -7 l-236 -236 l-236 236 q-4 4 -10 7 q-3 2 -11 2 q-8 0 -12 -2 l-2 -1 q-5 -4 -8 -6 Z" /><glyph glyph-name="uniE80C" unicode="&#xe80c;" d="M736 777 q23 23 54 23 q14 0 27.5 -6.5 q13.5 -6.5 24.5 -16.5 l110 -109 q23 -23 23 -54 q0 -14 -6 -28 q-6 -14 -17 -24 l-119 -120 l-462 -441 q-13 -12 -30 -17 l-236 -72 q-8 -3 -16.5 -0.5 q-8.5 2.5 -14.5 9 q-6 6.5 -9 15 q-3 8.5 1 16.5 l71 234 q4 18 20 33 l460 439 l119 119 ZM201 172 q-2 -2 -3 -4 l-54 -177 l179 54 q2 0 4 2 l438 419 l-125 125 l-439 -419 ZM811 510 l96 97 q2 2 2.5 3 q0.5 1 0.5 4 q0 3 -0.5 4.5 q-0.5 1.5 -2.5 3.5 l-110 110 q-2 2 -3 2.5 q-1 0.5 -4.5 0.5 q-3.5 0 -4.5 -1 l-2 -1 q-1 0 -1 -1 l-97 -96 l126 -126 Z" /><glyph glyph-name="uniE80D" unicode="&#xe80d;" d="M75 742 l874 0 q31 0 53 -21.5 q22 -21.5 22 -51.5 l0 -589 q0 -29 -22 -52 q-23 -22 -53 -22 l-874 0 q-30 0 -53 22 q-22 23 -22 52 l0 589 q0 30 22 51.5 q22 21.5 53 21.5 ZM65 557 l0 -477 q0 -4 3 -7 q3 -3 7 -3 l874 0 q5 0 8 3 l1 2 q3 3 3 5 l0 477 l-407 -270 q-19 -14 -42 -14 q-23 0 -42 14 l-405 270 ZM65 669 l0 -36 l441 -294 q4 -2 6 -2 q2 0 6 2 l443 294 l0 36 q0 4 -3.5 7 q-3.5 3 -8.5 3 l-874 0 q-4 0 -7 -2 q-3 -2 -3 -8 Z" /><glyph glyph-name="uniE80E" unicode="&#xe80e;" d="M1024 590 l0 115 q0 45 -22.5 82.5 q-22.5 37.5 -60.5 60 q-38 22.5 -83 22.5 l-115 0 q-11 0 -18.5 -7.5 q-7.5 -7.5 -7.5 -17.5 q0 -10 8 -18.5 q8 -8.5 18 -8.5 l115 0 q31 0 57 -15.5 q26 -15.5 41.5 -41.5 q15.5 -26 15.5 -56 l0 -115 q0 -10 8 -18.5 q8 -8.5 18.5 -8.5 q10.5 0 18 8 q7.5 8 7.5 19 ZM281 -101 q11 0 18.5 -8 q7.5 -8 7.5 -18.5 q0 -10.5 -7.5 -18.5 q-7.5 -8 -18.5 -8 l-115 0 q-45 0 -83 22.5 q-38 22.5 -60.5 60.5 q-22.5 38 -22.5 83 l0 115 q0 11 7.5 19 q7.5 8 18.5 8 q11 0 18.5 -8 q7.5 -8 7.5 -19 l0 -115 q0 -30 15.5 -56.5 q15.5 -26.5 41.5 -41.5 q26 -15 57 -15 l115 0 ZM1024 127 l0 -115 q0 -45 -22.5 -83 q-22.5 -38 -60.5 -60.5 q-38 -22.5 -83 -22.5 l-115 0 q-11 0 -18.5 8 q-7.5 8 -7.5 18.5 q0 10.5 8 18.5 q8 8 18 8 l115 0 q31 0 57 15 q26 15 41.5 41.5 q15.5 26.5 15.5 56.5 l0 115 q0 11 8 19 q8 8 18.5 8 q10.5 0 18 -8 q7.5 -8 7.5 -19 ZM691 114 q8 8 8.5 19 q0.5 11 -7 19 q-7.5 8 -18.5 8.5 q-11 0.5 -20 -6.5 q-29 -27 -65.5 -42 q-36.5 -15 -76.5 -15 q-40 0 -76.5 15 q-36.5 15 -65.5 42 q-9 7 -20 6.5 q-11 -0.5 -18.5 -8.5 q-7.5 -8 -7 -19 q0.5 -11 8.5 -19 q37 -34 83.5 -52.5 q46.5 -18.5 95.5 -18.5 q49 0 95.5 18.5 q46.5 18.5 83.5 52.5 ZM566 293 l0 191 q0 12 -8 19.5 q-8 7.5 -19.5 7.5 q-11.5 0 -19 -7.5 q-7.5 -7.5 -7.5 -19.5 l0 -191 q0 -6 -4.5 -10.5 q-4.5 -4.5 -10.5 -4.5 l-22 0 q-11 0 -18.5 -8 q-7.5 -8 -7.5 -19 q0 -11 7.5 -19.5 q7.5 -8.5 18.5 -8.5 l22 0 q29 0 49 20.5 q20 20.5 20 49.5 ZM752 409 l0 77 q0 11 -7.5 18 q-7.5 7 -17.5 7 q-10 0 -18 -7 q-8 -7 -8 -18 l0 -77 q0 -11 8 -18.5 q8 -7.5 18 -7.5 q10 0 17.5 7.5 q7.5 7.5 7.5 18.5 ZM303 383 q-10 0 -17 7.5 q-7 7.5 -7 18.5 l0 77 q0 11 7 18 q7 7 17 7 q10 0 18 -7 q8 -7 8 -18 l0 -77 q0 -11 -8 -18.5 q-8 -7.5 -18 -7.5 ZM0 590 l0 115 q0 45 22.5 82.5 q22.5 37.5 60.5 60 q38 22.5 83 22.5 l115 0 q11 0 18.5 -7.5 q7.5 -7.5 7.5 -17.5 q0 -10 -7.5 -18.5 q-7.5 -8.5 -18.5 -8.5 l-115 0 q-31 0 -57 -15.5 q-26 -15.5 -41.5 -41.5 q-15.5 -26 -15.5 -56 l0 -115 q0 -10 -7.5 -18.5 q-7.5 -8.5 -18.5 -8.5 q-11 0 -18.5 8 q-7.5 8 -7.5 19 Z" /><glyph glyph-name="uniE80F" unicode="&#xe80f;" d="M127 614 q-13 0 -22 -9 q-9 -9 -9 -22.5 q0 -13.5 9 -22 q9 -8.5 22 -8.5 l770 0 q14 0 22.5 8.5 q8.5 8.5 8.5 22 q0 13.5 -8.5 22.5 q-8.5 9 -22.5 9 l-770 0 ZM262 373 q0 11 9.5 21 q9.5 10 22.5 10 l436 0 q13 0 22.5 -9 q9.5 -9 9.5 -22.5 q0 -13.5 -9.5 -22 q-9.5 -8.5 -22.5 -8.5 l-436 0 q-13 0 -22.5 9 q-9.5 9 -9.5 22 ZM429 166 q0 13 8.5 22.5 q8.5 9.5 22.5 9.5 l104 0 q15 0 23 -9.5 q8 -9.5 8 -22.5 q0 -13 -9 -22.5 q-9 -9.5 -22 -9.5 l-104 0 q-13 0 -22 9.5 q-9 9.5 -9 22.5 Z" /><glyph glyph-name="uniE810" unicode="&#xe810;" d="M663 637 q-3 2 -8 6 l-2 1 q-4 2 -12 2 q-8 0 -12 -2 q-6 -4 -9 -7 l-259 -257 q-2 -2 -6 -7 l-1 -2 q-2 -9 -2 -13.5 q0 -4.5 2.5 -10.5 q2.5 -6 6.5 -10 l259 -257 q4 -4 10 -6.5 q6 -2.5 10.5 -2.5 q4.5 0 12.5 2 l2 1 q5 4 7.5 6 q2.5 2 6.5 7 l1 2 q2 4 2 12.5 q0 8.5 -2 11.5 q-3 6 -7 10 l-236 235 l236 236 q4 4 7 10 q2 3 2 11.5 q0 8.5 -2 12.5 l-1 2 q-4 5 -6 7 Z" /><glyph glyph-name="uniE811" unicode="&#xe811;" d="M118 729 q13 13 31.5 13 q18.5 0 31.5 -13 l725 -711 q15 -13 15 -31.5 q0 -18.5 -14 -31.5 q-14 -13 -32.5 -13 q-18.5 0 -31.5 13 l-218 214 q-57 33 -115 32.5 q-58 -0.5 -115 -34.5 q-16 -10 -34 -6 q-18 4 -28 20 q-10 16 -6 33.5 q4 17.5 20 27.5 q72 45 155 48 l-88 86 q-89 -20 -157 -69 q-14 -11 -33 -8.5 q-19 2.5 -30 17.5 q-11 15 -8.5 33 q2.5 18 17.5 29 q62 46 137 71 l-87 85 q-57 -26 -117 -69 q-14 -11 -33 -8.5 q-19 2.5 -30.5 17 q-11.5 14.5 -8 33 q3.5 18.5 17.5 29.5 q48 35 103 64 l-67 67 q-14 13 -14 31 q0 18 14 31 ZM426 673 q135 16 267 -18 q135 -35 249 -119 q14 -11 17.5 -29.5 q3.5 -18.5 -8 -32.5 q-11.5 -14 -30.5 -17 q-19 -3 -33 8 q-101 74 -217 104 q-115 30 -234 16 q-18 -2 -33.5 9 q-15.5 11 -17.5 29.5 q-2 18.5 10 33 q12 14.5 30 16.5 ZM578 429 q4 17 19.5 27.5 q15.5 10.5 33.5 6.5 q103 -22 190 -85 q15 -10 18 -28.5 q3 -18.5 -8.5 -33.5 q-11.5 -15 -30 -17.5 q-18.5 -2.5 -33.5 8.5 q-71 50 -156 69 q-17 4 -27.5 20 q-10.5 16 -5.5 33 ZM543 79 q14 -12 15 -30.5 q1 -18.5 -12 -33.5 q-14 -13 -32.5 -14 q-18.5 -1 -32 12 q-13.5 13 -14.5 30.5 q-1 17.5 12 32.5 q13 13 31 14 q18 1 33 -11 Z" /><glyph glyph-name="uniE812" unicode="&#xe812;" d="M512 774 q77 0 143.5 -32.5 q66.5 -32.5 106.5 -89.5 q41 -58 41 -128 l0 -189 q0 -40 23 -75 l92 -137 q10 -18 10 -32 q1 -16 -7.5 -32.5 q-8.5 -16.5 -23.5 -24.5 q-13 -9 -32 -9 l-208 0 q0 -33 -11 -57 q-11 -27 -31 -47 q-24 -22 -48 -32 q-27 -11 -55 -11 q-28 0 -55 11 q-26 11 -47 32 q-21 19 -32 47 q-11 28 -11 57 l-207 0 q-19 0 -34 8.5 q-15 8.5 -23 23.5 q-8 18 -7.5 33 q0.5 15 10.5 33 l92 137 q23 35 23 75 l0 189 q0 70 41 128 q40 57 106.5 89.5 q66.5 32.5 143.5 32.5 ZM284 524 l0 -189 q0 -59 -34 -110 l-91 -138 l706 1 l-91 137 q-34 51 -34 110 l0 189 q0 49 -30 92 q-30 43 -81 69 q-54 27 -117 27 q-63 0 -117 -27 q-51 -26 -81 -69 q-30 -43 -30 -92 ZM595 25 l-166 0 q0 -36 24.5 -60 q24.5 -24 58.5 -24 q34 0 58.5 24 q24.5 24 24.5 60 Z" /><glyph glyph-name="uniE813" unicode="&#xe813;" d="M850 264 q-14 0 -32 5 q-13 6 -25.5 17.5 q-12.5 11.5 -18.5 26.5 q-6 15 -6 31 q0 16 5.5 29 q5.5 13 18.5 27 q10 10 26 16.5 q16 6.5 32 6.5 q34 -2 55 -25 q10 -10 16.5 -25 q6.5 -15 6.5 -30 q0 -31 -23 -55 q-21 -22 -55 -24 ZM289 343 q0 -15 -7 -31.5 q-7 -16.5 -17 -24.5 q-10 -12 -25.5 -18.5 q-15.5 -6.5 -31 -6.5 q-15.5 0 -30 5.5 q-14.5 5.5 -27 18.5 q-12.5 13 -18 27.5 q-5.5 14.5 -5.5 29.5 q2 34 25 55 q10 11 25 17 q15 6 30 6 q32 0 55.5 -22 q23.5 -22 25.5 -56 ZM609 343 q0 -15 -5 -29.5 q-5 -14.5 -18 -27.5 q-13 -13 -27 -18.5 q-14 -5.5 -30 -5.5 q-16 0 -31.5 6.5 q-15.5 6.5 -25.5 18.5 q-10 8 -16.5 24.5 q-6.5 16.5 -6.5 31.5 q2 34 24.5 56 q22.5 22 55.5 22 q16 0 30.5 -6 q14.5 -6 25.5 -17 q22 -21 24 -55 Z" /><glyph glyph-name="uniE814" unicode="&#xe814;" d="M792 593 q8 8 8 22.5 q0 14.5 -9.5 22.5 q-9.5 8 -21.5 8 q-12 0 -23 -8 l-508 -514 q-11 -10 -10 -23 q1 -13 10 -21.5 q9 -8.5 21.5 -8.5 q12.5 0 23.5 8 l509 514 ZM791 111 q-4 -9 -14 -21 q-9 -9 -21 -14 q-12 -5 -25 -5 q-13 0 -22 4 q-14 5 -22 13 q-8 8 -13.5 20.5 q-5.5 12.5 -5.5 24 q0 11.5 5 24.5 q9 25 33 35.5 q24 10.5 48 0.5 q24 -10 35.5 -34 q11.5 -24 1.5 -48 ZM333 532 q8 9 13 22 q9 25 -1 49 q-10 24 -34.5 33.5 q-24.5 9.5 -48.5 -1.5 q-11 -4 -20 -14 q-9 -10 -13.5 -21 q-4.5 -11 -4.5 -23.5 q0 -12.5 5 -24.5 q4 -10 15 -21 q9 -9 20 -13 q15 -5 25 -4 q14 0 23 5 q12 4 21 13 Z" /><glyph glyph-name="uniE815" unicode="&#xe815;" d="M161 521 q23 50 60 92 q37 42 83 72 q46 30 99.5 45 q53.5 15 108.5 15 q65 0 126 -21 q61 -21 112 -60.5 q51 -39.5 86 -93.5 q35 -54 52 -117 q2 -13 13 -19 q11 -6 23.5 -3.5 q12.5 2.5 18.5 14 q6 11.5 3 23.5 q-23 96 -86.5 173.5 q-63.5 77.5 -151.5 120.5 q-93 45 -196 45 q-58 0 -115.5 -15.5 q-57.5 -15.5 -107.5 -43.5 q-104 -62 -164 -163 l0 68 q0 15 -8 23 q-8 8 -21.5 8 q-13.5 0 -22 -8.5 q-8.5 -8.5 -8.5 -22.5 l0 -152 q0 -16 11 -29 q14 -12 28 -12 l153 0 q11 0 23 9 q8 10 8 22.5 q0 12.5 -9 21 q-9 8.5 -22 8.5 l-96 0 ZM137 264 q-3 12 -14 18.5 q-11 6.5 -23.5 3.5 q-12.5 -3 -18.5 -14 q-6 -11 -3 -23 q23 -96 86.5 -173.5 q63.5 -77.5 151.5 -120.5 q93 -45 196 -45 q122 0 226 61 q102 60 161 161 l0 -69 q0 -13 8.5 -21.5 q8.5 -8.5 21.5 -8.5 q13 0 22.5 9 q9.5 9 9.5 21 l0 153 q0 7 -4 15.5 q-4 8.5 -9 13.5 q-14 12 -28 12 l-153 0 q-12 0 -21.5 -9 q-9.5 -9 -9.5 -22 q0 -13 9 -21.5 q9 -8.5 22 -8.5 l96 0 q-23 -51 -59.5 -93 q-36.5 -42 -83 -71 q-46.5 -29 -100 -45 q-53.5 -16 -108.5 -16 q-89 0 -168 39 q-77 37 -131.5 103.5 q-54.5 66.5 -75.5 150.5 Z" /><glyph glyph-name="uniE816" unicode="&#xe816;" d="M96 701 q0 30 21.5 51.5 q21.5 21.5 51.5 21.5 l686 0 q30 0 51.5 -21.5 q21.5 -21.5 21.5 -51.5 l0 -686 q0 -30 -20.5 -51 q-20.5 -21 -52.5 -21 l-686 0 q-31 0 -52 21 q-21 21 -21 51 l0 686 ZM169 712 q-4 0 -7 -3 q-3 -3 -3 -8 l0 -686 q0 -4 3 -7 q3 -3 7 -3 l686 0 q4 0 7 3 q3 3 3 7 l0 686 q0 5 -3 8 q-3 3 -7 3 l-686 0 ZM529 597 q0 7 -5 12 q-5 5 -12 5 q-7 0 -12 -5 q-5 -5 -5 -12 l0 -198 l-104 104 q-1 2 -5 4 q-4 2 -6.5 2 q-2.5 0 -6.5 -2 q-1 0 -4 -2 l-2 -1 l-3 -6 q-2 -2 -2 -7 q0 -5 2 -7 q2 -4 4 -5 l103 -103 l-198 0 q-7 0 -12 -5 q-5 -5 -5 -12.5 q0 -7.5 5 -12.5 q5 -5 12 -5 l198 0 l-103 -103 q-6 -6 -6 -12.5 q0 -6.5 5.5 -11.5 q5.5 -5 12 -5 q6.5 0 11.5 5 l104 103 l0 -197 q0 -7 5 -12.5 q5 -5.5 12 -5.5 q7 0 12 5.5 q5 5.5 5 12.5 l0 197 l104 -103 q5 -5 11.5 -5 q6.5 0 12 5 q5.5 5 5.5 11 q0 8 -6 13 l-103 103 l198 0 q7 0 12 5 q5 5 5 12.5 q0 7.5 -5 12.5 q-5 5 -12 5 l-198 0 l103 103 q2 1 4.5 5 q2.5 4 2.5 7 q0 3 -3 7 l-3 6 l-6 3 q-4 2 -6.5 2 q-2.5 0 -6.5 -2 q-4 -2 -5 -4 l-104 -104 l0 198 Z" /><glyph glyph-name="uniE817" unicode="&#xe817;" d="M549 861 l343 -196 q16 -10 26 -26.5 q10 -16.5 10 -36.5 l0 -391 q0 -20 -10 -36.5 q-10 -16.5 -26 -26.5 l-343 -196 q-17 -9 -37 -9 q-20 0 -36 9 l-344 196 q-15 10 -27 26 q-9 17 -9 37 l0 391 q0 20 10 36.5 q10 16.5 26 26.5 l344 196 q16 9 36 9 q20 0 37 -9 ZM507 807 l-318 -180 l323 -185 l323 185 l-318 180 q-2 2 -4 2 q-2 0 -5 -1 l-1 -1 ZM544 20 l316 182 q2 1 3.5 3 q1.5 2 1.5 6 l0 361 l-321 -183 l0 -369 ZM159 572 l0 -361 q0 -6 5 -9 l317 -182 l0 368 l-322 184 Z" /><glyph glyph-name="uniE818" unicode="&#xe818;" d="M361 637 q3 2 8 6 l2 1 q4 2 12 2 q8 0 12 -2 l2 -1 q5 -4 7 -6 l259 -257 q2 -2 6 -7 l1 -2 q2 -4 2 -12.5 q0 -8.5 -2 -11.5 q-3 -6 -7 -10 l-259 -257 q-2 -2 -7 -6 l-2 -1 q-8 -2 -12 -2 q-4 0 -12 2 l-2 1 q-5 4 -7.5 6 q-2.5 2 -6.5 7 l-1 2 q-2 8 -2 12.5 q0 4.5 2.5 11 q2.5 6.5 6.5 10.5 l236 235 l-236 236 q-4 4 -6.5 10 q-2.5 6 -2.5 11 q0 5 2 13 l1 2 q4 5 6 7 Z" /><glyph glyph-name="uniE819" unicode="&#xe819;" d="M443 774 q50 0 98 -14 q48 -14 89 -40 q41 -26 74 -63 q33 -37 54 -82 q21 -45 29 -94 q8 -49 1 -98 q-7 -49 -26.5 -95 q-19.5 -46 -50.5 -83 l239 -240 q7 -6 9.5 -13.5 q2.5 -7.5 -0.5 -16.5 q-3 -9 -8 -16 q-7 -5 -15.5 -7.5 q-8.5 -2.5 -16 0 q-7.5 2.5 -14.5 8.5 l-239 240 q-66 -56 -149 -72 q-84 -18 -165 4 q-81 22 -143.5 78.5 q-62.5 56.5 -91.5 137.5 q-29 81 -17.5 164.5 q11.5 83.5 59.5 154.5 q52 71 125 108 q74 39 159 39 ZM159 427 q0 -55 22 -108 q22 -53 62 -93 q40 -40 92.5 -62 q52.5 -22 108 -22 q55.5 0 109 22.5 q53.5 22.5 91.5 61.5 q42 42 62 92 q22 54 22 109.5 q0 55.5 -22 108 q-22 52.5 -62 92.5 q-40 40 -92 62 q-52 22 -108.5 22 q-56.5 0 -108.5 -22 q-52 -22 -92 -62 q-40 -40 -62 -92.5 q-22 -52.5 -22 -108.5 Z" /><glyph glyph-name="uniE81A" unicode="&#xe81a;" d="M675 358 q0 -31 -12.5 -61.5 q-12.5 -30.5 -35 -53 q-22.5 -22.5 -52.5 -35 q-30 -12.5 -63 -12.5 q-33 0 -62.5 12.5 q-29.5 12.5 -52 35 q-22.5 22.5 -35.5 52.5 q-13 30 -13 62.5 q0 32.5 13 63 q13 30.5 35.5 53 q22.5 22.5 52.5 34.5 q30 12 62 12 q32 0 62 -12 q30 -12 53 -35 q23 -23 35.5 -53.5 q12.5 -30.5 12.5 -62.5 ZM614 358 q0 21 -8 40 q-8 19 -22 32.5 q-14 13.5 -33 21.5 q-19 8 -39 8 q-20 0 -39 -8 q-19 -8 -33 -21.5 q-14 -13.5 -21.5 -32.5 q-7.5 -19 -7.5 -39.5 q0 -20.5 7.5 -39.5 q7.5 -19 21.5 -33 q14 -14 33 -21.5 q19 -7.5 39 -7.5 q20 0 39 7.5 q19 7.5 33 21.5 q14 14 22 33 q8 19 8 39 ZM512 807 q10 0 30 -2 l3 0 q22 -1 39 -16 q17 -15 22 -36 l15 -60 q2 -7 9 -9 q13 -4 29 -12 q10 -3 13 0 l52 31 q18 12 40.5 11 q22.5 -1 40.5 -17 q24 -21 46 -46 q15 -17 16 -39.5 q1 -22.5 -10 -41.5 l-32 -52 q-3 -3 0 -12 q9 -17 13 -30 q2 -7 9 -9 l59 -14 q22 -6 36.5 -22.5 q14.5 -16.5 15.5 -39.5 q4 -33 0 -65 q-1 -23 -15.5 -40 q-14.5 -17 -36.5 -22 l-59 -14 q-7 -2 -9 -9 q-4 -13 -13 -30 q-3 -7 0 -12 l32 -53 q11 -18 10 -40.5 q-1 -22.5 -16 -39.5 q-22 -25 -46 -47 q-18 -15 -40.5 -16 q-22.5 -1 -40.5 10 l-52 32 q-3 3 -13 0 l-29 -12 q-7 -2 -9 -9 l-15 -60 q-5 -21 -22 -36 q-17 -15 -39 -16 q-33 -3 -66 0 q-22 1 -39 16 q-17 15 -22 36 l-15 60 q-2 7 -9 9 l-29 12 q-8 3 -13 0 l-52 -32 q-18 -11 -40.5 -10 q-22.5 1 -40.5 16 q-24 22 -46 47 q-15 17 -16 39 q-1 22 10 41 l32 53 q3 5 0 12 l-13 30 q-2 7 -9 9 l-58 14 q-22 5 -37 22 q-15 17 -16 40 q-4 32 0 65 q1 23 16 39.5 q15 16.5 37 22.5 l58 14 q7 2 9 9 l13 30 q3 9 0 12 l-32 52 q-11 20 -10 42 q1 22 16 39 q22 25 46 46 q18 16 40.5 17 q22.5 1 40.5 -11 l52 -31 q5 -3 13 0 q17 8 29 12 q7 2 9 9 l15 60 q5 21 22 36 q17 15 39 16 l3 0 q20 2 30 2 ZM484 744 q-6 0 -7 -7 l-14 -58 q-5 -20 -17.5 -33 q-12.5 -13 -29.5 -19 q-13 -4 -25 -11 q-18 -8 -35.5 -7.5 q-17.5 0.5 -34.5 11.5 l-53 31 q-4 2 -9 0 q-21 -18 -40 -40 q-2 -4 0 -9 l32 -52 q10 -16 10.5 -34.5 q0.5 -18.5 -7.5 -36.5 q-4 -7 -9.5 -23.5 q-5.5 -16.5 -20 -30 q-14.5 -13.5 -33.5 -17.5 l-58 -15 q-7 -1 -7 -7 q-1 -28 0 -55 q0 -6 7 -7 l58 -15 q19 -4 33 -17 q14 -13 19.5 -29.5 q5.5 -16.5 10.5 -24.5 q8 -18 7.5 -36.5 q-0.5 -18.5 -10.5 -34.5 l-32 -52 q-2 -4 0 -10 q19 -21 40 -39 q5 -3 9 0 l53 31 q17 11 34.5 11.5 q17.5 0.5 35.5 -8.5 q12 -6 25 -10 q16 -6 29.5 -20 q13.5 -14 17.5 -32 l14 -60 q2 -6 7 -6 q28 -1 57 0 q5 0 6 8 l14 58 q4 18 18 32.5 q14 14.5 30.5 20 q16.5 5.5 23.5 9.5 q18 9 35.5 8.5 q17.5 -0.5 34.5 -11.5 l53 -31 q5 -3 9 0 q21 18 40 39 q2 6 0 10 l-32 52 q-10 17 -10.5 34.5 q-0.5 17.5 7.5 36.5 q5 8 10.5 25 q5.5 17 19 29 q13.5 12 33.5 17 l59 15 q6 2 6 7 q2 27 0 55 q0 6 -6 7 l-59 15 q-19 4 -33 17 q-14 13 -20 30 q-6 17 -10 24 q-8 19 -7.5 36 q0.5 17 10.5 35 l32 52 q2 5 0 9 q-19 22 -40 40 q-4 2 -9 0 l-53 -31 q-17 -11 -34.5 -11.5 q-17.5 -0.5 -35.5 7.5 q-7 5 -24 11 q-17 6 -30 19 q-13 13 -18 33 l-14 59 q-1 6 -6 6 q-29 1 -57 0 Z" /><glyph glyph-name="uniE81B" unicode="&#xe81b;" d="M489 803 q23 8 46 0 l343 -111 q23 -8 36.5 -26 q13.5 -18 13.5 -43 l0 -208 q0 -126 -49 -233 q-48 -102 -137 -179 q-87 -75 -205 -120 q-25 -10 -50 0 q-118 45 -205 120 q-89 77 -137 179 q-49 107 -49 233 l0 208 q0 23 14 42 q14 19 36 27 l343 111 ZM515 743 q-3 2 -6 0 l-343 -110 q-4 -2 -5.5 -3.5 q-1.5 -1.5 -1.5 -6.5 l0 -208 q0 -112 43 -206 q42 -91 120.5 -159 q78.5 -68 186.5 -109 l6 0 q108 41 186.5 109 q78.5 68 120.5 159 q43 94 43 206 l0 208 q0 5 -1.5 6.5 q-1.5 1.5 -5.5 3.5 l-343 110 ZM554 343 l0 -115 q0 -15 -12 -29 q-15 -13 -30 -13 q-15 0 -30 13 q-12 14 -12 29 l0 115 q-24 14 -35 40.5 q-11 26.5 -4 53 q7 26.5 30 44 q23 17.5 51 17.5 q28 0 50.5 -17.5 q22.5 -17.5 29.5 -44.5 q7 -27 -3.5 -53 q-10.5 -26 -34.5 -40 Z" /><glyph glyph-name="uniE81C" unicode="&#xe81c;" d="M128 732 q0 31 22 53 q22 22 54 22 l237 0 q14 0 24 -10 q9 -7 9 -21.5 q0 -14.5 -9 -24 q-9 -9.5 -24 -9.5 l-237 0 q-5 0 -8 -3 l-1 -2 q-2 -3 -2 -5 l0 -747 q0 -4 3.5 -7.5 q3.5 -3.5 7.5 -3.5 l237 0 q15 0 24 -9 q9 -9 9 -23 q0 -14 -9 -22 q-10 -10 -24 -10 l-237 0 q-31 0 -53 22 q-11 11 -17 24.5 q-6 13.5 -6 28.5 l0 747 ZM820 327 l-357 0 q-13 0 -22.5 9 q-9.5 9 -9.5 22.5 q0 13.5 9.5 22.5 q9.5 9 22.5 9 l357 0 l-142 149 q-9 11 -8 23.5 q1 12.5 9.5 21.5 q8.5 9 22 9 q13.5 0 23.5 -10 l195 -202 q8 -10 8 -23 q0 -13 -8 -21 l-195 -203 q-8 -8 -22.5 -9 q-14.5 -1 -23 7.5 q-8.5 8.5 -9.5 22.5 q-1 14 8 23 l142 149 Z" /><glyph glyph-name="uniE81D" unicode="&#xe81d;" d="M435 653 q0 14 10 23.5 q10 9.5 23 9.5 l88 0 q13 0 23 -9.5 q10 -9.5 10 -23.5 q0 -14 -9.5 -23 q-9.5 -9 -23.5 -9 l-88 0 q-14 0 -23.5 9 q-9.5 9 -9.5 23 ZM512 31 q17 0 30.5 13 q13.5 13 13.5 30.5 q0 17.5 -13.5 31 q-13.5 13.5 -30.5 13.5 q-17 0 -30.5 -13.5 q-13.5 -13.5 -13.5 -31 q0 -17.5 13.5 -30.5 q13.5 -13 30.5 -13 ZM160 762 q0 32 22.5 54.5 q22.5 22.5 54.5 22.5 l550 0 q32 0 54.5 -22.5 q22.5 -22.5 22.5 -54.5 l0 -807 q0 -32 -22.5 -54.5 q-22.5 -22.5 -54.5 -22.5 l-550 0 q-15 0 -29.5 6 q-14.5 6 -25.5 17 q-22 22 -22 54 l0 807 ZM237 773 q-5 0 -8 -3 q-3 -3 -3 -8 l0 -807 q0 -4 3 -7.5 q3 -3.5 8 -3.5 l550 0 q5 0 8 3 q3 3 3 8 l0 807 q0 5 -3 8 q-3 3 -8 3 l-550 0 Z" /><glyph glyph-name="uniE81E" unicode="&#xe81e;" d="M532 552 q0 12 -8 21.5 q-8 9.5 -21.5 9.5 q-13.5 0 -22.5 -9.5 q-9 -9.5 -9 -21.5 l0 -224 q0 -17 15 -27 l144 -81 q9 -6 22 -3 q13 3 19 14 q6 14 3 25 q-3 11 -15 17 l-127 73 l0 206 ZM512 807 q122 0 226 -62 q102 -59 161 -160 q62 -105 62 -226.5 q0 -121.5 -62 -226.5 q-59 -101 -161 -161 q-104 -61 -226 -61 q-122 0 -226 61 q-102 60 -160 161 q-61 105 -61 226.5 q0 121.5 61 226.5 q58 101 160 160 q104 62 226 62 ZM125 358 q0 -76 29.5 -147.5 q29.5 -71.5 84 -125.5 q54.5 -54 125.5 -84 q71 -30 148 -30 q77 0 148 30 q71 30 125.5 84 q54.5 54 84 125.5 q29.5 71.5 29.5 148 q0 76.5 -29.5 148 q-29.5 71.5 -84 125.5 q-54.5 54 -125.5 83.5 q-71 29.5 -148 29.5 q-77 0 -148 -29.5 q-71 -29.5 -125.5 -83.5 q-54.5 -54 -84 -125.5 q-29.5 -71.5 -29.5 -148.5 Z" /><glyph glyph-name="uniE81F" unicode="&#xe81f;" d="M621 855 q-110 29 -222 5 q-4 -1 -6.5 -4.5 q-2.5 -3.5 -1.5 -7.5 q1 -4 4.5 -6.5 q3.5 -2.5 7.5 -1.5 q104 22 213 -5 q83 -21 154.5 -67 q71.5 -46 123.5 -113 q52 -67 78 -147 q28 -89 30 -200 q2 -4 5 -7 q3 -3 7 -3 q4 0 7 3 q3 3 3 8 q-3 118 -31 204 q-27 84 -81.5 153.5 q-54.5 69.5 -129 118.5 q-74.5 49 -161.5 70 ZM346 823 q9 3 7 14 q-2 4 -5.5 6 q-3.5 2 -7.5 1 q-61 -18 -130 -68 q-75 -54 -123 -125 q-46 -68 -69 -146 q-23 -83 -16 -161 q2 -17 9 -54 l1 -5 q8 -38 12 -63 q4 -34 0 -62 q-1 -4 1.5 -8 q2.5 -4 6.5 -5 q11 0 12 10 q4 27 1 61 q-2 21 -10 62 l-1 7 q-7 36 -11 59 q-8 75 16 154 q21 73 65 140 q47 68 118 120 q66 48 124 63 ZM484 800 q101 6 194.5 -33 q93.5 -39 160.5 -116 q3 -4 2.5 -8 q-0.5 -4 -3.5 -7 q-10 -5 -16 1 q-62 73 -151.5 110 q-89.5 37 -185.5 32 q-78 -4 -152 -38.5 q-74 -34.5 -129.5 -94 q-55.5 -59.5 -81.5 -133.5 q-1 -4 -5 -6 q-4 -2 -8.5 -0.5 q-4.5 1.5 -7 5 q-2.5 3.5 -0.5 8.5 q29 78 87.5 140.5 q58.5 62.5 135.5 99 q77 36.5 160 40.5 ZM870 605 q-2 4 -6 4.5 q-4 0.5 -8 -1.5 q-4 -2 -4.5 -6.5 q-0.5 -4.5 1.5 -8.5 q35 -52 54 -116 q18 -56 24 -131 q1 -4 4 -7 q3 -3 7 -2.5 q4 0.5 7 3.5 q3 3 3 8 q-6 77 -24 136 q-20 66 -58 121 ZM945 303 q9 0 11 -9 q8 -112 -3 -189 q-1 -5 -4.5 -7.5 q-3.5 -2.5 -7.5 -1.5 q-4 1 -6.5 4 q-2.5 3 -2.5 8 q10 73 3 184 q0 5 3 8 q3 3 7 3 ZM105 462 q1 4 -1 7.5 q-2 3.5 -6 4.5 q-4 1 -8 -1 q-4 -2 -5 -6 q-10 -47 -12 -98 q0 -39 13 -100 l1 -3 q9 -52 10 -79 q4 -49 -18 -106 q-1 -4 0.5 -8 q1.5 -4 5.5 -5.5 q4 -1.5 7.5 0 q3.5 1.5 5.5 5.5 q24 60 21 115 q-2 28 -13 81 q-12 66 -12 100 q0 45 11 93 ZM383 695 q1 -4 -0.5 -7.5 q-1.5 -3.5 -5.5 -5.5 q-83 -34 -139.5 -103 q-56.5 -69 -69.5 -156 q-4 -33 -1 -73 q2 -24 9 -72 q9 -47 10 -81 q8 -108 -41 -184 q-3 -4 -7 -4.5 q-4 -0.5 -7.5 1.5 q-3.5 2 -4.5 6 q-1 4 1 9 q25 37 34 84 q8 37 5 86 q-2 27 -10 83 q-9 46 -11 73 q-3 41 2 75 q14 92 74.5 166.5 q60.5 74.5 147.5 108.5 q4 1 8 -0.5 q4 -1.5 6 -5.5 ZM754 636 q-65 59 -152.5 80.5 q-87.5 21.5 -173.5 2.5 q-4 -1 -6.5 -4.5 q-2.5 -3.5 -1.5 -8 q1 -4.5 5 -7 q4 -2.5 8 -1.5 q82 19 164.5 -1.5 q82.5 -20.5 141.5 -75.5 q51 -48 81 -115 q29 -66 37 -142 q1 -5 4 -8 q3 -3 7 -2.5 q4 0.5 7.5 4 q3.5 3.5 2.5 8.5 q-9 80 -39 149 q-32 72 -85 121 ZM876 315 q4 1 7.5 -1.5 q3.5 -2.5 4.5 -7.5 q13 -144 -10 -304 q0 -4 -4 -6.5 q-4 -2.5 -8 -2 q-4 0.5 -7 4 q-3 3.5 -2 7.5 q25 159 9 299 q0 5 2.5 8 q2.5 3 7.5 3 ZM508 656 q-80 0 -147.5 -38 q-67.5 -38 -106.5 -104 q-40 -67 -40 -144 q0 -23 5 -51 q1 -4 4 -6.5 q3 -2.5 8 -1.5 q5 1 7.5 4.5 q2.5 3.5 1.5 8.5 q-4 19 -4 46 q0 71 36.5 132.5 q36.5 61.5 99 97.5 q62.5 36 136.5 36 q50 0 95.5 -17 q45.5 -17 81.5 -48 q4 -3 8 -3 q4 0 7 3.5 q3 3.5 2.5 8.5 q-0.5 5 -3.5 7 q-39 34 -88 51.5 q-49 17.5 -103 17.5 ZM723 548 q3 3 7.5 3 q4.5 0 6.5 -3 q32 -33 50 -89 q13 -39 22 -100 q13 -85 13 -175 q0 -4 -3.5 -7 q-3.5 -3 -7.5 -3 q-4 0 -7 3 q-3 3 -3 7 q0 87 -13 172 q-9 60 -20 94 q-16 53 -45 82 q-3 5 -3 9 q0 4 3 7 ZM819 125 q1 4 -2 7 q-3 3 -7.5 3.5 q-4.5 0.5 -7.5 -2.5 q-3 -3 -3 -7 q-6 -65 -11 -96 q-7 -54 -16 -93 q-1 -5 1.5 -8.5 q2.5 -3.5 7 -4.5 q4.5 -1 8 1.5 q3.5 2.5 4.5 6.5 q17 75 26 193 ZM236 281 q5 1 8 -2 q3 -3 4 -7 q35 -173 -52 -305 q-2 -4 -6.5 -4.5 q-4.5 -0.5 -8.5 1.5 q-4 2 -4.5 6 q-0.5 4 1.5 8 q82 126 49 290 q-1 4 1.5 8 q2.5 4 7.5 5 ZM508 589 q-52 0 -101 -24.5 q-49 -24.5 -80 -65.5 q-33 -43 -38 -93 q-3 -30 0 -66 q2 -23 8 -67 q11 -71 10 -115 q-6 -129 -76 -223 q-2 -4 -1.5 -8 q0.5 -4 4.5 -6.5 q4 -2.5 8.5 -2 q4.5 0.5 6.5 3.5 q73 97 79 235 q1 22 -1 51 q-2 16 -6 50 l-4 23 q-6 41 -7 61 q-3 34 0 61 q4 44 33.5 81.5 q29.5 37.5 73.5 60 q44 22.5 91 22.5 q29 0 62 -11 q45 -13 78 -42 q41 -36 57.5 -90 q16.5 -54 22.5 -128 q5 -70 1 -146 q-5 -75 -17.5 -142 q-12.5 -67 -29.5 -112 q-1 -5 0.5 -8.5 q1.5 -3.5 5.5 -5 q4 -1.5 8 0 q4 1.5 6 5.5 q19 47 31 116 q12 69 17 143 q5 79 -1 150 q-7 76 -24 133 q-18 60 -63 100 q-36 31 -85 47 q-37 12 -69 12 ZM345 -33 q4 -2 4.5 -6.5 q0.5 -4.5 -1.5 -7.5 q-12 -21 -17.5 -31.5 q-5.5 -10.5 -18.5 -31.5 q-2 -3 -6.5 -4 q-4.5 -1 -8 1 q-3.5 2 -4.5 7 q-1 5 1 9 q6 8 15 25 l9 16 q8 13 13 20 q2 4 6 4.5 q4 0.5 8 -1.5 ZM435 479 q4 2 4.5 6.5 q0.5 4.5 -1.5 8.5 q-2 4 -6 4.5 q-4 0.5 -8 -1.5 q-68 -44 -68 -122 q0 -23 4 -47 q2 -15 9 -42 q15 -72 14 -127 q-3 -78 -32 -146 q-2 -4 -0.5 -8 q1.5 -4 5.5 -5.5 q4 -1.5 8.5 0 q4.5 1.5 6.5 5.5 q31 74 32 154 q1 58 -14 131 q-6 26 -8 41 q-3 22 -3 44 q0 35 14.5 60 q14.5 25 42.5 44 ZM477 516 q32 7 65 -1 q33 -8 60 -29 q29 -23 46 -61 q15 -32 22 -76 q5 -27 9 -78 l1 -4 q11 -131 -22 -280 q-1 -4 -4.5 -7 q-3.5 -3 -7.5 -1.5 q-4 1.5 -6.5 5 q-2.5 3.5 -1.5 7.5 q32 149 20 274 q0 6 -1 9 q-5 69 -15 107 q-16 59 -53 89 q-23 17 -51 24 q-28 7 -57 2 q-5 -1 -8 1.5 q-3 2.5 -4 6.5 q-1 4 1 7.5 q2 3.5 7 4.5 ZM644 -66 q2 11 -8 14 q-4 1 -7.5 -1.5 q-3.5 -2.5 -4.5 -6.5 q-12 -38 -29 -69 q-2 -3 -1.5 -7.5 q0.5 -4.5 4.5 -6.5 q4 -2 8 -1 q4 1 6 5 q22 37 32 73 ZM592 87 q4 0 7 -3.5 q3 -3.5 2 -7.5 q-15 -127 -69 -224 q-2 -5 -6 -6 q-4 -1 -8 1 q-4 2 -5 6.5 q-1 4.5 1 8.5 q51 91 67 216 q0 4 3 7 q3 3 8 2 ZM590 380 q-5 30 -28 49.5 q-23 19.5 -54 19.5 q-27 0 -48 -16 q-21 -16 -29.5 -40.5 q-8.5 -24.5 -2.5 -50.5 q34 -138 11 -263 q-19 -112 -75 -202 q-3 -4 -1.5 -8.5 q1.5 -4.5 5.5 -6.5 q4 -2 8 -1 q4 1 6 5 q56 92 78 209 q24 130 -11 272 q-6 20 1 38.5 q7 18.5 22.5 30.5 q15.5 12 35.5 12 q22 0 39 -15 q17 -15 22 -37 q26 -148 18 -242 q0 -5 2.5 -8 q2.5 -3 6.5 -3 q4 0 7.5 2.5 q3.5 2.5 4.5 6.5 q7 100 -18 248 ZM476 -76 q4 -1 5.5 -5.5 q1.5 -4.5 -0.5 -8.5 l-27 -54 q-2 -4 -6.5 -5.5 q-4.5 -1.5 -8.5 1 q-4 2.5 -5.5 6.5 q-1.5 4 0.5 8 l29 54 q2 4 5.5 5 q3.5 1 7.5 -1 ZM516 370 q-1 4 -4.5 6.5 q-3.5 2.5 -7.5 1.5 q-4 -1 -6.5 -4.5 q-2.5 -3.5 -1.5 -8.5 q53 -225 -14 -397 q-1 -4 0.5 -7.5 q1.5 -3.5 6 -5 q4.5 -1.5 8.5 0 q4 1.5 6 5.5 q67 176 13 409 Z" /><glyph glyph-name="uniE820" unicode="&#xe820;" d="M321 561 l0 -75 l469 0 q43 0 75 -30 q31 -33 31 -76 l0 -341 q0 -22 -8 -42 q-8 -20 -23 -34 q-31 -32 -75 -32 l-556 0 q-20 0 -40 8.5 q-20 8.5 -35 23 q-15 14.5 -23 34.5 q-8 20 -8 42 l0 341 q0 44 32 76 q14 14 34 22 q20 8 40 8 l22 0 l0 75 q0 73 33 134 q33 61 90 96 q60 36 133 36 q58 0 109 -24 q49 -23 83.5 -64.5 q34.5 -41.5 51.5 -94.5 q2 -4 1 -12.5 q-1 -8.5 -3 -11.5 q-3 -7 -8 -11 q-6 -5 -10.5 -6 q-4.5 -1 -13.5 -1 q-4 0 -11.5 4 q-7.5 4 -10 7 q-2.5 3 -4.5 10 l-2 3 q-18 61 -67 99.5 q-49 38.5 -115 38.5 q-54 0 -97.5 -26.5 q-43.5 -26.5 -68.5 -73.5 q-25 -47 -25 -103 ZM193 380 l0 -341 q0 -19 12 -31 q12 -12 29 -12 l556 0 q19 0 29 12 q14 14 14 31 l0 341 q0 18 -14 30 q-11 13 -29 13 l-556 0 q-16 0 -29 -13 q-12 -11 -12 -30 Z" /><glyph glyph-name="uniE821" unicode="&#xe821;" d="M261 262 l239 251 q3 3 5.5 4 q2.5 1 7 1 q4.5 0 6.5 -1 q4 -2 5 -4 l239 -251 q4 -6 5 -9 q0 -8 -1 -11 q-4 -6 -7 -9 q-3 -3 -9 -3 l-478 0 q-4 0 -8 3 q-4 3 -8 9 q-1 3 -1 11 q1 3 5 9 Z" /><glyph glyph-name="uniE822" unicode="&#xe822;" d="M767 182 q-14 0 -24 10 q-10 10 -10 23 l0 319 l-451 -453 q-7 -6 -15.5 -9 q-8.5 -3 -17.5 -0.5 q-9 2.5 -15.5 8.5 q-6.5 6 -9 15 q-2.5 9 0.5 18 q3 9 9 15 l453 452 l-318 0 q-14 0 -23.5 9.5 q-9.5 9.5 -9.5 24 q0 14.5 9 23.5 q9 9 24 9 l398 0 q14 0 23.5 -9 q9.5 -9 9.5 -24 l0 -398 q0 -14 -9.5 -23.5 q-9.5 -9.5 -23.5 -9.5 Z" /><glyph glyph-name="uniE823" unicode="&#xe823;" d="M791 208 q2 2 6 7 l1 2 q2 4 2 12.5 q0 8.5 -2 12.5 l-1 2 q-4 5 -6 7 l-257 258 q-3 2 -8 6 l-2 1 q-4 2 -12 2 q-8 0 -11 -2 q-6 -3 -11 -7 l-257 -258 q-2 -2 -6 -7 l-1 -2 q-2 -9 -2 -13 q0 -4 2 -12 l1 -2 q4 -5 6.5 -7 q2.5 -2 7.5 -6 l2 -1 q8 -2 12.5 -2 q4.5 0 10.5 2.5 q6 2.5 10 6.5 l236 235 l236 -235 q4 -4 10 -6.5 q6 -2.5 10.5 -2.5 q4.5 0 12.5 2 l2 1 q5 4 8 6 Z" /><glyph glyph-name="uniE824" unicode="&#xe824;" d="M512 774 q38 0 74 -11 q36 -11 65 -34 q64 -46 85 -118 q12 -34 11 -71.5 q-1 -37.5 -13 -72.5 q-26 -73 -90 -115 q55 -20 101 -54 q46 -34 79 -80 q33 -46 52 -100.5 q19 -54.5 20 -110.5 q0 -8 -1.5 -12.5 q-1.5 -4.5 -7 -10.5 q-5.5 -6 -9.5 -7 q-7 -3 -12 -3 q-5 0 -13 3.5 q-8 3.5 -11 6 q-3 2.5 -7 10.5 q-2 6 -2 12 q-3 62 -28.5 118 q-25.5 56 -69.5 98.5 q-44 42.5 -102.5 65.5 q-58.5 23 -120.5 23 q-62 0 -120 -23 q-58 -23 -102.5 -65.5 q-44.5 -42.5 -69.5 -98.5 q-25 -56 -27 -118 q-2 -13 -11.5 -23 q-9.5 -10 -21.5 -8 q-15 0 -23.5 9.5 q-8.5 9.5 -8.5 22.5 q1 56 20 110.5 q19 54.5 52.5 100.5 q33.5 46 79.5 80 q46 34 100 54 q-31 21 -54 50.5 q-23 29.5 -35 64.5 q-12 35 -13.5 71.5 q-1.5 36.5 9.5 72 q11 35.5 33 66 q22 30.5 52 53 q30 22.5 66 33.5 q36 11 74 11 ZM341 543 q0 -33 13.5 -64.5 q13.5 -31.5 37.5 -55 q24 -23.5 55 -36 q31 -12.5 65 -12.5 q34 0 65.5 12.5 q31.5 12.5 55 36 q23.5 23.5 37 55 q13.5 31.5 13.5 65 q0 33.5 -13.5 64.5 q-13.5 31 -37 54.5 q-23.5 23.5 -55 36.5 q-31.5 13 -65.5 13 q-34 0 -65 -13 q-31 -13 -55 -36.5 q-24 -23.5 -37.5 -54.5 q-13.5 -31 -13.5 -65 Z" /><glyph glyph-name="uniE825" unicode="&#xe825;" d="M128 742 q0 34 24.5 59.5 q24.5 25.5 60.5 25.5 l426 0 q17 0 33 -6 q16 -6 27 -18 l172 -171 q25 -27 25 -61 l0 -597 q0 -33 -24.5 -59 q-24.5 -26 -60.5 -26 l-598 0 q-36 0 -60.5 26 q-24.5 26 -24.5 59 l0 768 ZM213 764 q-8 0 -14 -6 q-6 -6 -6 -16 l0 -768 q0 -9 6 -15 q6 -6 14 -6 l598 0 q10 0 14 6 q8 7 8 15 l0 534 l-171 0 q-34 0 -59.5 24.5 q-25.5 24.5 -25.5 60.5 l0 171 l-364 0 ZM640 764 l0 -171 q0 -9 7 -15.5 q7 -6.5 15 -6.5 l171 0 q-3 11 -8 15 l-171 172 q-6 6 -14 6 Z" /><glyph glyph-name="uniE826" unicode="&#xe826;" d="M213 764 q-8 0 -14 -6 q-6 -6 -6 -16 l0 -768 q0 -9 6 -15 q6 -6 14 -6 l75 0 q15 0 22 -9 q11 -11 11 -23 q0 -12 -11 -22 q-7 -10 -22 -10 l-75 0 q-36 0 -60.5 26 q-24.5 26 -24.5 59 l0 768 q0 34 24.5 59.5 q24.5 25.5 60.5 25.5 l426 0 q17 0 33 -6 q16 -6 27 -18 l172 -171 q25 -27 25 -61 l0 -597 q0 -33 -24.5 -59 q-24.5 -26 -60.5 -26 l-118 0 q-13 0 -22 9.5 q-9 9.5 -9 22.5 q0 13 9 22.5 q9 9.5 22 9.5 l118 0 q10 0 14 6 q8 7 8 15 l0 597 q0 2 -3 9 q-1 2 -5 6 l-171 172 q-2 3 -6.5 4.5 q-4.5 1.5 -8.5 1.5 l-426 0 ZM490 199 q0 11 9.5 21 q9.5 10 22.5 10 l43 0 q14 0 23 -9 q9 -9 9 -22.5 q0 -13.5 -9 -22.5 q-9 -9 -23 -9 l-43 0 q-13 0 -22.5 10 q-9.5 10 -9.5 22 ZM522 358 q-13 0 -22.5 -10 q-9.5 -10 -9.5 -21.5 q0 -11.5 9.5 -21.5 q9.5 -10 22.5 -10 l43 0 q14 0 23 9 q9 9 9 22.5 q0 13.5 -9 22.5 q-9 9 -23 9 l-43 0 ZM490 455 q0 11 9.5 21 q9.5 10 22.5 10 l43 0 q14 0 23 -9 q9 -9 9 -22.5 q0 -13.5 -9 -22.5 q-9 -9 -23 -9 l-43 0 q-13 0 -22.5 10 q-9.5 10 -9.5 22 ZM522 614 q-13 0 -22.5 -10 q-9.5 -10 -9.5 -21.5 q0 -11.5 9.5 -21.5 q9.5 -10 22.5 -10 l43 0 q14 0 23 9 q9 9 9 22.5 q0 13.5 -9 22.5 q-9 9 -23 9 l-43 0 ZM490 711 q0 11 9.5 21 q9.5 10 22.5 10 l43 0 q14 0 23 -9 q9 -9 9 -22.5 q0 -13.5 -9 -22.5 q-9 -9 -23 -9 l-43 0 q-13 0 -22.5 10 q-9.5 10 -9.5 22 ZM416 295 q-13 0 -23 -10 q-9 -7 -9 -21.5 q0 -14.5 9 -24 q9 -9.5 23 -9.5 l43 0 q13 0 22 9.5 q9 9.5 9 24 q0 14.5 -9 21.5 q-10 10 -22 10 l-43 0 ZM384 390 q0 16 9 23 q10 10 23 10 l43 0 q12 0 22 -10 q9 -7 9 -21.5 q0 -14.5 -9 -24 q-9 -9.5 -22 -9.5 l-43 0 q-14 0 -23 9.5 q-9 9.5 -9 22.5 ZM416 551 q-13 0 -23 -10 q-9 -7 -9 -21.5 q0 -14.5 9 -24 q9 -9.5 23 -9.5 l43 0 q13 0 22 9.5 q9 9.5 9 24 q0 14.5 -9 21.5 q-10 10 -22 10 l-43 0 ZM384 646 q0 16 9 23 q10 10 23 10 l43 0 q12 0 22 -10 q9 -7 9 -21.5 q0 -14.5 -9 -24 q-9 -9.5 -22 -9.5 l-43 0 q-14 0 -23 9.5 q-9 9.5 -9 22.5 ZM469 145 l43 0 q35 0 60 -25 q13 -11 19 -27 q6 -16 6 -34 l0 -181 q0 -13 -9 -22.5 q-9 -9.5 -23 -9.5 l-149 0 q-14 0 -23 9.5 q-9 9.5 -9 22.5 l0 181 q0 17 6.5 33.5 q6.5 16.5 18.5 27.5 q25 25 60 25 ZM449 59 l0 -149 l85 0 l0 149 q0 10 -6.5 16 q-6.5 6 -15.5 6 l-43 0 q-8 0 -14 -6 q-6 -6 -6 -16 Z" /><glyph glyph-name="uniE827" unicode="&#xe827;" d="M512 679 q13 0 23 -10 q10 -10 10 -24 l0 -254 l254 0 q14 0 24 -9.5 q10 -9.5 10 -23 q0 -13.5 -10 -23 q-10 -9.5 -24 -9.5 l-254 0 l0 -254 q0 -15 -9.5 -24 q-9.5 -9 -23.5 -9 q-14 0 -23.5 9 q-9.5 9 -9.5 24 l0 254 l-254 0 q-14 0 -23 9 q-9 9 -9 23.5 q0 14.5 9 23.5 q9 9 23 9 l254 0 l0 254 q0 14 10 24 q10 10 23 10 Z" /><glyph glyph-name="uniE828" unicode="&#xe828;" d="M249 68 q0 25 18 43 q18 18 43.5 18 q25.5 0 44 -18 q18.5 -18 18.5 -43.5 q0 -25.5 -18.5 -43.5 q-18.5 -18 -44 -18 q-25.5 0 -43.5 18 q-18 18 -18 44 ZM682 68 q0 25 18 43 q18 18 43.5 18 q25.5 0 44 -18 q18.5 -18 18.5 -43.5 q0 -25.5 -18.5 -43.5 q-18.5 -18 -44 -18 q-25.5 0 -43.5 18 q-18 18 -18 44 ZM32 712 q0 13 9 21.5 q9 8.5 22 8.5 l123 0 q12 0 21 -7 q9 -7 10 -18 l88 -496 l469 0 q13 0 22.5 -8.5 q9.5 -8.5 9.5 -22 q0 -13.5 -9.5 -22 q-9.5 -8.5 -22.5 -8.5 l-494 0 q-12 0 -20.5 7 q-8.5 7 -10.5 18 l-88 496 l-98 0 q-13 0 -22 9 q-9 9 -9 22 ZM817 650 q12 0 20.5 -4 q8.5 -4 16 -12 q7.5 -8 9.5 -17.5 q2 -9.5 0 -21.5 l-55 -276 q-5 -16 -16.5 -26 q-11.5 -10 -29.5 -10 l-482 0 q-14 0 -22.5 8.5 q-8.5 8.5 -8.5 21.5 q0 13 8.5 22 q8.5 9 22.5 9 l470 0 l49 245 l-581 0 q-13 0 -22.5 9 q-9.5 9 -9.5 22 q0 13 9.5 21.5 q9.5 8.5 22.5 8.5 l599 0 Z" /><glyph glyph-name="uniE829" unicode="&#xe829;" d="M154 717 l0 -717 l716 0 l0 717 l-716 0 ZM112 759 q17 15 39 15 l722 0 q24 0 39.5 -15.5 q15.5 -15.5 15.5 -38.5 l0 -723 q0 -24 -15.5 -39 q-15.5 -15 -39.5 -15 l-722 0 q-22 0 -38.5 15 q-16.5 15 -16.5 39 l0 723 q0 23 16 39 ZM593 602 q55 0 104 -24 q11 -6 14.5 -17 q3.5 -11 -1.5 -22 q-5 -11 -16.5 -14.5 q-11.5 -3.5 -22.5 1.5 q-40 19 -78 19 q-55 0 -100.5 -32 q-45.5 -32 -66.5 -83 l172 0 q12 0 20.5 -8 q8.5 -8 8.5 -20.5 q0 -12.5 -8.5 -20.5 q-8.5 -8 -20.5 -8 l-185 0 l-1 -15 l1 -14 l185 0 q12 0 20.5 -8 q8.5 -8 8.5 -20.5 q0 -12.5 -8.5 -20.5 q-8.5 -8 -20.5 -8 l-172 0 q21 -51 66.5 -83 q45.5 -32 100.5 -32 q39 0 78 19 q10 6 22 2 q12 -4 17 -15 q5 -11 1.5 -22.5 q-3.5 -11.5 -14.5 -16.5 q-49 -24 -103 -24 q-54 0 -101 22 q-47 22 -80.5 61.5 q-33.5 39.5 -47.5 88.5 l-25 0 q-12 0 -20.5 8 q-8.5 8 -8.5 20.5 q0 12.5 8.5 20.5 q8.5 8 20.5 8 l14 0 l0 29 l-14 0 q-12 0 -20.5 8 q-8.5 8 -8.5 20.5 q0 12.5 8.5 20.5 q8.5 8 20.5 8 l25 0 q14 49 47.5 88.5 q33.5 39.5 80.5 61.5 q47 22 100 22 Z" /><glyph glyph-name="uniE82A" unicode="&#xe82a;" d="M471 760 q17 15 41.5 15 q24.5 0 40.5 -15 l320 -272 q11 -8 17 -20.5 q6 -12.5 6 -27.5 l0 -401 q0 -25 -18.5 -44.5 q-18.5 -19.5 -44.5 -19.5 l-246 0 q-14 0 -23 9.5 q-9 9.5 -9 22.5 l0 266 l-86 0 l0 -266 q0 -13 -9 -22.5 q-9 -9.5 -23 -9.5 l-244 0 q-28 0 -46.5 19.5 q-18.5 19.5 -18.5 44.5 l0 401 q0 29 23 48 l320 272 ZM512 712 l-319 -272 l0 -401 l213 0 l0 266 q0 16 9 23 q10 10 22 10 l150 0 q12 0 22 -10 q9 -7 9 -23 l0 -266 l215 0 l0 401 l-321 272 Z" /><glyph glyph-name="uniE82B" unicode="&#xe82b;" d="M814 807 q14 0 24 -10 q10 -10 10 -24 l0 -540 q0 -13 -10 -23 q-10 -10 -24 -10 l-235 0 q-14 0 -24 10 q-10 10 -10 23 l0 83 q0 15 -10 24.5 q-10 9.5 -24 9.5 l-238 0 q-13 0 -22.5 9.5 q-9.5 9.5 -10.5 22.5 l0 391 q0 14 10 24 q10 10 23 10 l541 0 ZM572 489 q-9 0 -15.5 -6 q-6.5 -6 -8.5 -15 l0 -101 q0 -10 6 -16.5 q6 -6.5 15 -8.5 l102 0 q9 0 16 6 q7 6 8 16 l0 101 q0 9 -6 15.5 q-6 6.5 -14 8.5 l-103 0 ZM297 218 q0 10 7 17.5 q7 7.5 18 7.5 l99 0 q10 0 17 -7.5 q7 -7.5 7 -17.5 l0 -98 q0 -10 -7 -17.5 q-7 -7.5 -17 -7.5 l-99 0 q-11 0 -18 7.5 q-7 7.5 -7 17.5 l0 98 ZM48 157 q0 10 7 17 q7 7 18 7 l95 0 q10 0 17.5 -7 q7.5 -7 7.5 -17 l0 -96 q0 -10 -7.5 -17 q-7.5 -7 -17.5 -7 l-95 0 q-11 0 -18 7 q-7 7 -7 17 l0 96 ZM238 -31 q0 11 7 18 q7 7 17 7 l98 0 q11 0 18 -7 q7 -7 7 -18 l0 -98 q0 -10 -7 -17.5 q-7 -7.5 -18 -7.5 l-98 0 q-10 0 -17 7.5 q-7 7.5 -7 17.5 l0 98 Z" /><glyph glyph-name="uniE82C" unicode="&#xe82c;" d="M839 742 q22 0 38.5 -14 q16.5 -14 18.5 -37 l0 -661 q0 -23 -15.5 -38.5 q-15.5 -15.5 -36.5 -17.5 l-660 0 q-21 0 -37.5 14.5 q-16.5 14.5 -18.5 37.5 l0 661 q0 23 15.5 38 q15.5 15 36.5 17 l659 0 ZM653 464 l-7 0 q-33 2 -62 -15 q-25 -13 -41 -37 l-6 -8 l0 51 l-110 0 l0 -367 l114 0 l0 181 q0 43 12 66 q15 29 56 29 q30 0 44 -19 q12 -15 15 -43 l0 -9 l1 -9 l0 -196 l113 0 l0 227 q-1 4 -1 13 l-1 12 q-7 58 -32 87 q-32 35 -95 37 ZM355 455 l-113 0 l0 -367 l113 0 l0 367 ZM299 637 q-28 0 -47.5 -19.5 q-19.5 -19.5 -19.5 -46.5 q0 -27 19.5 -46.5 q19.5 -19.5 46.5 -19.5 q27 0 48 19 q19 19 19 46.5 q0 27.5 -19 47 q-19 19.5 -47 19.5 Z" /><glyph glyph-name="uniE82D" unicode="&#xe82d;" d="M893 605 q3 -7 3 -14 l0 -473 q0 -20 -14 -33.5 q-14 -13.5 -34 -13.5 l-672 0 q-18 0 -33 13.5 q-15 13.5 -15 33.5 l0 473 q0 3 1 9 l1 2 l346 -340 q13 -13 33.5 -13 q20.5 0 34.5 13 l349 343 ZM350 322 l-175 -170 l0 -34 l34 0 l175 171 l-34 33 ZM673 322 l-34 -33 l175 -171 l34 0 l-1 34 l-174 170 ZM851 646 l-341 -356 l-339 354 q8 2 12 2 l668 0 Z" /><glyph glyph-name="uniE82E" unicode="&#xe82e;" d="M896 16 q0 -17 -12.5 -29.5 q-12.5 -12.5 -29.5 -12.5 l-196 0 l0 297 l100 0 l15 117 l-115 0 l0 74 q0 28 11 41 q13 15 47 15 l61 0 l0 104 q-10 2 -33 3 q-27 2 -57 2 q-67 0 -107.5 -40.5 q-40.5 -40.5 -40.5 -113.5 l0 -85 l-101 0 l0 -117 l101 0 l0 -297 l-369 0 q-17 0 -29.5 12.5 q-12.5 12.5 -12.5 29.5 l0 684 q0 18 12.5 30 q12.5 12 29.5 12 l684 0 q17 0 29.5 -12 q12.5 -12 12.5 -30 l0 -684 Z" /><glyph glyph-name="uniE82F" unicode="&#xe82f;" d="M889 433 l-31 0 l0 2 l-346 0 l0 -153 l217 0 q-24 -68 -83.5 -111 q-59.5 -43 -133.5 -43 q-62 0 -115 31 q-53 31 -84 84 q-31 53 -31 115.5 q0 62.5 31 115 q31 52.5 84 84 q53 31.5 115 31.5 q43 0 82.5 -15.5 q39.5 -15.5 70.5 -43.5 l108 109 q-52 49 -118 76 q-68 27 -143 27 q-104 0 -194 -52 q-87 -51 -138 -138 q-52 -89 -52 -193.5 q0 -104.5 52 -193.5 q51 -87 138 -138 q90 -53 194 -53 q104 0 194 53 q87 51 138 138 q52 89 52 193 q0 34 -7 75 ZM172 538 l126 -94 q27 65 84.5 105 q57.5 40 129.5 40 q43 0 82.5 -15.5 q39.5 -15.5 70.5 -43.5 l108 109 q-52 49 -118 76 q-68 27 -143 27 q-109 0 -201 -56 q-90 -55 -139 -148 ZM512 -26 q73 0 140 27 q65 26 117 73 l-119 101 q-61 -47 -138 -47 q-74 0 -133.5 42.5 q-59.5 42.5 -83.5 110.5 l-125 -97 q48 -95 139 -151 q92 -59 203 -59 ZM889 433 l-31 0 l0 2 l-346 0 l0 -153 l217 0 q-23 -67 -79 -107 l119 -101 q-7 -6 3 2 q6 5 13 12 q11 10 21 23 q12 14 23 30 q14 20 25 41 q12 25 22 50 q9 29 14 59 q6 33 6 67 q0 34 -7 75 Z" /><glyph glyph-name="uniE830" unicode="&#xe830;" d="M512 742 q104 0 194 -48 q87 -47 138 -128 q52 -83 52 -178.5 q0 -95.5 -51 -177.5 q-49 -80 -134 -127 q-87 -49 -189 -51 l-10 0 q-50 0 -97 11 l-14 3 l-130 -72 l0 136 l-1 1 q-66 48 -104 120 q-36 71 -38 156 q0 96 52 179 q51 81 138 128 q90 48 194 48 ZM760 486 l-189 -104 l-100 104 l-210 -222 l192 104 l97 -105 l210 223 Z" /><glyph glyph-name="uniE831" unicode="&#xe831;" d="M703 45 q-45 -22 -77 -30 q-35 -9 -76 -9 q-46 0 -81 12.5 q-35 12.5 -60.5 35 q-25.5 22.5 -36 47.5 q-10.5 25 -10.5 74 l0 247 l-74 0 l0 99 q38 14 68 39 q30 28 45 61 q18 36 24 90 l96 0 l0 -179 l161 0 l0 -110 l-161 0 l0 -180 q0 -62 6.5 -79 q6.5 -17 23.5 -28 q23 -14 51 -14 q50 0 103 35 l0 -111 l-2 0 Z" /><glyph glyph-name="uniE832" unicode="&#xe832;" d="M511 742 q77 0 147 -29 q70 -29 124.5 -82.5 q54.5 -53.5 84 -125 q29.5 -71.5 29.5 -147.5 q0 -103 -52 -193 q-51 -87 -139 -138 q-90 -53 -194 -53 q-109 0 -196 54 l-14 7 l-144 -37 l39 142 l-11 15 q-27 45 -42 96.5 q-15 51.5 -15 104.5 q-1 105 51 195 q51 87 138 138 q90 53 194 53 ZM381 565 l-27 0 l-5 -1 l-2 -1 q-3 0 -5 -1 l-2 0 l-2 -2 q-4 -2 -5 -3 l-2 -2 l-7 -4 l-2 -2 q-3 -2 -4 -3 l-3 -5 q-3 -3 -4 -5 q-26 -33 -26 -74 q0 -25 9 -48 l3 -7 l2 -8 q30 -62 79 -112 l19 -20 l4 -3 l8 -7 q6 -5 8 -9 q72 -62 161 -87 l20 -6 l4 0 l12 -3 l24 0 q16 0 37 10 q4 2 5 3 l3 1 l6 3 l17 15 q2 1 5 4 q7 7 11.5 14.5 q4.5 7.5 8.5 25.5 l1 9 l0 16 l-3 2 q0 1 -2 1 l-2 2 l-62 28 l-20 9 q-5 2 -7 3 l-3 2 l-4 1 q-6 0 -15 -4 l-2 -1 l-37 -41 q-3 -5 -9 -7 l-5 0 q-3 0 -7 4 l-14 6 q-36 15 -63 38 l-10 9 l-8 8 l-6 4 q-26 26 -40 50 l-11 16 l-1 5 q-1 0 -1 2 q0 7 1 10 l1 2 l7 7 l6 7 l5 5 q1 2 4 5 l1 3 q4 6 6 8 q4 5 5.5 12.5 q1.5 7.5 -0.5 12.5 l-5 15 l-30 69 l-4 7 q-5 7 -13 10 l-3 2 Z" /><glyph glyph-name="uniE833" unicode="&#xe833;" d="M128 358 q0 -77 30 -147 q28 -69 80 -121.5 q52 -52.5 120 -82.5 q-4 47 7 88 l49 209 l-3 8 q-4 10 -7 21 q-3 15 -3 32 q0 43 22 71 q22 28 53 28 q25 0 38 -16 q13 -16 13 -41 q0 -15 -5 -37 q-4 -15 -13 -44 q-11 -37 -15 -56 q-8 -30 10.5 -51.5 q18.5 -21.5 49.5 -21.5 q36 0 63.5 27.5 q27.5 27.5 43 74 q15.5 46.5 15.5 101.5 q0 66 -41 106 q-43 42 -119 42 q-56 0 -100 -27 q-42 -23 -65 -65.5 q-23 -42.5 -23 -91.5 q0 -46 24 -75 q5 -6 6.5 -10.5 q1.5 -4.5 -0.5 -11.5 l-8 -30 q-1 -8 -6.5 -10.5 q-5.5 -2.5 -12.5 -0.5 q-39 17 -60 58 q-19 38 -19 90 q0 57 31 110 q32 58 91 91 q66 38 152 38 q72 0 129 -31 q54 -30 84.5 -80.5 q30.5 -50.5 30.5 -108.5 q0 -75 -26 -134.5 q-26 -59.5 -73 -94 q-47 -34.5 -108 -34.5 q-31 0 -57.5 14.5 q-26.5 14.5 -36.5 33.5 l-27 -105 q-9 -35 -39 -83 q53 -16 109 -16 q104 0 194 53 q87 51 138 138 q52 89 52 193.5 q0 104.5 -52 193.5 q-51 87 -138 138 q-90 52 -194 52 q-104 0 -194 -52 q-87 -51 -138 -138 q-52 -89 -52 -194 Z" /><glyph glyph-name="uniE834" unicode="&#xe834;" d="M863 530 q-5 -108 -156 -296 q-155 -195 -265 -195 q-67 0 -113 119 l-63 219 q-34 120 -73 120 q-5 0 -20 -10 q-11 -6 -41 -25 l-36 44 l112 96 q76 64 114 67 q90 9 110 -118 q23 -135 31 -170 q26 -113 57 -113 q24 0 72.5 73.5 q48.5 73.5 51.5 112.5 q8 63 -51 63 q-28 0 -57 -12 q57 179 216 173 q119 -3 111 -148 Z" /><glyph glyph-name="uniE835" unicode="&#xe835;" d="M815 645 q5 6 8 13 q2 11 2 16 q-2 10 -4 15 q-6 8 -9 11 q-3 3 -11 8 l-2 1 q-11 2 -16 2 q-10 -2 -15 -4 q-7 -4 -11 -10 l-201 -228 l-169 226 q-8 8 -14 12 q-11 4 -18 4 l-156 0 q-12 0 -20 -6 q-8 -6 -15 -16 q-4 -9 -3 -21 q1 -12 7 -20 l252 -336 l-211 -240 q-4 -6 -8 -14 q-2 -10 -1 -15 q0 -8 3 -14 q5 -9 10 -13 q3 -3 10 -7 l2 -1 q11 -2 16 -2 q10 2 14.5 4 q4.5 2 11.5 9 l201 229 l169 -225 q7 -9 14 -13 q11 -4 18 -4 l156 0 q12 0 21.5 6.5 q9.5 6.5 13.5 15.5 q4 9 3 20.5 q-1 11.5 -7 20.5 l-252 335 l211 241 ZM688 85 l-410 547 l58 0 l410 -547 l-58 0 Z" /><glyph glyph-name="uniE836" unicode="&#xe836;" d="M445 613 l51 1 l35 0 l42 -1 l37 0 l87 -3 l64 -4 l15 -2 q24 -3 35 -6 q26 -6 43 -26 q17 -15 26 -43 q17 -73 16 -185 q-1 -102 -16 -188 q-7 -24 -25 -44 q-20 -19 -43 -25 q-13 -4 -38 -6 l-16 -2 l-19 -1 l-18 -2 l-95 -4 l-51 -1 l-129 0 l-77 2 l-81 4 l-21 2 q-36 3 -54 8 q-25 6 -42.5 24 q-17.5 18 -26.5 45 q-18 71 -16 185 q1 99 16 187 q7 24 25 44 q17 18 43 26 q20 5 58 8 l22 1 l23 2 q9 0 13 1 l117 3 ZM435 459 l0 -233 l199 116 l-199 117 Z" /><glyph glyph-name="uniE837" unicode="&#xe837;" d="M512 807 q-122 0 -226 -62 q-102 -59 -160 -160 q-61 -105 -61 -226.5 q0 -121.5 61 -226.5 q58 -101 160 -161 q104 -61 226 -61 q122 0 226 61 q102 60 161 161 q62 105 62 226.5 q0 121.5 -62 226.5 q-59 101 -161 160 q-104 62 -226 62 ZM512 -26 q-104 0 -194 53 q-87 51 -138 138 q-52 89 -52 193.5 q0 104.5 52 193.5 q51 87 138 138 q90 52 194 52 q104 0 194 -52 q87 -51 138 -138 q52 -89 52 -193.5 q0 -104.5 -52 -193.5 q-51 -87 -138 -138 q-90 -53 -194 -53 ZM349 550 q-12 0 -20 -9 q-8 -9 -8 -21 q0 -12 8 -20 l141 -142 l-141 -141 q-8 -8 -8 -20 q0 -12 8.5 -20.5 q8.5 -8.5 19.5 -8.5 q11 0 22 8 l141 140 l141 -140 q5 -6 13 -8.5 q8 -2.5 16 0 q8 2.5 13 7.5 q5 5 8 13 q4 7 0.5 15.5 q-3.5 8.5 -9.5 13.5 l-141 141 l141 142 q6 5 9 12.5 q3 7.5 1 15 q-2 7.5 -9 14.5 q-5 5 -13 7.5 q-8 2.5 -16 0 q-8 -2.5 -13 -8.5 l-141 -141 l-141 141 q-10 9 -22 9 Z" /></font>
</defs>
</svg>
