<svg style="position: absolute; width: 0; height: 0;" width="0" height="0" version="1.1" xmlns="http://www.w3.org/2000/svg" xmlns:xlink="http://www.w3.org/1999/xlink"><defs><symbol id="alert-full" viewBox="0 -212 1024 1024"><path d="M46 649.75 q-19 33 -12 70.5 q7 37.5 35.5 62 q28.5 24.5 67.5 24.5 l750 0 q39 0 67.5 -24.5 q28.5 -24.5 35.5 -62 q7 -37.5 -12 -70.5 l-376 -654 q-19 -34 -54.5 -46.5 q-35.5 -12.5 -71 0 q-35.5 12.5 -54.5 46.5 l-376 654 ZM512 553.75 q15 0 28.5 12.5 q13.5 12.5 13.5 30.5 q0 18 -13.5 30 q-13.5 12 -28.5 12 q-15 0 -28.5 -12 q-13.5 -12 -13.5 -30 q0 -18 13.5 -30.5 q13.5 -12.5 28.5 -12.5 ZM512 217.75 q13 0 22 8.5 q9 8.5 9 18.5 l1 4 l0 190 l-1 4 q0 10 -9 18.5 q-9 8.5 -22 8.5 q-13 0 -23 -9 q-7 -8 -8 -18 l-1 -4 l0 -190 l1 -4 q1 -10 8 -18 q10 -9 23 -9 Z"></path></symbol><symbol id="alert" viewBox="0 -212 1024 1024"><path d="M512 553.75 q-15 0 -28.5 12.5 q-13.5 12.5 -13.5 30.5 q0 18 13.5 30 q13.5 12 28.5 12 q15 0 28.5 -12 q13.5 -12 13.5 -30 q0 -18 -13.5 -30.5 q-13.5 -12.5 -28.5 -12.5 ZM512 217.75 q-13 0 -22.5 10 q-9.5 10 -9.5 21 l0 190 q0 11 9.5 21 q9.5 10 22.5 10 q13 0 22.5 -10 q9.5 -10 9.5 -21 l0 -190 q0 -11 -9.5 -21 q-9.5 -10 -22.5 -10 ZM46 649.75 q-19 33 -12 70.5 q7 37.5 35.5 62 q28.5 24.5 67.5 24.5 l750 0 q39 0 67.5 -24.5 q28.5 -24.5 35.5 -62 q7 -37.5 -12 -70.5 l-376 -654 q-19 -34 -54.5 -46.5 q-35.5 -12.5 -71 0 q-35.5 12.5 -54.5 46.5 l-376 654 ZM512 6.75 q11 0 21 5 q10 5 15 16 l376 653 q5 11 5 21.5 q0 10.5 -5.5 20.5 q-5.5 10 -14 15.5 q-8.5 5.5 -22.5 5.5 l-750 0 q-13 0 -22 -5.5 q-9 -5.5 -14.5 -15.5 q-5.5 -10 -5.5 -20.5 q0 -10.5 5 -21.5 l376 -653 q5 -11 15 -16 q10 -5 21 -5 Z"></path></symbol><symbol id="arrow-left" viewBox="0 -212 1024 1024"><path d="M442 72.8 q-7 1 -14 8 l-259 257 q-9 9 -9 22 q0 13 9 22 l259 256 q9 9 23 9 q14 0 22 -8.5 q8 -8.5 8 -21.5 q0 -13 -9 -22 l-206 -205 l599 0 q12 0 21.5 -8.5 q9.5 -8.5 9.5 -21.5 q0 -13 -9 -22 q-9 -9 -22 -9 l-599 0 l206 -204 q6 -6 8 -13.5 q2 -7.5 0.5 -16.5 q-1.5 -9 -7.5 -15 q-6 -6 -14 -8 q-8 -2 -17 1 Z"></path></symbol><symbol id="calendar" viewBox="0 -212 1024 1024"><path d="M736 -90 q-13 0 -22 9 q-9 9 -9 22 l0 97 l-384 0 l0 -97 q0 -12 -11 -22 q-7 -9 -21.5 -9 q-14.5 0 -23.5 9 q-9 9 -9 22 l0 97 l-118 0 q-30 0 -51.5 22 q-21.5 22 -21.5 52 l0 683 q0 16 5.5 29 q5.5 13 15.5 24 q23 22 52 22 l748 0 q14 0 28 -6 q14 -6 24 -16.5 q10 -10.5 16.5 -24 q6.5 -13.5 6.5 -28.5 l0 -683 q0 -30 -22.5 -52 q-22.5 -22 -52.5 -22 l-118 0 l0 -97 q0 -13 -9 -22 q-9 -9 -23 -9 ZM128 315 l768 0 l0 480 q0 4 -3 7.5 q-3 3.5 -7 3.5 l-748 0 q-4 0 -7 -3.5 q-3 -3.5 -3 -7.5 l0 -480 ZM886 101 q3 0 7 4 q3 1 3 7 l0 139 l-768 0 l0 -139 q0 -6 3 -7 q4 -4 7 -4 l748 0 Z"></path></symbol><symbol id="campaign" viewBox="0 -212 1024 1024"><path d="M905 -99.8 q-8 0 -16 5 l-6 3 q-11 7 -21 11 q-36 18 -86 36 q-154 52 -339 52 l-159 0 q-44 0 -83.5 15 q-39.5 15 -72 43.5 q-32.5 28.5 -52.5 66 q-20 37.5 -25.5 80 q-5.5 42.5 3.5 85 q9 42.5 32 78.5 q23 36 57.5 61.5 q34.5 25.5 75.5 36.5 l0 20 q0 87 17 174 q12 59 29 111 q7 23 26 36 q19 13 42 13 l86 0 q26 0 46 -16 q20 -16 28 -41 q8 -25 -1 -48 q-39 -124 -39 -240 l0 -4 q100 1 191 18 q74 13 138 36 q46 16 85 37 q3 1 10 5 l1 1 q16 10 25 13 q13 4 25 -2 q7 -3 11.5 -11 q4.5 -8 4.5 -18 l0 -626 q0 -9 -4 -16.5 q-4 -7.5 -12 -11.5 q-11 -4 -17 -3 ZM278 482.2 l106 0 q0 73 13 148 q12 59 29 111 l0 3 q1 3 0.5 6.5 q-0.5 3.5 -3.5 6.5 q-4 6 -10 6 l-86 0 q-3 0 -5.5 -1.5 q-2.5 -1.5 -2.5 -3.5 q-16 -46 -26 -104 q-15 -80 -15 -161 l0 -11 ZM874 503.2 q-33 -16 -76 -32 q-158 -56 -351 -57 l0 -342 q106 -1 202 -18 q79 -14 148 -38 q51 -18 77 -30 l0 517 ZM384 72.2 l0 345 l-106 0 q-34 0 -66 -13 q-32 -13 -55.5 -37.5 q-23.5 -24.5 -37 -56.5 q-13.5 -32 -13.5 -66 q0 -34 13.5 -66 q13.5 -32 37 -56 q23.5 -24 55.5 -37 q32 -13 66 -13 l106 0 Z"></path></symbol><symbol id="cart" viewBox="0 -212 1024 1024"><path d="M310 619 q-25 0 -43 18 q-18 18 -18 43.5 q0 25.5 18 43.5 q18 18 43.5 18 q25.5 0 44 -18 q18.5 -18 18.5 -43.5 q0 -25.5 -18.5 -43.5 q-18.5 -18 -44.5 -18 ZM743 619 q-25 0 -43 18 q-18 18 -18 43.5 q0 25.5 18 43.5 q18 18 43.5 18 q25.5 0 44 -18 q18.5 -18 18.5 -43.5 q0 -25.5 -18.5 -43.5 q-18.5 -18 -44.5 -18 ZM63 6 q-13 0 -22 8.5 q-9 8.5 -9 21.5 q0 13 9 22 q9 9 22 9 l98 0 l88 496 q2 11 10.5 18 q8.5 7 20.5 7 l494 0 q13 0 22.5 -8.5 q9.5 -8.5 9.5 -22 q0 -13.5 -9.5 -22 q-9.5 -8.5 -22.5 -8.5 l-469 0 l-10 -62 l467 0 q18 0 29.5 -10 q11.5 -10 16.5 -26 l55 -276 q2 -12 0 -21.5 q-2 -9.5 -9.5 -17.5 q-7.5 -8 -16 -12 q-8.5 -4 -20.5 -4 l-588 0 l-12 -67 q-1 -11 -10 -18 q-9 -7 -21 -7 l-123 0 ZM240 159 l559 0 l-49 245 l-466 0 l-44 -245 Z"></path></symbol><symbol id="charts" viewBox="0 -212 1024 1024"><path d="M593 115 q-53 0 -100 22 q-47 22 -80.5 61.5 q-33.5 39.5 -47.5 88.5 l-25 0 q-12 0 -20.5 8 q-8.5 8 -8.5 20.5 q0 12.5 8.5 20.5 q8.5 8 20.5 8 l14 0 l0 29 l-14 0 q-12 0 -20.5 8 q-8.5 8 -8.5 20.5 q0 12.5 8.5 20.5 q8.5 8 20.5 8 l25 0 q14 49 47.5 88.5 q33.5 39.5 80.5 61.5 q47 22 101 22 q54 0 103 -24 q11 -5 14.5 -16.5 q3.5 -11.5 -1.5 -22.5 q-5 -11 -17 -15 q-12 -4 -22 2 q-37 19 -78 19 q-55 0 -100.5 -32 q-45.5 -32 -66.5 -83 l172 0 q12 0 20.5 -8 q8.5 -8 8.5 -20.5 q0 -12.5 -8.5 -20.5 q-8.5 -8 -20.5 -8 l-185 0 l-1 -14 l1 -15 l185 0 q12 0 20.5 -8 q8.5 -8 8.5 -20.5 q0 -12.5 -8.5 -20.5 q-8.5 -8 -20.5 -8 l-172 0 q21 -51 66.5 -83 q45.5 -32 100.5 -32 q38 0 78 19 q11 5 22.5 1.5 q11.5 -3.5 16.5 -14.5 q5 -11 1.5 -22 q-3.5 -11 -14.5 -17 q-49 -24 -104 -24 ZM151 -57 q-22 0 -38.5 15.5 q-16.5 15.5 -16.5 38.5 l0 723 q0 24 16.5 39 q16.5 15 38.5 15 l722 0 q24 0 39.5 -15 q15.5 -15 15.5 -39 l0 -723 q0 -23 -15.5 -38.5 q-15.5 -15.5 -39.5 -15.5 l-722 0 ZM154 0 l716 0 l0 717 l-716 0 l0 -717 Z"></path></symbol><symbol id="clear" viewBox="0 -212 1024 1024"><path d="M544 307 l-100 -99 q-11 -11 -27.5 -11 q-16.5 0 -27.5 11 q-11 11 -11 27.5 q0 16.5 11 27.5 l99 99 l-99 99 q-11 11 -11 27.5 q0 16.5 11 28 q11 11.5 27.5 11.5 q16.5 0 27.5 -12 l100 -99 l99 99 q11 12 27.5 12 q16.5 0 28 -11.5 q11.5 -11.5 11.5 -28 q0 -16.5 -12 -27.5 l-99 -99 l99 -99 q12 -11 12 -27.5 q0 -16.5 -11.5 -27.5 q-11.5 -11 -28 -11 q-16.5 0 -27.5 11 l-99 99 ZM319 39 q-21 0 -40 8.5 q-19 8.5 -31 24.5 q-3 3 -3 4 l-174 262 q-8 10 -8 21.5 q0 11.5 8 21.5 l173 260 q2 4 4 6 q12 16 32 24 q16 8 39 8 l482 0 q40 0 67 -28 q14 -13 21 -30.5 q7 -17.5 7 -36.5 l0 -450 q0 -18 -7 -35.5 q-7 -17.5 -21 -30.5 q-26 -27 -67 -29 l-482 0 ZM801 118 q5 0 11 5 q6 5 6 12 l0 449 q0 7 -6 12 q-6 5 -11 5 l-482 0 q-5 0 -7 -1 l-5 -3 l-156 -237 l156 -238 l5 -3 q2 -1 7 -1 l482 0 Z"></path></symbol><symbol id="check" viewBox="0 -212 1024 1024"><path d="M896 71 q-14 0 -24 9 l-473 485 l-215 -229 q-4 -5 -10 -8 q-6 -3 -12 -3 q-9 0 -13.5 1.5 q-4.5 1.5 -10.5 7.5 q-6 6 -7 10 q-3 6 -3 12.5 q0 6.5 2 14.5 q3 6 7 10 l239 255 q3 4 10.5 7 q7.5 3 11.5 3 q4 0 12.5 -3 q8.5 -3 11.5 -6 l497 -510 q9 -9 9 -23.5 q0 -14.5 -9.5 -23.5 q-9.5 -9 -22.5 -9 Z"></path></symbol><symbol id="close" viewBox="0 -212 1024 1024"><path d="M730 103.81 q-8 3 -13 8 l-205 205 l-206 -205 q-8 -8 -20 -8 q-12 0 -22 8 q-8 10 -8 21 q0 11 8 21 l206 205 l-206 204 q-7 9 -7 21 q0 12 7.5 20 q7.5 8 20.5 9 q13 1 21 -8 l206 -204 l205 204 q5 6 13 8 q8 2 15 1 q7 -1 15 -8 q6 -8 7.5 -15 q1.5 -7 -1 -14.5 q-2.5 -7.5 -7.5 -13.5 l-206 -204 l206 -205 q5 -5 7.5 -13.5 q2.5 -8.5 1 -15 q-1.5 -6.5 -7.5 -14.5 q-8 -6 -15 -7.5 q-7 -1.5 -15 0.5 Z"></path></symbol><symbol id="down-full" viewBox="0 -212 1024 1024"><path d="M273 199 q-4 0 -8 2.5 q-4 2.5 -8 8.5 q-1 3 -1 11 q1 3 5 9 l239 251 q3 3 5.5 4 q2.5 1 7 1 q4.5 0 6.5 -1 q4 -2 5 -4 l239 -251 q4 -6 5 -9 q0 -8 -1 -11 q-4 -6 -7 -8.5 q-3 -2.5 -9 -2.5 l-478 0 Z"></path></symbol><symbol id="down-left" viewBox="0 -212 1024 1024"><path d="M767 71 q-12 0 -23 8 l-453 454 l0 -319 q0 -13 -10.5 -23.5 q-10.5 -10.5 -23.5 -10.5 q-13 0 -23 10 q-10 10 -10 24 l0 400 q0 14 9.5 23 q9.5 9 23.5 9 l399 0 q15 0 24.5 -9.5 q9.5 -9.5 9.5 -23 q0 -13.5 -10 -23.5 q-10 -10 -24 -10 l-318 0 l454 -454 q8 -10 8 -23.5 q0 -13.5 -9.5 -22.5 q-9.5 -9 -23.5 -9 Z"></path></symbol><symbol id="edit" viewBox="0 -212 1024 1024"><path d="M790 -89.64 q-31 0 -54 23 l-119 119 l-460 439 q-16 15 -20 33 l-71 234 q-4 8 -1 16.5 q3 8.5 9 15 q6 6.5 14.5 9 q8.5 2.5 16.5 -0.5 l236 -72 q17 -5 30 -17 l462 -441 l1 0 l118 -120 q11 -10 17 -24 q6 -14 6 -28 q0 -31 -23 -54 l-110 -109 q-11 -10 -24.5 -16.5 q-13.5 -6.5 -27.5 -6.5 ZM640 119.36 l125 125 l-438 419 q-2 2 -4 2 l-179 54 l54 -177 q1 -2 3 -4 l439 -419 ZM790 -24.64 q3 0 4 0.5 q1 0.5 3 2.5 l110 110 q2 2 2.5 3.5 q0.5 1.5 0.5 4.5 q0 3 -0.5 4 q-0.5 1 -2.5 3 l-96 97 l-126 -126 l97 -96 q0 -1 1 -1 l2 -1 q1 -1 5 -1 Z"></path></symbol><symbol id="confirm-full" viewBox="0 -212 1024 1024"><path d="M512 -90 q-122 0 -226 62 q-102 59 -160 160 q-61 105 -61 226.5 q0 121.5 61 226.5 q58 101 160 161 q104 61 226 61 q122 0 226 -61 q102 -60 161 -161 q62 -105 62 -226.5 q0 -121.5 -62 -226.5 q-59 -101 -161 -160 q-104 -62 -226 -62 ZM706 197 q12 0 20.5 8.5 q8.5 8.5 8.5 20.5 q0 12 -8 22 l-264 264 q-9 9 -22 9 q-13 0 -22 -9 l-122 -122 q-8 -10 -8 -22 q0 -12 8.5 -20.5 q8.5 -8.5 21.5 -8.5 q13 0 21 8 l100 101 l244 -243 q9 -9 22 -8 Z"></path></symbol><symbol id="down" viewBox="0 -212 1024 1024"><path d="M769 199 q-5 0 -11 2.5 q-6 2.5 -10 6.5 l-236 236 l-236 -236 q-4 -4 -10 -7 q-3 -2 -11 -2 q-8 0 -12 2 l-2 1 q-5 4 -7.5 6 q-2.5 2 -6.5 7 l-1 2 q-2 8 -2 12.5 q0 4.5 2 12.5 l1 2 q4 5 6 7 l257 258 q5 4 11 6.5 q6 2.5 10.5 2.5 q4.5 0 12.5 -2 l2 -1 q5 -4 8 -6 l257 -258 q2 -2 6 -7 l1 -2 q2 -4 2 -12.5 q0 -8.5 -2 -12.5 l-1 -2 q-4 -5 -6.5 -7 q-2.5 -2 -7.5 -6 l-2 -1 q-8 -2 -12 -2 Z"></path></symbol><symbol id="email" viewBox="0 -212 1024 1024"><path d="M75 6 q-31 0 -53 21.5 q-22 21.5 -22 51.5 l0 589 q0 29 22 52 q23 22 53 22 l874 0 q30 0 53 -22 q22 -23 22 -52 l0 -589 q0 -30 -22 -51.5 q-22 -21.5 -53 -21.5 l-874 0 ZM961 191 l0 477 q0 3 -5 7 q-1 3 -7 3 l-874 0 q-4 0 -7 -3 q-3 -3 -3 -7 l0 -477 l405 270 q19 14 42 14 q23 0 42 -14 l407 -270 ZM949 69 q6 0 7 3 q5 2 5 7 l0 36 l-443 294 q-4 2 -6 2 q-2 0 -6 -2 l-441 -294 l0 -36 q0 -6 3 -8 q3 -2 7 -2 l874 0 Z"></path></symbol><symbol id="erro" viewBox="0 -212 1024 1024"><path d="M667 168 q-9 2 -14 8 l-141 141 l-141 -141 q-10 -9 -22 -9 q-12 0 -20 9 q-8 9 -8 21 q0 12 8 20 l141 142 l-141 141 q-8 8 -8 20 q0 12 8.5 20.5 q8.5 8.5 19.5 8.5 q11 0 22 -8 l141 -140 l141 140 q5 6 13 8.5 q8 2.5 16 0 q8 -2.5 13 -7.5 q5 -5 8 -13.5 q3 -8.5 0 -16 q-3 -7.5 -9 -12.5 l-141 -141 l141 -142 q6 -5 9 -12.5 q3 -7.5 0 -16 q-3 -8.5 -8 -13.5 q-5 -5 -13 -7.5 q-8 -2.5 -15 0.5 ZM512 -90 q-122 0 -226 62 q-102 59 -160 160 q-61 105 -61 226.5 q0 121.5 61 226.5 q58 101 160 161 q104 61 226 61 q122 0 226 -61 q102 -60 161 -161 q62 -105 62 -226.5 q0 -121.5 -62 -226.5 q-59 -101 -161 -160 q-104 -62 -226 -62 ZM512 -25 q104 0 194 52 q87 51 138 138 q52 89 52 193.5 q0 104.5 -52 193.5 q-51 87 -138 138 q-90 53 -194 53 q-104 0 -194 -53 q-87 -51 -138 -138 q-52 -89 -52 -193.5 q0 -104.5 52 -193.5 q51 -87 138 -138 q90 -52 194 -52 Z"></path></symbol><symbol id="face-id" viewBox="0 -212 1024 1024"><path d="M26 562 q-11 0 -18.5 8 q-7.5 8 -7.5 19 l0 115 q0 45 22.5 83 q22.5 38 60.5 60.5 q38 22.5 83 22.5 l115 0 q11 0 18.5 -8 q7.5 -8 7.5 -18.5 q0 -10.5 -7.5 -18.5 q-7.5 -8 -18.5 -8 l-115 0 q-31 0 -57 -15 q-26 -15 -41.5 -41.5 q-15.5 -26.5 -15.5 -56.5 l0 -115 q0 -11 -7.5 -19 q-7.5 -8 -18.5 -8 ZM998 562 q-10 0 -18 8 q-8 8 -8 19 l0 115 q0 30 -15.5 56.5 q-15.5 26.5 -41.5 41.5 q-26 15 -57 15 l-115 0 q-10 0 -18 8 q-8 8 -8 18.5 q0 10.5 7.5 18.5 q7.5 8 18.5 8 l115 0 q45 0 83 -22.5 q38 -22.5 60.5 -60.5 q22.5 -38 22.5 -83 l0 -115 q0 -11 -7.5 -19 q-7.5 -8 -18.5 -8 ZM331 564 q-7 8 -6.5 19 q0.5 11 8.5 19 q37 34 83.5 52.5 q46.5 18.5 95.5 18.5 q49 0 95.5 -18.5 q46.5 -18.5 83.5 -52.5 q8 -8 8.5 -19 q0.5 -11 -7 -19 q-7.5 -8 -18.5 -8.5 q-11 -0.5 -20 6.5 q-29 27 -65.5 42 q-36.5 15 -76.5 15 q-40 0 -76.5 -15 q-36.5 -15 -65.5 -42 q-9 -7 -20 -6.5 q-11 0.5 -19 8.5 ZM539 205 q-12 0 -19.5 7.5 q-7.5 7.5 -7.5 19.5 l0 191 q0 6 -4.5 10.5 q-4.5 4.5 -10.5 4.5 l-22 0 q-11 0 -18.5 8 q-7.5 8 -7.5 19 q0 11 7.5 19.5 q7.5 8.5 18.5 8.5 l22 0 q29 0 49 -20.5 q20 -20.5 20 -49.5 l0 -191 q0 -12 -8 -19.5 q-8 -7.5 -19 -7.5 ZM303 205 q-10 0 -17 7 q-7 7 -7 18 l0 77 q0 11 7 18.5 q7 7.5 17 7.5 q10 0 18 -7.5 q8 -7.5 8 -18.5 l0 -77 q0 -11 -8 -18 q-8 -7 -18 -7 ZM727 205 q-10 0 -18 7 q-8 7 -8 18 l0 77 q0 11 8 18.5 q8 7.5 18 7.5 q10 0 17.5 -7.5 q7.5 -7.5 7.5 -18.5 l0 -77 q0 -11 -7.5 -18 q-7.5 -7 -17.5 -7 ZM166 -154 q-45 0 -83 22.5 q-38 22.5 -60.5 60 q-22.5 37.5 -22.5 82.5 l0 115 q0 11 7.5 19 q7.5 8 18.5 8 q11 0 18.5 -8.5 q7.5 -8.5 7.5 -18.5 l0 -115 q0 -30 15.5 -56 q15.5 -26 41.5 -41.5 q26 -15.5 57 -15.5 l115 0 q11 0 18.5 -8.5 q7.5 -8.5 7.5 -18.5 q0 -10 -7.5 -17.5 q-7.5 -7.5 -18.5 -7.5 l-115 0 ZM743 -154 q-11 0 -18.5 7.5 q-7.5 7.5 -7.5 17.5 q0 10 8 18.5 q8 8.5 18 8.5 l115 0 q31 0 57 15.5 q26 15.5 41.5 41.5 q15.5 26 15.5 56 l0 115 q0 10 8 18.5 q8 8.5 18.5 8.5 q10.5 0 18 -8 q7.5 -8 7.5 -19 l0 -115 q0 -45 -22.5 -82.5 q-22.5 -37.5 -60.5 -60 q-38 -22.5 -83 -22.5 l-115 0 Z"></path></symbol><symbol id="file_file" viewBox="0 -212 1024 1024"><path d="M213 -111 q-36 0 -60.5 25.5 q-24.5 25.5 -24.5 59.5 l0 768 q0 33 24.5 59 q24.5 26 60.5 26 l598 0 q36 0 60.5 -26 q24.5 -26 24.5 -59 l0 -597 q0 -34 -25 -61 l-172 -171 q-11 -12 -27 -18 q-16 -6 -33 -6 l-426 0 ZM577 -48 l0 171 q0 36 25.5 60.5 q25.5 24.5 59.5 24.5 l171 0 l0 534 q0 8 -8 15 q-4 6 -14 6 l-598 0 q-8 0 -14 -6 q-6 -6 -6 -15 l0 -768 q0 -10 6 -16 q6 -6 14 -6 l364 0 ZM640 -48 q8 0 14 6 l171 172 q5 4 8 15 l-171 0 q-8 0 -15 -6.5 q-7 -6.5 -7 -15.5 l0 -171 Z"></path></symbol><symbol id="filter" viewBox="0 -212 1024 1024"><path d="M460 550 q-14 0 -22.5 9.5 q-8.5 9.5 -8.5 22.5 q0 13 9 22.5 q9 9.5 22 9.5 l104 0 q13 0 22 -9.5 q9 -9.5 9 -22.5 q0 -13 -8 -22.5 q-8 -9.5 -23 -9.5 l-104 0 ZM294 344 q-13 0 -22.5 10 q-9.5 10 -9.5 22 q0 12 9.5 21 q9.5 9 22.5 9 l436 0 q13 0 22.5 -8.5 q9.5 -8.5 9.5 -22 q0 -13.5 -9.5 -22.5 q-9.5 -9 -22.5 -9 l-436 0 ZM127 134 q-13 0 -22 9 q-9 9 -9 22.5 q0 13.5 9 22 q9 8.5 22 8.5 l770 0 q14 0 22.5 -8.5 q8.5 -8.5 8.5 -22 q0 -13.5 -8.5 -22.5 q-8.5 -9 -22.5 -9 l-770 0 Z"></path></symbol><symbol id="file_zip" viewBox="0 -212 1024 1024"><path d="M469 528 q-35 0 -60 25 q-12 11 -18.5 27.5 q-6.5 16.5 -6.5 33.5 l0 181 q0 13 9 22.5 q9 9.5 23 9.5 l149 0 q14 0 23 -9.5 q9 -9.5 9 -22.5 l0 -181 q0 -18 -6 -34 q-6 -16 -19 -27 q-25 -25 -60 -25 l-43 0 ZM512 592 q9 0 15.5 6 q6.5 6 6.5 16 l0 149 l-85 0 l0 -149 q0 -10 6 -16 q6 -6 14 -6 l43 0 ZM213 -154 q-36 0 -60.5 25.5 q-24.5 25.5 -24.5 59.5 l0 768 q0 33 24.5 59 q24.5 26 60.5 26 l75 0 q15 0 22 -10 q11 -10 11 -22 q0 -12 -11 -23 q-7 -9 -22 -9 l-75 0 q-8 0 -14 -6 q-6 -6 -6 -15 l0 -768 q0 -10 6 -16 q6 -6 14 -6 l426 0 q4 0 8.5 1.5 q4.5 1.5 6.5 4.5 l171 172 q4 4 5 6 q3 7 3 9 l0 597 q0 8 -8 15 q-4 6 -14 6 l-118 0 q-13 0 -22 9.5 q-9 9.5 -9 22.5 q0 13 9 22.5 q9 9.5 22 9.5 l118 0 q36 0 60.5 -26 q24.5 -26 24.5 -59 l0 -597 q0 -34 -25 -61 l-172 -171 q-11 -12 -27 -18 q-16 -6 -33 -6 l-426 0 ZM522 443 q-13 0 -22.5 10 q-9.5 10 -9.5 21.5 q0 11.5 9.5 21.5 q9.5 10 22.5 10 l43 0 q14 0 23 -9 q9 -9 9 -22.5 q0 -13.5 -9 -22.5 q-9 -9 -23 -9 l-43 0 ZM416 378 q-13 0 -23 10 q-9 7 -9 21.5 q0 14.5 9 24 q9 9.5 23 9.5 l43 0 q13 0 22 -9.5 q9 -9.5 9 -24 q0 -14.5 -9 -21.5 q-10 -10 -22 -10 l-43 0 ZM522 315 q-13 0 -22.5 10 q-9.5 10 -9.5 21.5 q0 11.5 9.5 21.5 q9.5 10 22.5 10 l43 0 q14 0 23 -9 q9 -9 9 -22.5 q0 -13.5 -9 -22.5 q-9 -9 -23 -9 l-43 0 ZM416 250 q-13 0 -23 10 q-9 7 -9 21.5 q0 14.5 9 24 q9 9.5 23 9.5 l43 0 q13 0 22 -9.5 q9 -9.5 9 -24 q0 -14.5 -9 -21.5 q-10 -10 -22 -10 l-43 0 ZM522 187 q-13 0 -22.5 10 q-9.5 10 -9.5 21.5 q0 11.5 9.5 21.5 q9.5 10 22.5 10 l43 0 q14 0 23 -9 q9 -9 9 -22.5 q0 -13.5 -9 -22.5 q-9 -9 -23 -9 l-43 0 ZM416 122 q-13 0 -23 10 q-9 7 -9 21.5 q0 14.5 9 24 q9 9.5 23 9.5 l43 0 q13 0 22 -9.5 q9 -9.5 9 -24 q0 -14.5 -9 -21.5 q-10 -10 -22 -10 l-43 0 ZM522 59 q-13 0 -22.5 10 q-9.5 10 -9.5 21.5 q0 11.5 9.5 21.5 q9.5 10 22.5 10 l43 0 q14 0 23 -9 q9 -9 9 -22.5 q0 -13.5 -9 -22.5 q-9 -9 -23 -9 l-43 0 ZM416 -6 q-13 0 -23 10 q-9 7 -9 21.5 q0 14.5 9 24 q9 9.5 23 9.5 l43 0 q13 0 22 -9.5 q9 -9.5 9 -24 q0 -14.5 -9 -21.5 q-10 -10 -22 -10 l-43 0 ZM522 -69 q-13 0 -22.5 10 q-9.5 10 -9.5 21.5 q0 11.5 9.5 21.5 q9.5 10 22.5 10 l43 0 q14 0 23 -9 q9 -9 9 -22.5 q0 -13.5 -9 -22.5 q-9 -9 -23 -9 l-43 0 Z"></path></symbol><symbol id="home" viewBox="0 -212 1024 1024"><path d="M512 -25 q-24 0 -41 15 l-320 272 q-23 19 -23 48 l0 401 q0 25 18.5 44.5 q18.5 19.5 46.5 19.5 l244 0 q14 0 23 -9.5 q9 -9.5 9 -22.5 l0 -266 l86 0 l0 266 q0 13 9 22.5 q9 9.5 23 9.5 l246 0 q26 0 44.5 -19.5 q18.5 -19.5 18.5 -44.5 l0 -401 q0 -15 -6 -27.5 q-6 -12.5 -17 -20.5 l-320 -272 q-16 -15 -41 -15 ZM512 38 l321 272 l0 401 l-215 0 l0 -266 q0 -16 -9 -23 q-10 -10 -22 -10 l-150 0 q-12 0 -22 10 q-9 7 -9 23 l0 266 l-213 0 l0 -401 l319 -272 Z"></path></symbol><symbol id="left" viewBox="0 -212 1024 1024"><path d="M641 71 q-8 0 -12 2 l-2 1 q-5 4 -7 6 l-259 257 q-2 2 -6 7 l-1 2 q-2 9 -2 13.5 q0 4.5 2.5 10.5 q2.5 6 6.5 10 l259 257 q3 3 9 7 q8 2 12 2 q4 0 12 -2 l2 -1 q5 -4 7.5 -6 q2.5 -2 6.5 -7 l1 -2 q2 -8 2 -12.5 q0 -4.5 -2.5 -11 q-2.5 -6.5 -6.5 -10.5 l-236 -235 l236 -236 q4 -4 7 -10 q2 -3 2 -11.5 q0 -8.5 -2 -12.5 l-1 -2 q-4 -5 -6.5 -7 q-2.5 -2 -7.5 -6 l-2 -1 q-4 -2 -12 -2 Z"></path></symbol><symbol id="no-wifi" viewBox="0 -212 1024 1024"><path d="M118 -45 q-14 13 -14 31 q0 18 14 31 l67 67 q-55 29 -103 64 q-14 11 -17.5 29.5 q-3.5 18.5 8 33 q11.5 14.5 30.5 17 q19 2.5 33 -8.5 q60 -43 117 -69 l87 85 q-75 25 -137 71 q-15 11 -17.5 29 q-2.5 18 8.5 33 q11 15 30 17.5 q19 2.5 33 -8.5 q68 -49 157 -69 l88 86 q-83 3 -155 48 q-16 10 -20 27.5 q-4 17.5 6 33.5 q10 16 28 20 q18 4 34 -6 q57 -34 115 -34.5 q58 -0.5 115 32.5 l218 214 q13 13 31.5 13 q18.5 0 32.5 -13 q14 -13 14 -31.5 q0 -18.5 -15 -31.5 l-725 -711 q-13 -13 -31.5 -13 q-18.5 0 -31.5 13 ZM478 608 q-12 15 -11 32.5 q1 17.5 14.5 30.5 q13.5 13 32 12 q18.5 -1 32.5 -15 l0 0 q13 -14 12 -32.5 q-1 -18.5 -15.5 -30.5 q-14.5 -12 -32.5 -11 q-18 1 -31 14 l-1 0 ZM578 255 q-5 17 5.5 33 q10.5 16 27.5 20 q85 19 156 69 q15 11 33.5 8.5 q18.5 -2.5 30 -17.5 q11.5 -15 8.5 -33.5 q-3 -18.5 -18 -28.5 q-87 -63 -190 -85 q-18 -4 -33.5 6.5 q-15.5 10.5 -19.5 27.5 ZM426 11 q-18 2 -30 16.5 q-12 14.5 -10 33 q2 18.5 17.5 29.5 q15.5 11 33.5 9 q119 -14 234 16 q116 30 217 104 q14 11 33 8 q19 -3 30.5 -17 q11.5 -14 8 -32.5 q-3.5 -18.5 -17.5 -29.5 q-114 -84 -249 -119 q-132 -34 -267 -18 Z"></path></symbol><symbol id="notification-full" viewBox="0 -212 1024 1024"><path d="M512 -122 q-77 0 -143.5 32.5 q-66.5 32.5 -106.5 89.5 q-41 58 -41 128 l0 189 q0 40 -23 75 l-92 137 q-10 18 -10.5 33 q-0.5 15 7.5 33 q8 15 23 23.5 q15 8.5 34 8.5 l207 0 q0 29 11 57 q11 28 32 47 q21 21 47 32 q27 11 55 11 q28 0 55 -11 q24 -10 48 -32 q20 -20 31 -47 q11 -24 11 -57 l208 0 q18 0 33 -8.5 q15 -8.5 23 -23.5 q8 -18 7.5 -33 q-0.5 -15 -10.5 -33 l-92 -137 q-23 -35 -23 -75 l0 -189 q0 -70 -41 -128 q-40 -57 -106.5 -89.5 q-66.5 -32.5 -143.5 -32.5 ZM595 627 q0 36 -24.5 60 q-24.5 24 -58.5 24 q-34 0 -58.5 -24 q-24.5 -24 -24.5 -60 l166 0 ZM512 -60 q63 0 117 27 q51 26 81 69 q30 43 30 92 l0 189 q0 59 34 110 l91 137 l0 1 l-706 0 l0 -1 l91 -137 q34 -51 34 -110 l0 -189 q0 -49 30 -92 q30 -43 81 -69 q54 -27 117 -27 Z"></path></symbol><symbol id="options" viewBox="0 -212 1024 1024"><path d="M208 264 q-15 0 -30 6 q-15 6 -25 17 q-23 21 -25 55 q0 15 5.5 29.5 q5.5 14.5 18 27.5 q12.5 13 27 18.5 q14.5 5.5 30 5.5 q15.5 0 31 -6.5 q15.5 -6.5 25.5 -18.5 q10 -8 17 -24.5 q7 -16.5 7 -31.5 q-2 -34 -25.5 -56 q-23.5 -22 -55.5 -22 ZM529 264 q-33 0 -55.5 22 q-22.5 22 -24.5 56 q0 15 6.5 31.5 q6.5 16.5 16.5 24.5 q10 12 25.5 18.5 q15.5 6.5 31.5 6.5 q16 0 30 -5.5 q14 -5.5 27 -18.5 q13 -13 18 -27.5 q5 -14.5 5 -29.5 q-2 -34 -24 -55 q-11 -11 -25.5 -17 q-14.5 -6 -30.5 -6 ZM850 262 q-16 0 -32 6.5 q-16 6.5 -26 16.5 q-13 14 -18.5 27 q-5.5 13 -5.5 29 q0 16 6 31 q6 15 18.5 26.5 q12.5 11.5 25.5 17.5 q18 5 32 5 q34 -2 55 -24 q23 -24 23 -55 q0 -15 -6.5 -30 q-6.5 -15 -16.5 -25 q-21 -23 -55 -25 Z"></path></symbol><symbol id="percentage" viewBox="0 -212 1024 1024"><path d="M707 526 q-25 10 -34 34 q-5 13 -5 24 q2 17 5 24 q6 13 14 21 q8 8 22 13 q9 4 22 4 q13 0 25 -5 q12 -5 21 -14 q9 -9 14 -21 q10 -24 -1 -48 q-5 -11 -14.5 -19.5 q-9.5 -8.5 -20.5 -14.5 q-25 -10 -48 2 ZM769 71 q-12 0 -23 8 l-508 514 q-11 10 -10 23 q1 13 10 21.5 q9 8.5 21.5 8.5 q12.5 0 23.5 -8 l509 -514 q8 -8 8 -22.5 q0 -14.5 -9.5 -22.5 q-9.5 -8 -21.5 -8 ZM262 82 q-11 4 -20 14 q-9 10 -13.5 21 q-4.5 11 -4.5 23.5 q0 12.5 5 24.5 q4 10 15 21 q8 8 21.5 13 q13.5 5 23.5 4 q14 0 23 -5 q12 -4 20.5 -13 q8.5 -9 13.5 -22 q9 -25 -1 -49 q-10 -24 -34.5 -33.5 q-24.5 -9.5 -48.5 1.5 Z"></path></symbol><symbol id="products" viewBox="0 -212 1024 1024"><path d="M512 -57 q-19 0 -37 9 l-343 196 q-16 10 -26 26.5 q-10 16.5 -10 36.5 l0 391 q0 20 9 37 q12 16 27 26 l343 196 q18 9 37.5 9 q19.5 0 36.5 -9 l343 -196 q16 -10 26 -26.5 q10 -16.5 10 -36.5 l0 -391 q0 -20 -10 -36.5 q-10 -16.5 -26 -26.5 l-343 -196 q-17 -9 -37 -9 ZM159 241 l322 184 l0 368 l-317 -182 q-5 -3 -5 -8 l0 -362 ZM865 241 l0 362 q0 3 -1.5 5 q-1.5 2 -3.5 3 l-316 182 l0 -369 l321 -183 ZM512 4 q3 0 5 2 l318 180 l-323 185 l-323 -185 l319 -181 q3 -1 4 -1 Z"></path></symbol><symbol id="plus" viewBox="0 -212 1024 1024"><path d="M512 39 q-13 0 -23 10 q-10 10 -10 24 l0 254 l-254 0 q-14 0 -23 9 q-9 9 -9 23.5 q0 14.5 9 23.5 q9 9 23 9 l254 0 l0 254 q0 15 9.5 24 q9.5 9 23.5 9 q14 0 23.5 -9 q9.5 -9 9.5 -24 l0 -254 l254 0 q14 0 24 -9.5 q10 -9.5 10 -23 q0 -13.5 -10 -23 q-10 -9.5 -24 -9.5 l-254 0 l0 -254 q0 -14 -10 -24 q-10 -10 -23 -10 Z"></path></symbol><symbol id="promotions" viewBox="0 -212 1024 1024"><path d="M512 103 q-7 0 -12 5 q-5 5 -5 12 l0 198 l-104 -105 q-1 -1 -5 -3 q-4 -2 -6.5 -2 q-2.5 0 -6.5 2 q-1 0 -4 2 l-2 1 l-3 6 q-2 2 -2 7 q0 5 2 7 q2 4 4 5 l103 103 l-198 0 q-7 0 -12 5 q-5 5 -5 12.5 q0 7.5 5 12.5 q5 5 12 5 l198 0 l-103 103 q-6 6 -6 12.5 q0 6.5 5.5 11.5 q5.5 5 12 5 q6.5 0 11.5 -5 l104 -103 l0 197 q0 7 5 12.5 q5 5.5 12 5.5 q7 0 12 -5.5 q5 -5.5 5 -12.5 l0 -197 l104 103 q5 5 11.5 5 q6.5 0 12 -5 q5.5 -5 5.5 -11 q0 -8 -6 -13 l-103 -103 l198 0 q7 0 12 -5 q5 -5 5 -12.5 q0 -7.5 -5 -12.5 q-5 -5 -12 -5 l-198 0 l103 -103 q2 -1 4.5 -5 q2.5 -4 2.5 -7 q0 -3 -3 -7 l-3 -6 l-6 -3 q-4 -2 -6.5 -2 q-2.5 0 -6.5 2 q-4 2 -5 4 l-104 104 l0 -198 q0 -7 -5 -12 q-5 -5 -12 -5 ZM169 -57 q-30 0 -51.5 21.5 q-21.5 21.5 -21.5 51.5 l0 686 q0 30 21 51 q21 21 52 21 l686 0 q32 0 52.5 -21 q20.5 -21 20.5 -51 l0 -686 q0 -30 -21.5 -51.5 q-21.5 -21.5 -51.5 -21.5 l-686 0 ZM855 5 q4 0 7 3 q3 3 3 8 l0 686 q0 4 -3 7 q-3 3 -7 3 l-686 0 q-4 0 -7 -3 q-3 -3 -3 -7 l0 -686 q0 -5 3 -8 q3 -3 7 -3 l686 0 Z"></path></symbol><symbol id="redicom" viewBox="0 -212 1024 1024"><path d="M262 659 q-10 0 -17 7 q-7 7 -7 18 l0 98 q0 10 7 17.5 q7 7.5 17 7.5 l98 0 q11 0 18 -7.5 q7 -7.5 7 -17.5 l0 -98 q0 -11 -7 -18 q-7 -7 -18 -7 l-98 0 ZM73 472 q-11 0 -18 7 q-7 7 -7 17 l0 96 q0 10 7 17 q7 7 18 7 l95 0 q10 0 17.5 -7 q7.5 -7 7.5 -17 l0 -96 q0 -10 -7.5 -17 q-7.5 -7 -17.5 -7 l-95 0 ZM322 410 q-11 0 -18 7.5 q-7 7.5 -7 17.5 l0 98 q0 10 7 17.5 q7 7.5 18 7.5 l99 0 q10 0 17 -7.5 q7 -7.5 7 -17.5 l0 -98 q0 -10 -7 -17.5 q-7 -7.5 -17 -7.5 l-99 0 ZM273 -154 q-13 0 -23 10 q-10 10 -10 24 l0 391 q1 13 10.5 22.5 q9.5 9.5 22.5 9.5 l238 0 q14 0 24 9.5 q10 9.5 10 24.5 l0 83 q0 13 10 23 q10 10 24 10 l235 0 q14 0 24 -10 q10 -10 10 -23 l0 -540 q0 -14 -10 -24 q-10 -10 -24 -10 l-541 0 ZM675 164 q8 2 14 8.5 q6 6.5 6 15.5 l0 101 q-1 10 -8 16 q-7 6 -16 6 l-102 0 q-9 -2 -15 -8.5 q-6 -6.5 -6 -16.5 l0 -101 q2 -9 8.5 -15 q6.5 -6 15.5 -6 l103 0 Z"></path></symbol><symbol id="refresh" viewBox="0 -212 1024 1024"><path d="M99 431 q-12 3 -18 14 q-6 11 -3 23 q23 96 86.5 173.5 q63.5 77.5 151.5 120.5 q93 45 196 45 q122 0 226 -61 q102 -60 161 -161 l0 69 q0 13 8.5 21.5 q8.5 8.5 21.5 8.5 q13 0 22.5 -9 q9.5 -9 9.5 -21 l0 -153 q0 -7 -4 -15.5 q-4 -8.5 -9 -13.5 q-14 -12 -28 -12 l-153 0 q-12 0 -21.5 9 q-9.5 9 -9.5 22 q0 13 9 21.5 q9 8.5 22 8.5 l96 0 q-23 51 -59.5 93 q-36.5 42 -83 71 q-46.5 29 -100 45 q-53.5 16 -108.5 16 q-89 0 -168 -39 q-77 -37 -131.5 -103.5 q-54.5 -66.5 -75.5 -150.5 q-3 -12 -14 -18.5 q-11 -6.5 -24 -3.5 ZM512 -90 q-119 0 -223 60.5 q-104 60.5 -164 161.5 l0 -68 q0 -15 -8 -23 q-8 -8 -21.5 -8 q-13.5 0 -22 8.5 q-8.5 8.5 -8.5 22.5 l0 152 q0 16 11 29 q14 12 28 12 l153 0 q11 0 23 -9 q8 -10 8 -22.5 q0 -12.5 -9 -21 q-9 -8.5 -22 -8.5 l-96 0 q23 -50 60 -92 q37 -42 83 -72 q46 -30 99.5 -45 q53.5 -15 108.5 -15 q65 0 126 21 q61 21 112 60.5 q51 39.5 86 93.5 q35 54 52 117 q2 13 13 19 q11 6 23.5 3.5 q12.5 -2.5 18.5 -14 q6 -11.5 3 -23.5 q-23 -96 -86.5 -173.5 q-63.5 -77.5 -151.5 -120.5 q-93 -45 -196 -45 Z"></path></symbol><symbol id="settings" viewBox="0 -212 1024 1024"><path d="M512 196.5 q-32 0 -62 12 q-30 12 -52.5 34.5 q-22.5 22.5 -35.5 53 q-13 30.5 -13 63 q0 32.5 13 62.5 q13 30 35.5 52.5 q22.5 22.5 52 35 q29.5 12.5 62.5 12.5 q33 0 63 -12.5 q30 -12.5 52.5 -35 q22.5 -22.5 35 -53 q12.5 -30.5 12.5 -62 q0 -31.5 -12.5 -62 q-12.5 -30.5 -35.5 -53.5 q-23 -23 -53 -35 q-30 -12 -62 -12 ZM512 257.5 q20 0 39 8 q19 8 33 21.5 q14 13.5 21.5 32.5 q7.5 19 7.5 39.5 q0 20.5 -7.5 39.5 q-7.5 19 -21.5 33 q-14 14 -33 21.5 q-19 7.5 -39 7.5 q-20 0 -39 -7.5 q-19 -7.5 -33 -21.5 q-14 -14 -21.5 -33 q-7.5 -19 -7.5 -39.5 q0 -20.5 7.5 -39.5 q7.5 -19 21.5 -32.5 q14 -13.5 33 -21.5 q19 -8 39 -8 ZM512 -89.5 q-10 0 -30 2 l-3 0 q-22 1 -39 16 q-17 15 -22 36 l-15 60 q-2 7 -9 9 q-12 4 -29 12 q-8 3 -13 0 l-52 -31 q-18 -12 -40.5 -11 q-22.5 1 -40.5 17 q-24 21 -46 46 q-15 17 -16 39 q-1 22 10 42 l32 52 q3 3 0 12 l-13 30 q-2 7 -9 9 l-58 14 q-22 6 -37 22.5 q-15 16.5 -16 39.5 q-4 33 0 65 q1 23 16 40 q15 17 37 22 l58 14 q7 2 9 9 l13 30 q3 7 0 12 l-32 53 q-11 19 -10 41 q1 22 16 39 q22 25 46 47 q18 15 40.5 16 q22.5 1 40.5 -10 l52 -32 q5 -3 13 0 l29 12 q7 2 9 9 l15 60 q5 21 22 36 q17 15 39 16 q33 3 66 0 q22 -1 39 -16 q17 -15 22 -36 l15 -60 q2 -7 9 -9 l29 -12 q10 -3 13 0 l52 32 q18 11 40.5 10 q22.5 -1 40.5 -16 q24 -22 46 -47 q15 -17 16 -39.5 q1 -22.5 -10 -40.5 l-32 -53 q-3 -5 0 -12 q9 -17 13 -30 q2 -7 9 -9 l59 -14 q22 -5 36.5 -22 q14.5 -17 15.5 -40 q4 -32 0 -65 q-1 -23 -15.5 -39.5 q-14.5 -16.5 -36.5 -22.5 l-59 -14 q-7 -2 -9 -9 q-4 -13 -13 -30 q-3 -9 0 -12 l32 -52 q11 -19 10 -41.5 q-1 -22.5 -16 -39.5 q-22 -25 -46 -46 q-18 -16 -40.5 -17 q-22.5 -1 -40.5 11 l-52 31 q-3 3 -13 0 q-16 -8 -29 -12 q-7 -2 -9 -9 l-15 -60 q-5 -21 -22 -36 q-17 -15 -39 -16 l-3 0 q-20 -2 -30 -2 ZM541 -26.5 q5 0 6 6 l14 59 q5 20 18 33 q13 13 30 19 q4 1 13 5 l16 8 q15 7 31 5 q17 0 34 -11 l53 -31 q5 -2 9 0 q21 18 40 40 q2 4 0 9 l-32 52 q-10 18 -10.5 35 q-0.5 17 7.5 36 q4 7 10 24 q6 17 20 30 q14 13 33 17 l58 15 q7 1 7 7 q2 28 0 55 q0 5 -6 7 l-59 15 q-20 5 -33.5 17 q-13.5 12 -19 29 q-5.5 17 -10.5 25 q-8 19 -7.5 36.5 q0.5 17.5 10.5 34.5 l32 52 q2 4 0 10 q-19 21 -40 39 q-4 3 -9 0 l-53 -31 q-17 -11 -34.5 -11.5 q-17.5 -0.5 -35.5 8.5 q-7 4 -23.5 9.5 q-16.5 5.5 -30.5 20 q-14 14.5 -18 32.5 l-14 60 q-1 6 -6 6 q-29 1 -57 0 q-5 0 -7 -6 l-14 -60 q-4 -18 -17.5 -32 q-13.5 -14 -29.5 -20 l-4 -2 q-6 -2 -9 -3 l-16 -7 q-16 -7 -32 -6 q-17 0 -34 11 l-53 31 q-4 3 -9 0 q-21 -18 -40 -39 q-2 -6 0 -10 l32 -52 q10 -16 10.5 -34.5 q0.5 -18.5 -7.5 -36.5 q-5 -8 -10.5 -24.5 q-5.5 -16.5 -19.5 -29.5 q-14 -13 -33 -17 l-58 -15 q-7 -1 -7 -7 q-1 -27 0 -55 q0 -6 7 -7 l58 -15 q19 -4 33.5 -17.5 q14.5 -13.5 20 -30 q5.5 -16.5 9.5 -23.5 q8 -18 7.5 -36.5 q-0.5 -18.5 -10.5 -34.5 l-32 -52 q-2 -5 0 -9 q19 -22 40 -40 q5 -2 9 0 l53 31 q17 11 34.5 11.5 q17.5 0.5 35.5 -7.5 q8 -6 25 -11.5 q17 -5.5 29.5 -18.5 q12.5 -13 17.5 -33 l14 -59 q2 -6 7 -6 q28 -1 57 0 Z"></path></symbol><symbol id="search" viewBox="0 -212 1024 1024"><path d="M443 -89.75 q-85 0 -159 39 q-73 37 -125 108 q-48 71 -59.5 154.5 q-11.5 83.5 17.5 164.5 q29 81 91.5 137.5 q62.5 56.5 143.5 78.5 q81 22 165 4 q83 -16 149 -72 l239 240 q7 6 14.5 8.5 q7.5 2.5 16 0 q8.5 -2.5 15.5 -7.5 q5 -7 8 -16 q3 -9 0.5 -16.5 q-2.5 -7.5 -9.5 -13.5 l-239 -240 q31 -37 50.5 -83 q19.5 -46 26.5 -95 q7 -49 -1 -98 q-8 -49 -29 -94 q-21 -45 -54 -82 q-33 -37 -74 -63 q-41 -26 -89 -40 q-48 -14 -98 -14 ZM443 -27.75 q57 0 109 22 q52 22 92 62 q40 40 62 92.5 q22 52.5 22 108.5 q0 54 -22 109 q-20 50 -62 92 q-38 39 -91.5 61.5 q-53.5 22.5 -109 22.5 q-55.5 0 -108 -22 q-52.5 -22 -92.5 -62 q-40 -40 -62 -92 q-22 -55 -22 -109 q0 -56 22 -108.5 q22 -52.5 62 -92.5 q40 -40 92 -62 q52 -22 108 -22 Z"></path></symbol><symbol id="shield" viewBox="0 -212 1024 1024"><path d="M512 187 q-28 0 -51 17.5 q-23 17.5 -30 44 q-7 26.5 4 53 q11 26.5 35 40.5 l0 115 q0 15 12 29 q15 13 30 13 q15 0 30 -13 q12 -14 12 -29 l0 -115 q24 -14 34.5 -40 q10.5 -26 3.5 -53 q-7 -27 -29.5 -44.5 q-22.5 -17.5 -50.5 -17.5 ZM146 -7 q-22 8 -36 27 q-14 19 -14 42 l0 208 q0 126 49 233 q48 102 137 179 q87 75 205 120 q25 10 50 0 q118 -45 205 -120 q89 -77 137 -179 q49 -107 49 -233 l0 -208 q0 -25 -13.5 -43 q-13.5 -18 -36.5 -26 l-343 -111 q-23 -8 -46 0 l-343 111 ZM858 52 q4 2 5.5 3.5 q1.5 1.5 1.5 6.5 l0 208 q0 112 -43 206 q-42 91 -120.5 159 q-78.5 68 -186.5 109 l-6 0 q-108 -41 -186.5 -109 q-78.5 -68 -120.5 -159 q-43 -94 -43 -206 l0 -208 q0 -5 1.5 -6.5 q1.5 -1.5 5.5 -3.5 l343 -110 q3 -2 6 0 l343 110 Z"></path></symbol><symbol id="right" viewBox="0 -212 1024 1024"><path d="M383 71 q-8 0 -12 2 l-2 1 q-5 4 -7.5 6 q-2.5 2 -6.5 7 l-1 2 q-2 8 -2 13 q0 5 2.5 11 q2.5 6 6.5 10 l236 236 l-236 235 q-4 4 -6.5 10.5 q-2.5 6.5 -2.5 11 q0 4.5 2 12.5 l1 2 q4 5 6.5 7 q2.5 2 7.5 6 l2 1 q8 2 12 2 q4 0 12 -2 l2 -1 q5 -4 7 -6 l259 -257 q4 -4 7 -10 q2 -3 2 -11.5 q0 -8.5 -2 -12.5 l-1 -2 q-4 -5 -6 -7 l-259 -257 q-2 -2 -7 -6 l-2 -1 q-4 -2 -12 -2 Z"></path></symbol><symbol id="sms" viewBox="0 -212 1024 1024"><path d="M512 598 q-17 0 -30.5 13.5 q-13.5 13.5 -13.5 31 q0 17.5 13.5 30.5 q13.5 13 30.5 13 q17 0 30.5 -12.5 q13.5 -12.5 13.5 -30.5 q0 -18 -13.5 -31.5 q-13.5 -13.5 -30.5 -13.5 ZM468 31 q-13 0 -23 9.5 q-10 9.5 -10 23.5 q0 14 9.5 23 q9.5 9 23.5 9 l88 0 q14 0 23.5 -9 q9.5 -9 9.5 -23 q0 -14 -10 -23.5 q-10 -9.5 -23 -9.5 l-88 0 ZM237 -122 q-32 0 -54.5 22.5 q-22.5 22.5 -22.5 54.5 l0 807 q0 32 22 54 q11 11 25.5 17 q14.5 6 29.5 6 l550 0 q32 0 54.5 -22.5 q22.5 -22.5 22.5 -54.5 l0 -807 q0 -32 -22.5 -54.5 q-22.5 -22.5 -54.5 -22.5 l-550 0 ZM787 -56 q5 0 8 3 q3 3 3 8 l0 807 q0 5 -3 8 q-3 3 -8 3 l-550 0 q-5 0 -8 -3.5 q-3 -3.5 -3 -7.5 l0 -807 q0 -5 3 -8 q3 -3 8 -3 l550 0 Z"></path></symbol><symbol id="sign-out" viewBox="0 -212 1024 1024"><path d="M204 -90 q-32 0 -54 22 q-22 22 -22 53 l0 747 q0 15 6 28.5 q6 13.5 17 24.5 q22 22 53 22 l237 0 q14 0 24 -10 q9 -8 9 -22 q0 -14 -9 -23 q-9 -9 -24 -9 l-237 0 q-4 0 -7.5 -3.5 q-3.5 -3.5 -3.5 -7.5 l0 -747 q0 -2 2 -5 l1 -2 q3 -3 8 -3 l237 0 q15 0 24 -9.5 q9 -9.5 9 -24 q0 -14.5 -9 -21.5 q-10 -10 -24 -10 l-237 0 ZM702 124 q-14 0 -22.5 9 q-8.5 9 -9.5 21.5 q-1 12.5 8 23.5 l142 149 l-357 0 q-13 0 -22.5 9 q-9.5 9 -9.5 22.5 q0 13.5 9.5 22.5 q9.5 9 22.5 9 l357 0 l-142 149 q-9 9 -8 23 q1 14 9.5 22.5 q8.5 8.5 23 7.5 q14.5 -1 22.5 -9 l195 -203 q8 -8 8 -21 q0 -13 -8 -23 l-195 -202 q-10 -10 -23 -10 Z"></path></symbol><symbol id="social_email" viewBox="0 -212 1024 1024"><path d="M544 455 q-14 13 -34.5 13 q-20.5 0 -33.5 -13 l-346 -340 l-1 2 q-1 6 -1 9 l0 473 q0 20 15 33.5 q15 13.5 33 13.5 l672 0 q20 0 34 -13.5 q14 -13.5 14 -33.5 l0 -473 q0 -7 -3 -14 l-349 343 ZM350 395 l34 33 l-175 171 l-34 0 l0 -34 l175 -170 ZM673 395 l174 170 l1 34 l-34 0 l-175 -171 l34 -33 ZM183 71 q-4 0 -12 2 l339 354 l341 -356 l-668 0 Z"></path></symbol><symbol id="social_facebook" viewBox="0 -212 1024 1024"><path d="M170 -26 q-17 0 -29.5 12 q-12.5 12 -12.5 30 l0 684 q0 17 12.5 29.5 q12.5 12.5 29.5 12.5 l369 0 l0 -297 l-101 0 l0 -117 l101 0 l0 -85 q0 -73 40.5 -113.5 q40.5 -40.5 107.5 -40.5 q30 0 57 2 q23 1 33 3 l0 104 l-61 0 q-34 0 -47 15 q-11 13 -11 41 l0 74 l115 0 l-15 117 l-100 0 l0 297 l196 0 q17 0 29.5 -12.5 q12.5 -12.5 12.5 -29.5 l0 -684 q0 -18 -12.5 -30 q-12.5 -12 -29.5 -12 l-684 0 Z"></path></symbol><symbol id="social_linkedin" viewBox="0 -212 1024 1024"><path d="M180 -26 q-21 2 -36.5 17 q-15.5 15 -15.5 38 l0 661 q2 23 18.5 37.5 q16.5 14.5 37.5 14.5 l660 0 q21 -2 36.5 -17.5 q15.5 -15.5 15.5 -38.5 l0 -661 q-2 -23 -18.5 -37 q-16.5 -14 -38.5 -14 l-659 0 ZM242 261 l113 0 l0 367 l-113 0 l0 -367 ZM653 252 q63 2 95 37 q25 29 32 87 l1 12 q0 9 1 13 l0 227 l-113 0 l0 -196 l-1 -9 l0 -9 q-3 -28 -15 -43 q-14 -19 -44 -19 q-41 0 -56 29 q-12 23 -12 66 l0 181 l-114 0 l0 -367 l110 0 l0 51 l1 0 l5 -8 q16 -24 41 -37 q29 -17 62 -15 l7 0 ZM299 79 q28 0 47 19.5 q19 19.5 19 47 q0 27.5 -19 46.5 q-21 19 -48 19 q-27 0 -46.5 -19.5 q-19.5 -19.5 -19.5 -46.5 q0 -27 19.5 -46.5 q19.5 -19.5 47.5 -19.5 Z"></path></symbol><symbol id="social_google" viewBox="0 -212 1024 1024"><path d="M497 -26 l-37 3 q-1 1 -4 1 l-2 0 q-15 2 -21 4 l-15 3 l-5 2 l-11 3 q-2 0 -6 1 l-14 5 q-4 2 -6 2 q-3 2 -9 4 l-16 6 l-6 3 q-6 4 -8 6 l-4 1 q-6 4 -10 6 l-2 1 q-88 50 -140 137 q-53 90 -53 196 q0 76 29 146 q27 68 78.5 120 q51.5 52 117.5 83 l3 2 l14 5 q8 4 17 7 q2 0 7 2 q5 2 8 2 l15 4 q4 2 14 4 l12 2 q0 0 0 0 l13 3 l4 0 q5 1 15 2 l25 2 l31 0 l18 -2 q5 0 15 -2 l3 0 q7 -2 23 -5 l12 -2 q0 0 0 -1 q96 -22 170 -90 q18 -14 37 -38 q32 -39 53 -85 q28 -61 33 -129 q0 -7 1 -11 l0 -19 q0 -32 -4 -58 l-3 -18 l-31 0 l0 -1 l-346 0 l0 153 l217 0 l-3 9 q-23 58 -75.5 98 q-52.5 40 -114.5 46 q-9 1 -24 1 q-38 0 -76 -13 q-49 -18 -86.5 -54 q-37.5 -36 -53.5 -86 l-1 0 q-13 -40 -13 -77 q0 -43 16 -86 l0 0 q21 -53 63 -88 l0 -2 q0 0 1 0 q12 -10 26 -19 q6 -4 10.5 -6.5 q4.5 -2.5 17.5 -8.5 q29 -14 58 -18 l6 -1 q21 -2 32 -2 l11 0 q40 2 76.5 17.5 q36.5 15.5 65.5 41.5 l108 -109 q-52 -49 -118 -76 q-68 -27 -143 -27 l-15 0 Z"></path></symbol><symbol id="social_messenger" viewBox="0 -212 1024 1024"><path d="M512 -26 q-104 0 -194 48 q-87 47 -138 128 q-52 83 -52 179 q2 85 38 156 q38 72 104 120 l1 1 l0 136 l130 -72 l14 3 q47 11 97 11 l10 0 q102 -2 189 -51 q85 -47 134 -127 q51 -82 51 -177.5 q0 -95.5 -52 -178.5 q-51 -81 -138 -128 q-90 -48 -194 -48 ZM760 230 l-210 223 l-97 -105 l-192 104 l210 -222 l100 104 l189 -104 Z"></path></symbol><symbol id="social_pinterest" viewBox="0 -212 1024 1024"><path d="M512 -26 q-104 0 -194 52 q-87 51 -138 138 q-52 89 -52 194 q0 77 30 147 q28 69 80 121.5 q52 52.5 120 82.5 q-4 -47 7 -88 l15 -66 q34 -142 34 -143 l-3 -8 q-4 -10 -7 -21 q-3 -15 -3 -32 q0 -43 22 -71 q22 -28 53 -28 q25 0 38 16 q13 16 13 41 q0 15 -5 37 q-4 15 -13 44 q-11 37 -15 56 q-8 30 10.5 51.5 q18.5 21.5 49.5 21.5 q36 0 63.5 -27.5 q27.5 -27.5 43 -74 q15.5 -46.5 15.5 -101.5 q0 -66 -41 -106 q-43 -42 -119 -42 q-56 0 -100 27 q-42 23 -65 65.5 q-23 42.5 -23 91.5 q0 46 24 75 q5 6 6.5 10.5 q1.5 4.5 -0.5 11.5 l-8 30 q-1 8 -6.5 10.5 q-5.5 2.5 -12.5 0.5 q-39 -17 -60 -58 q-19 -38 -19 -90 q0 -57 31 -110 q32 -58 91 -91 q66 -38 152 -38 q72 0 129 31 q54 30 84.5 80.5 q30.5 50.5 30.5 108.5 q0 75 -26 134.5 q-26 59.5 -73 94 q-47 34.5 -108 34.5 q-31 0 -57.5 -14.5 q-26.5 -14.5 -36.5 -33.5 l-27 105 q-9 35 -39 83 q53 16 109 16 q104 0 194 -53 q87 -51 138 -138 q52 -89 52 -193.5 q0 -104.5 -52 -193.5 q-51 -87 -138 -138 q-90 -52 -194 -52 Z"></path></symbol><symbol id="social_thumblr" viewBox="0 -212 1024 1024"><path d="M521 6 l-96 0 q-6 54 -24 90 q-15 33 -45 61 q-30 25 -68 39 l0 99 l74 0 l0 247 q0 49 10.5 74 q10.5 25 36 47.5 q25.5 22.5 60.5 35 q35 12.5 81 12.5 q41 0 76 -9 q32 -8 77 -30 l2 0 l0 -111 q-53 35 -103 35 q-28 0 -51 -14 q-17 -11 -23.5 -28 q-6.5 -17 -6.5 -79 l0 -180 l161 0 l0 -110 l-161 0 l0 -179 Z"></path></symbol><symbol id="social_vimeo" viewBox="0 -212 1024 1024"><path d="M752 39.19 q-159 -6 -216 173 q29 -12 57 -12 q59 0 51 63 q-3 39 -51.5 112.5 q-48.5 73.5 -72.5 73.5 q-31 0 -57 -113 q-8 -35 -31 -170 q-20 -127 -110 -118 q-38 3 -114 67 l-112 96 l36 44 q30 -19 41 -25 q15 -10 20 -10 q39 0 73 120 l63 219 q46 119 113 119 q110 0 265 -195 q151 -188 156 -296 q8 -145 -111 -148 Z"></path></symbol><symbol id="social_whatshapp" viewBox="0 -212 1024 1024"><path d="M511 -26 q-104 0 -194 53 q-87 51 -138 138 q-52 90 -51 195 q0 53 15 104.5 q15 51.5 42 96.5 l11 15 l-39 142 l144 -37 l14 7 q87 54 196 54 q104 0 194 -53 q88 -51 139 -138 q52 -90 52 -193 q0 -76 -29.5 -147.5 q-29.5 -71.5 -84 -125 q-54.5 -53.5 -124.5 -82.5 q-70 -29 -147 -29 ZM381 151 l3 2 q8 3 13 10 l4 7 l30 69 l5 15 q2 5 0.5 12.5 q-1.5 7.5 -5.5 12.5 q-2 2 -6 8 l-1 3 q-3 3 -4 5 l-5 5 l-6 7 l-7 7 l-1 2 q-1 3 -1 10 q0 2 1 2 l1 5 l11 16 q14 24 40 50 l6 4 l8 8 l10 9 q27 23 63 38 l12 5 l1 1 q6 4 8 4 l5 0 q6 -2 9 -7 l39 -43 l3 -1 q8 -2 12 -2 l4 1 l3 2 q2 1 7 3 l20 9 l62 28 l2 2 q2 0 2 1 l3 2 l0 16 l-1 9 q-4 18 -8.5 25.5 q-4.5 7.5 -11.5 14.5 q-3 3 -5 4 l-17 15 l-6 3 l-3 1 q-1 1 -5 3 q-21 10 -36 10 l-25 0 l-12 -3 l-4 0 l-20 -6 q-90 -25 -161 -87 q-2 -4 -8 -9 l-8 -7 l-4 -3 l-19 -20 q-49 -50 -79 -112 l-2 -8 l-3 -7 q-9 -23 -9 -48 q0 -41 26 -74 q1 -2 4 -5 l3 -5 q1 -1 4 -3 l2 -2 l7 -4 l2 -2 q1 -1 5 -3 l2 -2 l2 0 q2 -1 5 -1 l2 -1 l3 -1 q2 0 2 0 l27 0 Z"></path></symbol><symbol id="social_x" viewBox="0 -212 1024 1024"><path d="M200 6 q-13 0 -21 6 q-8 6 -15 16 q-4 9 -3 21 q1 12 7 20 l252 336 l-211 240 q-4 6 -8 14 q-2 10 -1 15 q0 8 3 14 q5 9 10 13 q3 3 10 7 l2 1 q11 2 16 2 q10 -2 14.5 -4 q4.5 -2 11.5 -9 l201 -229 l169 225 q7 9 14 13 q11 4 18 4 l156 0 q12 0 21.5 -6.5 q9.5 -6.5 13.5 -15.5 q4 -9 3 -20.5 q-1 -11.5 -7 -20.5 l-252 -335 l211 -241 q5 -6 8 -13 q2 -11 2 -16 q-2 -10 -4 -15 q-6 -8 -9 -11 q-3 -3 -11 -8 l-2 -1 q-11 -2 -16 -2 q-10 2 -15 4 q-7 4 -11 10 l-201 228 l-169 -226 q-8 -8 -14 -12 q-11 -4 -18 -4 l-155 0 ZM336 85 l410 547 l-58 0 l-410 -547 l58 0 Z"></path></symbol><symbol id="social_youtube" viewBox="0 -212 1024 1024"><path d="M496 71 l-168 4 q-4 1 -13 1 l-23 2 l-22 1 q-38 3 -58 8 q-26 8 -43 26 q-18 20 -25 44 q-15 88 -16 187 q-2 114 16 185 q9 27 26.5 45 q17.5 18 42.5 24 q18 5 54 8 l21 2 l81 4 l77 2 l129 0 l51 -1 l95 -4 l18 -2 l19 -1 l16 -2 q25 -2 38 -6 q23 -5 43 -25 q18 -20 25 -44 q15 -86 16 -188 q1 -112 -17 -185 q-7 -27 -25 -43 q-17 -20 -43 -26 q-11 -3 -35 -6 l-15 -2 l-64 -4 l-87 -3 l-37 -1 l-77 0 ZM435 226 l199 117 l-199 116 l0 -233 Z"></path></symbol><symbol id="status-shipping_agendada" viewBox="0 -212 1024 1024"><path d="M512 -90 q-122 0 -226 62 q-102 59 -160 160 q-61 105 -61 226.5 q0 121.5 61 226.5 q58 101 160 161 q104 61 226 61 q122 0 226 -61 q102 -60 161 -161 q62 -105 62 -226.5 q0 -121.5 -62 -226.5 q-59 -101 -161 -160 q-104 -62 -226 -62 ZM502 131 q13 0 23.5 10.5 q10.5 10.5 10.5 23.5 l0 205 l126 72 q11 6 14 19.5 q3 13.5 -3.5 25.5 q-6.5 12 -19.5 15.5 q-13 3.5 -25 -2.5 l-143 -82 q-17 -10 -17 -29 l0 -224 q0 -13 10 -23.5 q10 -10.5 24 -10.5 Z"></path></symbol><symbol id="status-shipping_cancelada" viewBox="0 -212 1024 1024"><path d="M512 -90 q-122 0 -226 62 q-102 59 -160 160 q-61 105 -61 226.5 q0 121.5 61 226.5 q58 101 160 161 q104 61 226 61 q122 0 226 -61 q102 -60 161 -161 q62 -105 62 -226.5 q0 -121.5 -62 -226.5 q-59 -101 -161 -160 q-104 -62 -226 -62 ZM663 186 q10 4 14 8 q4 4 8 14 q2 8 0 15.5 q-2 7.5 -9 14.5 l-121 121 l121 120 q10 9 8 22 q0 11 -8 21 q-10 9 -21.5 9 q-11.5 0 -21.5 -9 l-121 -120 l-121 120 q-5 7 -13 9.5 q-8 2.5 -17 -0.5 q-6 -1 -14 -8 q-4 -4 -8 -14 q-2 -9 0.5 -16.5 q2.5 -7.5 8.5 -13.5 l121 -120 l-121 -121 q-8 -10 -8 -22.5 q0 -12.5 8.5 -20.5 q8.5 -8 21.5 -8 q13 0 21 8 l121 121 l121 -121 q7 -7 13.5 -9.5 q6.5 -2.5 16.5 0.5 Z"></path></symbol><symbol id="status-shipping_enviar" viewBox="0 -212 1024 1024"><path d="M512 -90 q-122 0 -226 62 q-102 59 -160 160 q-61 105 -61 226.5 q0 121.5 61 226.5 q58 101 160 161 q104 61 226 61 q122 0 226 -61 q102 -60 161 -161 q62 -105 62 -226.5 q0 -121.5 -62 -226.5 q-59 -101 -161 -160 q-104 -62 -226 -62 ZM431 193 q6 0 10 3 l228 145 q4 3 6.5 8.5 q2.5 5.5 2.5 9.5 q0 4 -2 10 l-2 2 q-3 4 -5 5 l-228 145 q-4 3 -10.5 3 q-6.5 0 -9.5 -2 q-6 -4 -8 -7 q-2 -6 -2 -10 l0 -293 q0 -4 2 -10 q2 -3 7.5 -7 q5.5 -4 10.5 -2 Z"></path></symbol><symbol id="status-shipping_preparacao-pause" viewBox="0 -212 1024 1024"><path d="M512 -90 q-122 0 -226 62 q-102 59 -160 160 q-61 105 -61 226.5 q0 121.5 61 226.5 q58 101 160 161 q104 61 226 61 q122 0 226 -61 q102 -60 161 -161 q62 -105 62 -226.5 q0 -121.5 -62 -226.5 q-59 -101 -161 -160 q-104 -62 -226 -62 ZM451 155 q13 0 21.5 9.5 q8.5 9.5 8.5 24.5 l0 340 q0 14 -8.5 23.5 q-8.5 9.5 -21.5 9.5 l-30 0 q-12 0 -21.5 -10 q-9.5 -10 -9.5 -23 l0 -340 q0 -14 9.5 -24 q9.5 -10 21.5 -10 l30 0 ZM604 155 q11 0 20.5 10 q9.5 10 9.5 24 l0 340 q0 13 -9.5 23 q-9.5 10 -20.5 10 l-31 0 q-13 0 -21.5 -9.5 q-8.5 -9.5 -8.5 -23.5 l0 -340 q0 -15 8.5 -24.5 q8.5 -9.5 21.5 -9.5 l31 0 Z"></path></symbol><symbol id="time" viewBox="0 -212 1024 1024"><path d="M502 134 q-13 0 -22 9.5 q-9 9.5 -9 21.5 l0 224 q0 17 15 27 l144 81 q9 6 22 3 q13 -3 19 -14 q6 -14 3 -25 q-3 -11 -15 -17 l-127 -73 l0 -206 q0 -12 -8 -21.5 q-8 -9.5 -22 -9.5 ZM512 -90 q-122 0 -226 62 q-102 59 -160 160 q-61 105 -61 226.5 q0 121.5 61 226.5 q58 101 160 161 q104 61 226 61 q122 0 226 -61 q102 -60 161 -161 q62 -105 62 -226.5 q0 -121.5 -62 -226.5 q-59 -101 -161 -160 q-104 -62 -226 -62 ZM512 -28 q77 0 148 29.5 q71 29.5 125.5 83.5 q54.5 54 84 125.5 q29.5 71.5 29.5 148 q0 76.5 -29.5 148 q-29.5 71.5 -84 125.5 q-54.5 54 -125.5 84 q-71 30 -148 30 q-77 0 -148 -30 q-71 -30 -125.5 -84 q-54.5 -54 -84 -125.5 q-29.5 -71.5 -29.5 -148 q0 -76.5 29.5 -148 q29.5 -71.5 84 -125.5 q54.5 -54 125.5 -83.5 q71 -29.5 148 -29.5 Z"></path></symbol><symbol id="touch-id" viewBox="0 -212 1024 1024"><path d="M592 629.53 q-5 -1 -8 2 q-3 3 -3 7 q-16 125 -67 216 q-2 4 -1 8.5 q1 4.5 5 6.5 q4 2 8 1 q4 -1 6 -6 q54 -97 69 -224 q1 -4 -2 -7.5 q-3 -3.5 -7 -3.5 ZM434 850.53 q-2 4 -0.5 8 q1.5 4 5.5 6.5 q4 2.5 8.5 1 q4.5 -1.5 6.5 -5.5 l27 -54 q2 -4 0.5 -8.5 q-1.5 -4.5 -5.5 -6 q-4 -1.5 -7.5 -0.5 q-3.5 1 -5.5 5 l-29 54 ZM636 768.53 q-4 -1 -7.5 1.5 q-3.5 2.5 -4.5 6.5 q-12 38 -29 69 q-2 3 -1.5 7.5 q0.5 4.5 4.5 6.5 q4 2 8 1 q4 -1 6 -5 q22 -37 32 -73 q2 -11 -8 -14 ZM508 267.53 q-27 0 -48 16 q-21 16 -29.5 40.5 q-8.5 24.5 -2.5 50.5 q34 138 11 263 l0 0 q-19 112 -75 202 q-3 4 -1.5 8.5 q1.5 4.5 5.5 6.5 q4 2 8 1 q4 -1 6 -5 q56 -92 78 -209 q24 -130 -11 -272 l0 0 q-6 -20 1 -38.5 q7 -18.5 22.5 -30.5 q15.5 -12 35.5 -12 q22 0 39 15 q17 15 22 37 q26 148 18 242 q0 5 2.5 8 q2.5 3 6.5 3 q4 0 7.5 -2.5 q3.5 -2.5 4.5 -6.5 q7 -100 -18 -248 l0 0 q-5 -30 -28 -49.5 q-23 -19.5 -54 -19.5 ZM508 127.53 q-52 0 -101 24.5 q-49 24.5 -80 66.5 q-33 43 -38 92 q-3 30 0 66 q2 23 8 67 q11 71 10 115 q-6 129 -76 223 q-2 4 -1.5 8 q0.5 4 4.5 6.5 q4 2.5 8.5 2 q4.5 -0.5 6.5 -3.5 q73 -97 79 -235 q1 -22 -1 -51 q-2 -16 -6 -50 l-4 -23 q-6 -41 -7 -61 q-3 -34 0 -61 q4 -44 33.5 -81.5 q29.5 -37.5 73.5 -60 q44 -22.5 91 -22.5 q29 0 62 11 q45 13 78 42 q41 36 57.5 90 q16.5 54 22.5 128 q5 70 1 146 q-5 75 -17.5 142 q-12.5 67 -29.5 111 q-1 5 0.5 9 q1.5 4 5.5 5.5 q4 1.5 8 0 q4 -1.5 6 -5.5 q19 -47 31 -116 q12 -69 17 -143 q5 -79 -1 -150 q-7 -76 -24 -133 q-18 -60 -63 -100 q-36 -31 -85 -47 q-37 -12 -69 -12 ZM331 752.53 q-5 7 -13 20 l-12 21 q-7 14 -12 20 q-2 4 -1 9 q1 5 4.5 7 q3.5 2 8 1 q4.5 -1 6.5 -4 q13 -21 18.5 -31.5 q5.5 -10.5 17.5 -31.5 q2 -3 1.5 -7.5 q-0.5 -4.5 -4.5 -6.5 q-4 -2 -8 -1.5 q-4 0.5 -6 4.5 ZM810 580.53 q-5 0 -8 3 q-3 3 -3 7 q-6 65 -11 96 q-7 54 -16 93 q-1 5 1.5 8.5 q2.5 3.5 7 4.5 q4.5 1 8 -1.5 q3.5 -2.5 4.5 -6.5 q17 -75 26 -193 q1 -4 -2 -7 q-3 -3 -7 -4 ZM504 338.53 q-4 1 -6.5 4.5 q-2.5 3.5 -1.5 8.5 q53 225 -14 397 q-1 4 0.5 7.5 q1.5 3.5 6 5 q4.5 1.5 8.5 0 q4 -1.5 6 -5.5 q67 -176 13 -409 q-1 -4 -4.5 -6.5 q-3.5 -2.5 -7.5 -1.5 ZM236 435.53 q-5 1 -7.5 5 q-2.5 4 -1.5 8 q33 164 -49 290 q-2 4 -1.5 8 q0.5 4 4.5 6 q4 2 8.5 1.5 q4.5 -0.5 6.5 -4.5 q87 -132 52 -305 q-1 -4 -4 -7 q-3 -3 -8 -2 ZM477 200.53 q-5 1 -7 4.5 q-2 3.5 -1 7.5 q1 4 4 6.5 q3 2.5 8 1.5 q29 -5 57 2 q28 7 51 24 q37 30 53 89 q10 38 15 107 l0 0 q1 3 1 9 q12 125 -20 274 q-1 4 1.5 7.5 q2.5 3.5 6.5 5 q4 1.5 7.5 -1.5 q3.5 -3 4.5 -7 q33 -149 22 -280 l-1 -4 q-4 -51 -9 -78 q-7 -44 -22 -76 q-17 -38 -46 -61 q-27 -21 -60 -29 q-33 -8 -65 -1 ZM876 401.53 q-5 0 -7.5 3 q-2.5 3 -2.5 8 q16 140 -9 299 q-1 4 2 7.5 q3 3.5 7 4 q4 0.5 8 -2 q4 -2.5 4 -6.5 q23 -160 10 -304 q-1 -5 -4.5 -7.5 q-3.5 -2.5 -7.5 -1.5 ZM424 219.53 q-68 44 -68 122 q0 23 4 47 q2 15 9 42 q15 72 14 127 q-3 78 -32 146 q-2 4 -0.5 8 q1.5 4 5.5 5.5 q4 1.5 8.5 0 q4.5 -1.5 6.5 -5.5 q31 -74 32 -154 q1 -58 -14 -131 q-6 -26 -8 -41 q-3 -22 -3 -44 q0 -35 14.5 -60 q14.5 -25 42.5 -44 q4 -2 4.5 -6.5 q0.5 -4.5 -1.5 -8.5 q-2 -4 -6 -4.5 q-4 -0.5 -8 1.5 ZM369 15.53 q-87 34 -147.5 108.5 q-60.5 74.5 -74.5 166.5 q-5 34 -2 75 q2 27 11 73 q8 56 10 83 q3 49 -5 86 q-9 47 -34 84 q-2 5 -1 9 q1 4 4.5 6 q3.5 2 7.5 1.5 q4 -0.5 7 -4.5 q49 -76 41 -184 q-1 -34 -10 -81 q-7 -48 -9 -72 q-3 -40 1 -73 q13 -87 69.5 -156 q56.5 -69 139.5 -103 q4 -2 5.5 -5.5 q1.5 -3.5 0 -7.5 q-1.5 -4 -5.5 -5.5 q-4 -1.5 -8 -0.5 ZM98 242.53 q-4 -1 -8 1 q-4 2 -5 6 q-10 47 -12 98 q0 39 13 100 l1 3 q9 52 10 79 q4 49 -18 106 q-1 4 0.5 8 q1.5 4 5.5 5.5 q4 1.5 7.5 0 q3.5 -1.5 5.5 -5.5 q24 -60 21 -115 q-2 -28 -13 -81 q-12 -66 -12 -100 q0 -45 11 -93 q1 -4 -1 -7.5 q-2 -3.5 -6 -4.5 ZM945 413.53 q-4 0 -7 3 q-3 3 -3 8 q7 111 -3 184 q0 5 2.5 8 q2.5 3 6.5 4 q4 1 7.5 -1.5 q3.5 -2.5 4.5 -7.5 q11 -77 3 -189 q-2 -9 -11 -9 ZM340 -127.47 q-61 18 -130 68 q-75 54 -123 125 l0 0 q-46 68 -69 146 q-23 83 -16 161 q0 0 0 0 q2 17 9 54 l1 5 q8 38 12 63 q4 34 0 62 q-1 4 1.5 8 q2.5 4 6.5 5 q11 0 12 -10 q4 -27 1 -61 q-2 -21 -10 -62 l-1 -7 q-7 -36 -11 -59 q-8 -75 16 -154 q21 -73 65 -140 q47 -68 118 -120 q66 -48 124 -63 q9 -3 7 -14 q-2 -4 -5.5 -6 q-3.5 -2 -7.5 -1 ZM723 168.53 q-3 3 -3 7 q0 4 3 9 q29 29 45 82 q11 34 20 94 q13 85 13 172 q0 4 3 7 q3 3 7 3 q4 0 7.5 -3 q3.5 -3 3.5 -7 q0 -90 -13 -175 q-9 -61 -22 -100 q-18 -56 -50 -89 q-2 -3 -6.5 -3 q-4.5 0 -7.5 3 ZM399 -143.47 q-4 1 -6.5 4.5 q-2.5 3.5 -1.5 7.5 q1 4 4.5 6.5 q3.5 2.5 7.5 1.5 q104 -22 213 5 q83 21 154.5 67 q71.5 46 123.5 113 q52 67 78 147 q28 89 30 200 q2 4 5 7 q3 3 7 3 q4 0 7 -3 q3 -3 3 -8 q-3 -118 -31 -204 q-27 -84 -81.5 -153.5 q-54.5 -69.5 -129 -118.5 q-74.5 -49 -161.5 -70 q-110 -29 -222 -5 ZM508 60.53 q-80 0 -147.5 38 q-67.5 38 -106.5 104 q-40 67 -40 144 q0 23 5 51 q1 4 4 6.5 q3 2.5 8 1.5 q5 -1 7.5 -4.5 q2.5 -3.5 1.5 -8.5 q-4 -19 -4 -46 q0 -71 36.5 -132.5 q36.5 -61.5 99 -97.5 q62.5 -36 136.5 -36 q50 0 95.5 17 q45.5 17 81.5 48 q4 3 8 3 q4 0 7 -3.5 q3 -3.5 2.5 -8.5 q-0.5 -5 -3.5 -7 q-39 -34 -88 -51.5 q-49 -17.5 -103 -17.5 ZM856 108.53 q-4 2 -4.5 6.5 q-0.5 4.5 1.5 8.5 q35 52 54 116 q18 56 24 131 q1 4 4 7 q3 3 7 2.5 q4 -0.5 7 -3.5 q3 -3 3 -8 q-6 -77 -24 -136 q-20 -66 -58 -121 q-2 -4 -6 -4.5 q-4 -0.5 -8 1.5 ZM428 -2.47 q-4 1 -6.5 4.5 q-2.5 3.5 -1.5 8 q1 4.5 5 7 q4 2.5 8 1.5 q82 -19 164.5 1.5 q82.5 20.5 141.5 75.5 q51 48 81 115 q29 66 37 142 q1 5 4 8 q3 3 7 2.5 q4 -0.5 7.5 -4 q3.5 -3.5 2.5 -8.5 q-9 -80 -39 -149 q-32 -72 -85 -121 q-64 -59 -153 -81 q-86 -21 -173 -2 ZM484 -83.47 q-83 4 -160 40.5 q-77 36.5 -135.5 99 q-58.5 62.5 -87.5 140.5 q-2 5 0.5 8.5 q2.5 3.5 7 5 q4.5 1.5 8.5 -0.5 q4 -2 5 -6 q26 -74 81.5 -133.5 q55.5 -59.5 129.5 -94 q74 -34.5 152 -38.5 l0 0 q96 -5 185.5 32 q89.5 37 151.5 110 q6 6 16 1 q3 -3 3.5 -7 q0.5 -4 -2.5 -8 q-67 -77 -160.5 -116 q-93.5 -39 -194.5 -33 Z"></path></symbol><symbol id="unlock" viewBox="0 -212 1024 1024"><path d="M512 -69 q-73 0 -133 36 q-57 35 -90 96 q-33 61 -33 134 l0 75 l-22 0 q-20 0 -40 8 q-20 8 -34 22 q-32 32 -32 76 l0 341 q0 22 8 42 q8 20 23 34.5 q15 14.5 35 23 q20 8.5 40 8.5 l556 0 q44 0 75 -32 q15 -14 23 -34 q8 -20 8 -42 l0 -341 q0 -43 -31 -76 q-32 -30 -75 -30 l-469 0 l0 -75 q0 -56 25 -103 q25 -47 68.5 -73.5 q43.5 -26.5 97.5 -26.5 q66 0 115 38.5 q49 38.5 67 99.5 l2 3 q2 7 4.5 10 q2.5 3 10 7 q7.5 4 11.5 4 q9 0 13.5 -1 q4.5 -1 10.5 -6 q5 -4 8 -11 q2 -3 4 -11 q0 -9 -2 -13 q-17 -53 -51.5 -94.5 q-34.5 -41.5 -83.5 -64.5 q-51 -24 -109 -24 ZM790 335 q18 0 29 13 q14 12 14 30 l0 341 q0 17 -14 31 q-10 12 -29 12 l-556 0 q-17 0 -29 -12 q-12 -12 -12 -31 l0 -341 q0 -19 12 -30 q13 -13 29 -13 l556 0 Z"></path></symbol><symbol id="up-full" viewBox="0 -212 1024 1024"><path d="M512 230 q-4 0 -7.5 1.5 q-3.5 1.5 -4.5 3.5 l-239 251 q-4 6 -5 9 q0 8 1 11 q4 6 8 9 q4 3 8 3 l478 0 q6 0 9 -3 q3 -3 7 -9 q1 -3 1 -11 q-1 -3 -5 -9 l-239 -251 q-1 -2 -5 -4 q-2 -1 -7 -1 Z"></path></symbol><symbol id="up-right" viewBox="0 -212 1024 1024"><path d="M369 70.36 q-15 0 -24 9 q-9 9 -9 23.5 q0 14.5 9.5 24 q9.5 9.5 23.5 9.5 l318 0 l-453 452 q-6 6 -9 15 q-3 9 -0.5 18 q2.5 9 9 15 q6.5 6 15.5 8.5 q9 2.5 17.5 -0.5 q8.5 -3 15.5 -9 l451 -453 l0 319 q0 13 10 23 q10 10 24 10 q14 0 23.5 -9.5 q9.5 -9.5 9.5 -23.5 l0 -398 q0 -15 -9.5 -24 q-9.5 -9 -23.5 -9 l-398 0 Z"></path></symbol><symbol id="up" viewBox="0 -212 1024 1024"><path d="M512 199 q-8 0 -11 2 q-6 3 -11 7 l-257 258 q-2 2 -6 7 l-1 2 q-2 9 -2 13 q0 4 2 12 l1 2 q4 5 6.5 7 q2.5 2 7.5 6 l2 1 q8 2 12.5 2 q4.5 0 10.5 -2.5 q6 -2.5 10 -6.5 l236 -235 l236 235 q4 4 10 6.5 q6 2.5 10.5 2.5 q4.5 0 12.5 -2 l2 -1 q5 -4 7.5 -6 q2.5 -2 6.5 -7 l1 -2 q2 -4 2 -12.5 q0 -8.5 -2 -12.5 l-1 -2 q-4 -5 -6 -7 l-257 -258 q-3 -2 -8 -6 l-2 -1 q-4 -2 -12 -2 Z"></path></symbol><symbol id="user" viewBox="0 -212 1024 1024"><path d="M512 -26 q-38 0 -74 11 q-36 11 -66 33.5 q-30 22.5 -52 53 q-22 30.5 -33 66 q-11 35.5 -9.5 72 q1.5 36.5 13.5 71.5 q12 35 35 64.5 q23 29.5 54 50.5 q-54 20 -100 54 q-46 34 -79.5 80 q-33.5 46 -52 99.5 q-18.5 53.5 -20.5 111.5 q0 13 8.5 22.5 q8.5 9.5 23.5 9.5 q12 2 21.5 -8 q9.5 -10 11.5 -23 q2 -62 27 -118 q25 -56 69.5 -98.5 q44.5 -42.5 102.5 -65.5 q58 -23 120 -23 q62 0 120.5 23 q58.5 23 102.5 65.5 q44 42.5 69.5 98.5 q25.5 56 28.5 118 q0 6 2 12 q4 8 7 10.5 q3 2.5 11 6 q8 3.5 13 3.5 q5 0 12 -3 q4 -1 9.5 -7 q5.5 -6 7 -10.5 q1.5 -4.5 1.5 -12.5 q-1 -56 -20 -110.5 q-19 -54.5 -52 -100 q-33 -45.5 -79.5 -80.5 q-46.5 -35 -100.5 -54 q64 -42 90 -115 q12 -35 13 -72.5 q1 -37.5 -11 -71.5 q-21 -72 -85 -118 q-29 -23 -65 -34 q-36 -11 -74 -11 ZM512 36 q34 0 65.5 13 q31.5 13 55 36.5 q23.5 23.5 37 54.5 q13.5 31 13.5 64.5 q0 33.5 -13.5 65 q-13.5 31.5 -37 55 q-23.5 23.5 -55 36 q-31.5 12.5 -65.5 12.5 q-34 0 -65 -12.5 q-31 -12.5 -55 -36 q-24 -23.5 -37.5 -55 q-13.5 -31.5 -13.5 -65 q0 -33.5 13.5 -64.5 q13.5 -31 37.5 -54.5 q24 -23.5 55 -36.5 q31 -13 65 -13 Z"></path></symbol></defs></svg>